<?xml version="1.0" encoding="UTF-8"?>
<!DOCTYPE svg PUBLIC "-//W3C//DTD SVG 1.1//EN" "http://www.w3.org/Graphics/SVG/1.1/DTD/svg11.dtd">
<svg xmlns="http://www.w3.org/2000/svg" version="1.1" width="1912px" height="416px" style="shape-rendering:geometricPrecision; text-rendering:geometricPrecision; image-rendering:optimizeQuality; fill-rule:evenodd; clip-rule:evenodd" xmlns:xlink="http://www.w3.org/1999/xlink">
<g><path style="opacity:0.994" fill="#c9a817" d="M 404.5,141.5 C 393.506,151.161 382.839,161.161 372.5,171.5C 362.657,157.646 351.657,144.646 339.5,132.5C 327.36,120.482 313.694,112.316 298.5,108C 293.882,107.006 289.215,106.506 284.5,106.5C 284.5,106.167 284.5,105.833 284.5,105.5C 309.325,102.156 333.992,102.989 358.5,108C 378.347,113.079 393.68,124.246 404.5,141.5 Z"/></g>
<g><path style="opacity:1" fill="#7bc6b7" d="M 254.5,108.5 C 253.971,119.764 253.971,131.264 254.5,143C 253.751,144.734 253.251,146.567 253,148.5C 252.329,147.748 251.496,147.414 250.5,147.5C 249.833,147.5 249.5,147.167 249.5,146.5C 240.01,133.674 228.343,123.341 214.5,115.5C 207.848,111.183 200.515,108.517 192.5,107.5C 188.833,106.833 185.167,106.167 181.5,105.5C 206.051,102.055 230.385,103.055 254.5,108.5 Z"/></g>
<g><path style="opacity:1" fill="#5faca8" d="M 181.5,105.5 C 185.167,106.167 188.833,106.833 192.5,107.5C 193.096,122.673 192.43,137.673 190.5,152.5C 187.214,154.451 184.214,156.785 181.5,159.5C 180.84,142.333 180.173,125.167 179.5,108C 180.056,107.617 180.389,107.117 180.5,106.5C 180.5,105.833 180.833,105.5 181.5,105.5 Z"/></g>
<g><path style="opacity:0.031" fill="#658c79" d="M 284.5,105.5 C 284.5,105.833 284.5,106.167 284.5,106.5C 281.895,107.504 281.895,107.17 284.5,105.5 Z"/></g>
<g><path style="opacity:0.995" fill="#6ab6ae" d="M 180.5,106.5 C 180.389,107.117 180.056,107.617 179.5,108C 180.173,125.167 180.84,142.333 181.5,159.5C 174.091,169.886 169.924,181.553 169,194.5C 165.338,219.214 169.838,242.214 182.5,263.5C 181.778,263.918 181.278,264.584 181,265.5C 180.5,280.496 180.333,295.496 180.5,310.5C 179.883,310.611 179.383,310.944 179,311.5C 176.731,309.731 174.398,309.065 172,309.5C 169.567,307.702 167.067,306.036 164.5,304.5C 164.5,239.833 164.5,175.167 164.5,110.5C 169.58,108.23 174.913,106.897 180.5,106.5 Z"/></g>
<g><path style="opacity:1" fill="#54a1a0" d="M 192.5,107.5 C 200.515,108.517 207.848,111.183 214.5,115.5C 212.525,125.446 211.858,135.779 212.5,146.5C 213.5,146.5 214.5,146.5 215.5,146.5C 206.977,146.3 198.643,148.3 190.5,152.5C 192.43,137.673 193.096,122.673 192.5,107.5 Z"/></g>
<g><path style="opacity:1" fill="#73beb3" d="M 164.5,110.5 C 164.5,175.167 164.5,239.833 164.5,304.5C 160.608,302.938 157.275,300.605 154.5,297.5C 155.492,236.795 155.825,176.128 155.5,115.5C 158.013,113.074 161.013,111.408 164.5,110.5 Z"/></g>
<g><path style="opacity:0.99" fill="#29819c" d="M 536.5,114.5 C 549.833,114.5 563.167,114.5 576.5,114.5C 585.051,152.702 594.218,190.702 604,228.5C 613.153,190.557 621.986,152.557 630.5,114.5C 643.833,114.5 657.167,114.5 670.5,114.5C 670.5,170.833 670.5,227.167 670.5,283.5C 661.167,283.5 651.833,283.5 642.5,283.5C 642.822,270.587 642.489,257.754 641.5,245C 643.397,223.593 643.897,202.093 643,180.5C 635,214.5 627,248.5 619,282.5C 608.91,283.652 598.744,283.819 588.5,283C 588.833,282.667 589.167,282.333 589.5,282C 584.64,264.057 580.307,245.89 576.5,227.5C 572.256,210.852 568.089,193.852 564,176.5C 564.477,212.153 564.977,247.819 565.5,283.5C 555.833,283.5 546.167,283.5 536.5,283.5C 536.5,227.167 536.5,170.833 536.5,114.5 Z"/></g>
<g><path style="opacity:0.993" fill="#29819c" d="M 727.5,114.5 C 745.833,114.5 764.167,114.5 782.5,114.5C 782.5,126.167 782.5,137.833 782.5,149.5C 764.777,149.055 747.111,149.555 729.5,151C 719.37,158.099 714.703,167.932 715.5,180.5C 737.833,180.5 760.167,180.5 782.5,180.5C 782.5,192.167 782.5,203.833 782.5,215.5C 759.833,215.5 737.167,215.5 714.5,215.5C 714.584,224.436 716.751,232.769 721,240.5C 725.712,245.518 731.546,248.018 738.5,248C 753.163,248.5 767.83,248.667 782.5,248.5C 782.5,260.167 782.5,271.833 782.5,283.5C 766.83,283.667 751.163,283.5 735.5,283C 717.525,283.432 704.025,275.932 695,260.5C 691.001,253.08 688.168,245.58 686.5,238C 681.379,212.595 681.212,187.095 686,161.5C 688.974,144.695 697.141,131.195 710.5,121C 716.02,118.11 721.686,115.943 727.5,114.5 Z"/></g>
<g><path style="opacity:0.993" fill="#29819c" d="M 798.5,114.5 C 820.503,114.333 842.503,114.5 864.5,115C 886.591,119.758 900.091,133.258 905,155.5C 912.66,185.947 912.326,216.28 904,246.5C 897.998,264.837 885.831,276.671 867.5,282C 844.527,283.387 821.527,283.887 798.5,283.5C 798.5,227.167 798.5,170.833 798.5,114.5 Z M 827.5,149.5 C 838.505,149.333 849.505,149.5 860.5,150C 869.598,152.772 874.764,158.939 876,168.5C 879.333,188.5 879.333,208.5 876,228.5C 873.77,241.062 866.27,247.562 853.5,248C 844.84,248.5 836.173,248.666 827.5,248.5C 827.5,215.5 827.5,182.5 827.5,149.5 Z"/></g>
<g><path style="opacity:0.985" fill="#2b819c" d="M 918.5,114.5 C 928.5,114.5 938.5,114.5 948.5,114.5C 948.333,153.168 948.5,191.835 949,230.5C 950.246,240.51 955.746,246.677 965.5,249C 978.162,249.5 990.829,249.667 1003.5,249.5C 1003.5,260.833 1003.5,272.167 1003.5,283.5C 991.162,283.667 978.829,283.5 966.5,283C 949.068,283.87 936.235,276.704 928,261.5C 924.809,255.534 922.642,249.534 921.5,243.5C 921.003,239.825 920.003,236.325 918.5,233C 918.633,193.578 918.633,154.078 918.5,114.5 Z"/></g>
<g><path style="opacity:0.983" fill="#29819d" d="M 1011.5,114.5 C 1021.5,114.5 1031.5,114.5 1041.5,114.5C 1041.5,170.833 1041.5,227.167 1041.5,283.5C 1031.5,283.5 1021.5,283.5 1011.5,283.5C 1011.5,227.167 1011.5,170.833 1011.5,114.5 Z"/></g>
<g><path style="opacity:0.992" fill="#29819c" d="M 1060.5,114.5 C 1072.41,114.179 1084.25,114.512 1096,115.5C 1110,150.167 1124,184.833 1138,219.5C 1137.82,184.505 1137.65,149.505 1137.5,114.5C 1147.5,114.5 1157.5,114.5 1167.5,114.5C 1167.5,170.833 1167.5,227.167 1167.5,283.5C 1156.5,283.5 1145.5,283.5 1134.5,283.5C 1120.19,247.236 1105.36,210.236 1090,172.5C 1089.82,209.499 1089.99,246.499 1090.5,283.5C 1080.5,283.5 1070.5,283.5 1060.5,283.5C 1060.5,227.167 1060.5,170.833 1060.5,114.5 Z"/></g>
<g><path style="opacity:0.993" fill="#29819c" d="M 1223.5,114.5 C 1241.5,114.5 1259.5,114.5 1277.5,114.5C 1277.5,126.167 1277.5,137.833 1277.5,149.5C 1260.1,149.042 1242.76,149.542 1225.5,151C 1220.67,153.167 1217.17,156.667 1215,161.5C 1212.71,167.658 1211.21,173.992 1210.5,180.5C 1232.83,180.5 1255.17,180.5 1277.5,180.5C 1277.5,192.167 1277.5,203.833 1277.5,215.5C 1255.17,215.5 1232.83,215.5 1210.5,215.5C 1210.52,223.928 1212.35,231.928 1216,239.5C 1220.83,245.165 1227,247.998 1234.5,248C 1248.83,248.5 1263.16,248.667 1277.5,248.5C 1277.5,260.167 1277.5,271.833 1277.5,283.5C 1261.83,283.667 1246.16,283.5 1230.5,283C 1215.93,283.3 1204.1,277.8 1195,266.5C 1185.38,251.961 1180.04,236.294 1179,219.5C 1178.82,208.59 1178.32,197.757 1177.5,187C 1179.07,176.589 1181.07,166.256 1183.5,156C 1187.7,133.627 1201.04,119.793 1223.5,114.5 Z"/></g>
<g><path style="opacity:1" fill="#79c3b6" d="M 155.5,115.5 C 155.825,176.128 155.492,236.795 154.5,297.5C 151.931,297.262 150.265,295.929 149.5,293.5C 150.547,292.922 150.38,292.256 149,291.5C 148.667,234.833 148.333,178.167 148,121.5C 147.184,122.823 146.017,123.489 144.5,123.5C 147.601,120.067 151.268,117.4 155.5,115.5 Z"/></g>
<g><path style="opacity:0.922" fill="#439298" d="M 214.5,115.5 C 228.343,123.341 240.01,133.674 249.5,146.5C 238.167,146.5 226.833,146.5 215.5,146.5C 214.5,146.5 213.5,146.5 212.5,146.5C 211.858,135.779 212.525,125.446 214.5,115.5 Z"/></g>
<g><path style="opacity:0.996" fill="#6eb9b0" d="M 254.5,108.5 C 269.581,112.865 282.581,120.532 293.5,131.5C 292.933,133.03 292.267,134.53 291.5,136C 292.823,158.619 292.823,180.786 291.5,202.5C 277.862,183.615 264.195,165.282 250.5,147.5C 251.496,147.414 252.329,147.748 253,148.5C 253.251,146.567 253.751,144.734 254.5,143C 253.971,131.264 253.971,119.764 254.5,108.5 Z"/></g>
<g><path style="opacity:1" fill="#f9e955" d="M 1575.5,124.5 C 1544.39,125.189 1511.39,125.856 1476.5,126.5C 1476.5,125.833 1476.17,125.5 1475.5,125.5C 1475.5,121.833 1475.5,118.167 1475.5,114.5C 1505.5,114.333 1535.5,114.5 1565.5,115C 1569.33,117.668 1572.67,120.835 1575.5,124.5 Z"/></g>
<g><path style="opacity:1" fill="#f9ea56" d="M 1469.5,114.5 C 1469.5,118.833 1469.5,123.167 1469.5,127.5C 1450.5,127.688 1431.5,128.021 1412.5,128.5C 1412.82,134.358 1412.49,140.025 1411.5,145.5C 1411.5,135.167 1411.5,124.833 1411.5,114.5C 1430.83,114.5 1450.17,114.5 1469.5,114.5 Z"/></g>
<g><path style="opacity:1" fill="#7ec9b9" d="M 149.5,293.5 C 147.53,291.366 145.363,289.366 143,287.5C 141.755,284.676 140.255,282.009 138.5,279.5C 139.222,279.082 139.722,278.416 140,277.5C 140.167,253 140.333,228.5 140.5,204C 140.5,179.157 139.833,154.657 138.5,130.5C 139.8,127.568 141.8,125.234 144.5,123.5C 146.017,123.489 147.184,122.823 148,121.5C 148.333,178.167 148.667,234.833 149,291.5C 150.38,292.256 150.547,292.922 149.5,293.5 Z"/></g>
<g><path style="opacity:1" fill="#f9ea56" d="M 1385.5,129.5 C 1377.92,129.886 1370.75,129.886 1364,129.5C 1363.33,132.167 1362.67,132.167 1362,129.5C 1361.33,132.167 1360.67,132.167 1360,129.5C 1359.33,132.167 1358.67,132.167 1358,129.5C 1357.33,130.167 1356.67,130.833 1356,131.5C 1345.91,130.651 1335.41,130.651 1324.5,131.5C 1324.5,125.833 1324.5,120.167 1324.5,114.5C 1344.83,114.5 1365.17,114.5 1385.5,114.5C 1385.5,119.5 1385.5,124.5 1385.5,129.5 Z"/></g>
<g><path style="opacity:1" fill="#f9e44f" d="M 1669.5,133.5 C 1651.57,132.92 1633.57,132.92 1615.5,133.5C 1615.71,135.179 1615.05,136.179 1613.5,136.5C 1616.25,129.428 1618.91,122.262 1621.5,115C 1635.83,114.5 1650.16,114.333 1664.5,114.5C 1665.96,120.884 1667.63,127.217 1669.5,133.5 Z"/></g>
<g><path style="opacity:1" fill="#fae34d" d="M 1575.5,124.5 C 1579.1,126.43 1582.1,129.097 1584.5,132.5C 1584.39,133.117 1584.06,133.617 1583.5,134C 1547.85,135.517 1512.18,136.684 1476.5,137.5C 1476.5,133.833 1476.5,130.167 1476.5,126.5C 1511.39,125.856 1544.39,125.189 1575.5,124.5 Z"/></g>
<g><path style="opacity:0.012" fill="#78986f" d="M 339.5,132.5 C 338.833,133.167 338.833,133.167 339.5,132.5 Z"/></g>
<g><path style="opacity:0.989" fill="#86d0be" d="M 138.5,130.5 C 139.833,154.657 140.5,179.157 140.5,204C 140.333,228.5 140.167,253 140,277.5C 139.722,278.416 139.222,279.082 138.5,279.5C 132.073,267.255 127.073,255.088 123.5,243C 124.26,238.217 123.594,233.55 121.5,229C 121.071,223.381 121.071,218.048 121.5,213C 119.6,205.651 119.6,198.151 121.5,190.5C 121.483,174.348 124.65,158.348 131,142.5C 133.275,138.268 135.775,134.268 138.5,130.5 Z"/></g>
<g><path style="opacity:1" fill="#fade44" d="M 1475.5,125.5 C 1476.17,125.5 1476.5,125.833 1476.5,126.5C 1476.5,130.167 1476.5,133.833 1476.5,137.5C 1512.18,136.684 1547.85,135.517 1583.5,134C 1584.06,133.617 1584.39,133.117 1584.5,132.5C 1584.83,132.5 1585.17,132.5 1585.5,132.5C 1586.32,135.764 1586.66,139.098 1586.5,142.5C 1549.83,143.113 1513.17,143.779 1476.5,144.5C 1476.74,145.791 1476.4,146.791 1475.5,147.5C 1475.5,140.167 1475.5,132.833 1475.5,125.5 Z"/></g>
<g><path style="opacity:1" fill="#fae047" d="M 1469.5,127.5 C 1469.5,133.5 1469.5,139.5 1469.5,145.5C 1450.31,145.257 1431.31,145.923 1412.5,147.5C 1412.17,147.5 1411.83,147.5 1411.5,147.5C 1411.5,146.833 1411.5,146.167 1411.5,145.5C 1412.49,140.025 1412.82,134.358 1412.5,128.5C 1431.5,128.021 1450.5,127.688 1469.5,127.5 Z"/></g>
<g><path style="opacity:1" fill="#f6d940" d="M 1669.5,133.5 C 1671.07,136.215 1672.07,139.215 1672.5,142.5C 1651.78,143.595 1631.44,144.262 1611.5,144.5C 1611.96,141.779 1612.63,139.112 1613.5,136.5C 1615.05,136.179 1615.71,135.179 1615.5,133.5C 1633.57,132.92 1651.57,132.92 1669.5,133.5 Z"/></g>
<g><path style="opacity:1" fill="#fae047" d="M 1385.5,129.5 C 1385.5,135.167 1385.5,140.833 1385.5,146.5C 1379.37,146.682 1372.87,147.349 1366,148.5C 1357.35,148.281 1349.02,147.948 1341,147.5C 1340.33,148.167 1339.67,148.833 1339,149.5C 1334.23,148.607 1329.39,148.607 1324.5,149.5C 1324.5,143.5 1324.5,137.5 1324.5,131.5C 1335.41,130.651 1345.91,130.651 1356,131.5C 1356.67,130.833 1357.33,130.167 1358,129.5C 1358.67,132.167 1359.33,132.167 1360,129.5C 1360.67,132.167 1361.33,132.167 1362,129.5C 1362.67,132.167 1363.33,132.167 1364,129.5C 1370.75,129.886 1377.92,129.886 1385.5,129.5 Z"/></g>
<g><path style="opacity:1" fill="#efd039" d="M 1585.5,132.5 C 1586.12,132.611 1586.62,132.944 1587,133.5C 1587.5,141.159 1587.67,148.826 1587.5,156.5C 1583.59,155.235 1579.42,154.569 1575,154.5C 1550.25,155.063 1525.59,156.063 1501,157.5C 1498.76,156.863 1496.42,156.53 1494,156.5C 1487.52,156.518 1481.36,157.518 1475.5,159.5C 1475.5,155.5 1475.5,151.5 1475.5,147.5C 1476.4,146.791 1476.74,145.791 1476.5,144.5C 1513.17,143.779 1549.83,143.113 1586.5,142.5C 1586.66,139.098 1586.32,135.764 1585.5,132.5 Z"/></g>
<g><path style="opacity:0.996" fill="#ebcc36" d="M 1672.5,142.5 C 1674.07,145.215 1675.07,148.215 1675.5,151.5C 1659.11,152.43 1642.28,153.097 1625,153.5C 1619.42,153.478 1613.92,153.144 1608.5,152.5C 1608.66,150.173 1609.33,148.007 1610.5,146C 1609.29,144.893 1609.62,144.393 1611.5,144.5C 1631.44,144.262 1651.78,143.595 1672.5,142.5 Z"/></g>
<g><path style="opacity:1" fill="#f1d33c" d="M 1469.5,145.5 C 1469.5,147.833 1469.5,150.167 1469.5,152.5C 1450.22,152.566 1431.22,152.9 1412.5,153.5C 1412.5,151.5 1412.5,149.5 1412.5,147.5C 1431.31,145.923 1450.31,145.257 1469.5,145.5 Z"/></g>
<g><path style="opacity:0.998" fill="#cfaf1d" d="M 404.5,141.5 C 410.183,147.854 415.516,154.52 420.5,161.5C 415.571,166.292 410.737,170.625 406,174.5C 405,176.167 404,177.833 403,179.5C 402.333,175.5 401.667,175.5 401,179.5C 399.018,180.094 397.184,181.26 395.5,183C 395.833,183.333 396.167,183.667 396.5,184C 394.951,185.214 393.785,186.714 393,188.5C 392.667,188.167 392.333,187.833 392,187.5C 390.168,189.975 389.001,192.308 388.5,194.5C 385.5,190.5 382.5,186.5 379.5,182.5C 376.906,178.974 374.573,175.308 372.5,171.5C 382.839,161.161 393.506,151.161 404.5,141.5 Z"/></g>
<g><path style="opacity:0.983" fill="#edce37" d="M 1385.5,146.5 C 1385.5,150.833 1385.5,155.167 1385.5,159.5C 1365.08,159.887 1344.74,160.887 1324.5,162.5C 1324.5,158.167 1324.5,153.833 1324.5,149.5C 1329.39,148.607 1334.23,148.607 1339,149.5C 1339.67,148.833 1340.33,148.167 1341,147.5C 1349.02,147.948 1357.35,148.281 1366,148.5C 1372.87,147.349 1379.37,146.682 1385.5,146.5 Z"/></g>
<g><path style="opacity:0.998" fill="#e0c02b" d="M 1675.5,151.5 C 1676.74,153.214 1677.41,155.214 1677.5,157.5C 1677.63,158.239 1677.46,158.906 1677,159.5C 1653.31,160.273 1629.47,160.273 1605.5,159.5C 1606.32,157.013 1607.32,154.679 1608.5,152.5C 1613.92,153.144 1619.42,153.478 1625,153.5C 1642.28,153.097 1659.11,152.43 1675.5,151.5 Z"/></g>
<g><path style="opacity:1" fill="#e6c630" d="M 1411.5,147.5 C 1411.83,147.5 1412.17,147.5 1412.5,147.5C 1412.5,149.5 1412.5,151.5 1412.5,153.5C 1431.22,152.9 1450.22,152.566 1469.5,152.5C 1469.5,155.5 1469.5,158.5 1469.5,161.5C 1450.09,161.737 1430.76,162.404 1411.5,163.5C 1411.5,158.167 1411.5,152.833 1411.5,147.5 Z"/></g>
<g><path style="opacity:1" fill="#63afaa" d="M 293.5,131.5 C 304.942,142.27 315.275,153.936 324.5,166.5C 323.522,166.811 322.855,167.478 322.5,168.5C 323.157,180.623 323.49,192.79 323.5,205C 323.499,217.186 322.832,229.019 321.5,240.5C 311.088,228.096 301.088,215.43 291.5,202.5C 292.823,180.786 292.823,158.619 291.5,136C 292.267,134.53 292.933,133.03 293.5,131.5 Z"/></g>
<g><path style="opacity:0.991" fill="#d6b523" d="M 1677.5,157.5 C 1678.67,160.341 1679.67,163.341 1680.5,166.5C 1667.9,165.636 1655.24,165.636 1642.5,166.5C 1642.63,165.624 1642.3,164.957 1641.5,164.5C 1640.15,167.592 1638.81,170.592 1637.5,173.5C 1637.5,172.5 1637.5,171.5 1637.5,170.5C 1629.91,170.814 1622.41,170.481 1615,169.5C 1611.67,170.167 1608.33,170.833 1605,171.5C 1604.15,170.429 1603.31,169.429 1602.5,168.5C 1603.7,165.574 1604.7,162.574 1605.5,159.5C 1629.47,160.273 1653.31,160.273 1677,159.5C 1677.46,158.906 1677.63,158.239 1677.5,157.5 Z"/></g>
<g><path style="opacity:0.995" fill="#e0c02c" d="M 1587.5,156.5 C 1587.5,158.167 1587.5,159.833 1587.5,161.5C 1568.17,161.982 1548.83,162.482 1529.5,163C 1528.1,164.31 1527.1,165.81 1526.5,167.5C 1526.5,164.167 1526.5,160.833 1526.5,157.5C 1518.5,157.5 1510.5,157.5 1502.5,157.5C 1502.5,164.833 1502.5,172.167 1502.5,179.5C 1501.51,175.03 1501.18,170.363 1501.5,165.5C 1492.75,165.803 1484.08,165.47 1475.5,164.5C 1475.5,162.833 1475.5,161.167 1475.5,159.5C 1481.36,157.518 1487.52,156.518 1494,156.5C 1496.42,156.53 1498.76,156.863 1501,157.5C 1525.59,156.063 1550.25,155.063 1575,154.5C 1579.42,154.569 1583.59,155.235 1587.5,156.5 Z"/></g>
<g><path style="opacity:1" fill="#e0c02b" d="M 1385.5,159.5 C 1385.5,161.833 1385.5,164.167 1385.5,166.5C 1366.14,167.057 1346.14,167.723 1325.5,168.5C 1325.77,166.901 1325.43,165.568 1324.5,164.5C 1324.5,163.833 1324.5,163.167 1324.5,162.5C 1344.74,160.887 1365.08,159.887 1385.5,159.5 Z"/></g>
<g><path style="opacity:1" fill="#d8b723" d="M 1469.5,161.5 C 1469.5,165.833 1469.5,170.167 1469.5,174.5C 1455.71,175.026 1440.88,175.026 1425,174.5C 1421.33,175.167 1417.67,175.833 1414,176.5C 1412.93,173.5 1412.09,170.5 1411.5,167.5C 1411.5,166.167 1411.5,164.833 1411.5,163.5C 1430.76,162.404 1450.09,161.737 1469.5,161.5 Z"/></g>
<g><path style="opacity:0.671" fill="#d5b421" d="M 1587.5,161.5 C 1587.5,164.5 1587.5,167.5 1587.5,170.5C 1567.17,170.5 1546.83,170.5 1526.5,170.5C 1526.5,169.5 1526.5,168.5 1526.5,167.5C 1527.1,165.81 1528.1,164.31 1529.5,163C 1548.83,162.482 1568.17,161.982 1587.5,161.5 Z"/></g>
<g><path style="opacity:0.997" fill="#d7b724" d="M 420.5,161.5 C 427.396,169.612 434.063,177.945 440.5,186.5C 439.603,187.598 438.77,187.598 438,186.5C 436.74,189.428 434.573,191.261 431.5,192C 431.833,192.333 432.167,192.667 432.5,193C 431.026,194.316 429.359,195.316 427.5,196C 427.833,196.333 428.167,196.667 428.5,197C 427.5,197.333 426.5,197.667 425.5,198C 421.131,202.939 416.631,207.772 412,212.5C 411.667,211.833 411.333,211.167 411,210.5C 409.303,213.02 407.47,215.353 405.5,217.5C 399.479,210.139 393.813,202.472 388.5,194.5C 389.001,192.308 390.168,189.975 392,187.5C 392.333,187.833 392.667,188.167 393,188.5C 393.785,186.714 394.951,185.214 396.5,184C 396.167,183.667 395.833,183.333 395.5,183C 397.184,181.26 399.018,180.094 401,179.5C 401.667,175.5 402.333,175.5 403,179.5C 404,177.833 405,176.167 406,174.5C 410.737,170.625 415.571,166.292 420.5,161.5 Z"/></g>
<g><path style="opacity:1" fill="#d4b320" d="M 1324.5,164.5 C 1325.43,165.568 1325.77,166.901 1325.5,168.5C 1346.14,167.723 1366.14,167.057 1385.5,166.5C 1385.5,169.5 1385.5,172.5 1385.5,175.5C 1382.99,176.113 1380.49,176.78 1378,177.5C 1369.07,177.756 1360.07,177.422 1351,176.5C 1347.33,177.167 1343.67,177.833 1340,178.5C 1335.21,178.25 1330.71,178.25 1326.5,178.5C 1325.82,177.398 1325.16,176.398 1324.5,175.5C 1324.5,171.833 1324.5,168.167 1324.5,164.5 Z"/></g>
<g><path style="opacity:0.992" fill="#c9a817" d="M 1680.5,166.5 C 1684.56,177.694 1688.23,189.028 1691.5,200.5C 1658.16,200.833 1624.83,200.5 1591.5,199.5C 1594.98,189.061 1598.65,178.727 1602.5,168.5C 1603.31,169.429 1604.15,170.429 1605,171.5C 1608.33,170.833 1611.67,170.167 1615,169.5C 1622.41,170.481 1629.91,170.814 1637.5,170.5C 1637.5,171.5 1637.5,172.5 1637.5,173.5C 1633.96,175.268 1629.96,176.102 1625.5,176C 1628.33,178.167 1631.17,180.333 1634,182.5C 1633.71,186.217 1632.88,189.884 1631.5,193.5C 1631.83,193.833 1632.17,194.167 1632.5,194.5C 1635.33,192.252 1638.33,190.252 1641.5,188.5C 1644.67,190.252 1647.67,192.252 1650.5,194.5C 1650.83,194 1651.17,193.5 1651.5,193C 1650.5,190 1649.5,187 1648.5,184C 1650.98,181.357 1653.64,178.857 1656.5,176.5C 1652.83,175.833 1649.17,175.167 1645.5,174.5C 1644.49,171.805 1643.49,169.138 1642.5,166.5C 1655.24,165.636 1667.9,165.636 1680.5,166.5 Z"/></g>
<g><path style="opacity:0.976" fill="#c9a917" d="M 1475.5,164.5 C 1484.08,165.47 1492.75,165.803 1501.5,165.5C 1501.18,170.363 1501.51,175.03 1502.5,179.5C 1522.17,179.333 1541.84,179.5 1561.5,180C 1568.83,186.667 1576.17,193.333 1583.5,200C 1547.5,200.5 1511.5,200.667 1475.5,200.5C 1475.29,187.769 1475.29,175.769 1475.5,164.5 Z"/></g>
<g><path style="opacity:1" fill="#c5a71e" d="M 1469.5,114.5 C 1470.66,142.664 1470.83,170.997 1470,199.5C 1450.58,200.493 1431.08,200.826 1411.5,200.5C 1411.5,189.5 1411.5,178.5 1411.5,167.5C 1412.09,170.5 1412.93,173.5 1414,176.5C 1417.67,175.833 1421.33,175.167 1425,174.5C 1440.88,175.026 1455.71,175.026 1469.5,174.5C 1469.5,170.167 1469.5,165.833 1469.5,161.5C 1469.5,158.5 1469.5,155.5 1469.5,152.5C 1469.5,150.167 1469.5,147.833 1469.5,145.5C 1469.5,139.5 1469.5,133.5 1469.5,127.5C 1469.5,123.167 1469.5,118.833 1469.5,114.5 Z"/></g>
<g><path style="opacity:1" fill="#c9a815" d="M 1324.5,175.5 C 1325.16,176.398 1325.82,177.398 1326.5,178.5C 1330.71,178.25 1335.21,178.25 1340,178.5C 1343.67,177.833 1347.33,177.167 1351,176.5C 1360.07,177.422 1369.07,177.756 1378,177.5C 1380.49,176.78 1382.99,176.113 1385.5,175.5C 1385.5,183.833 1385.5,192.167 1385.5,200.5C 1365.17,200.5 1344.83,200.5 1324.5,200.5C 1324.5,192.167 1324.5,183.833 1324.5,175.5 Z"/></g>
<g><path style="opacity:0.012" fill="#78986f" d="M 379.5,182.5 C 378.833,183.167 378.833,183.167 379.5,182.5 Z"/></g>
<g><path style="opacity:0.998" fill="#5ba7a4" d="M 324.5,166.5 C 332.517,175.854 340.183,185.521 347.5,195.5C 346.852,219.961 346.185,244.294 345.5,268.5C 340.214,263.917 335.38,258.917 331,253.5C 327.388,249.511 324.221,245.178 321.5,240.5C 322.832,229.019 323.499,217.186 323.5,205C 323.49,192.79 323.157,180.623 322.5,168.5C 322.855,167.478 323.522,166.811 324.5,166.5 Z"/></g>
<g><path style="opacity:0.997" fill="#e1c12d" d="M 440.5,186.5 C 447.896,194.957 454.562,203.957 460.5,213.5C 455.286,217.258 450.119,221.925 445,227.5C 443.47,229.226 442.47,231.226 442,233.5C 441.667,232.5 441.333,231.5 441,230.5C 440.667,232.167 440.333,233.833 440,235.5C 439.333,231.5 438.667,231.5 438,235.5C 437.667,235.167 437.333,234.833 437,234.5C 433.473,238.027 429.973,241.527 426.5,245C 427.252,245.671 427.586,246.504 427.5,247.5C 419.681,237.864 412.347,227.864 405.5,217.5C 407.47,215.353 409.303,213.02 411,210.5C 411.333,211.167 411.667,211.833 412,212.5C 416.631,207.772 421.131,202.939 425.5,198C 426.5,197.667 427.5,197.333 428.5,197C 428.167,196.667 427.833,196.333 427.5,196C 429.359,195.316 431.026,194.316 432.5,193C 432.167,192.667 431.833,192.333 431.5,192C 434.573,191.261 436.74,189.428 438,186.5C 438.77,187.598 439.603,187.598 440.5,186.5 Z"/></g>
<g><path style="opacity:0.99" fill="#29819c" d="M 1324.5,203.5 C 1344.83,203.5 1365.17,203.5 1385.5,203.5C 1385.5,213.833 1385.5,224.167 1385.5,234.5C 1394.17,234.5 1402.83,234.5 1411.5,234.5C 1411.5,224.167 1411.5,213.833 1411.5,203.5C 1431.17,203.5 1450.83,203.5 1470.5,203.5C 1470.67,220.837 1470.5,238.17 1470,255.5C 1458.83,264.667 1447.67,273.833 1436.5,283C 1408.5,283.667 1380.5,283.667 1352.5,283C 1343.51,275.636 1334.34,267.803 1325,259.5C 1324.5,240.836 1324.33,222.17 1324.5,203.5 Z"/></g>
<g><path style="opacity:0.985" fill="#29819c" d="M 1475.5,203.5 C 1512.83,203.5 1550.17,203.5 1587.5,203.5C 1587.83,222.179 1587.5,240.845 1586.5,259.5C 1576.36,267.143 1566.36,274.976 1556.5,283C 1527.17,283.667 1497.83,283.667 1468.5,283C 1464.17,279.333 1459.83,275.667 1455.5,272C 1461.69,266.975 1468.02,262.142 1474.5,257.5C 1475.5,246.186 1475.83,234.853 1475.5,223.5C 1485.83,223.5 1496.17,223.5 1506.5,223.5C 1506.5,227.833 1506.5,232.167 1506.5,236.5C 1512.5,236.5 1518.5,236.5 1524.5,236.5C 1524.5,228.167 1524.5,219.833 1524.5,211.5C 1508.17,211.5 1491.83,211.5 1475.5,211.5C 1475.5,208.833 1475.5,206.167 1475.5,203.5 Z"/></g>
<g><path style="opacity:0.987" fill="#29819c" d="M 1591.5,203.5 C 1625.17,203.333 1658.83,203.5 1692.5,204C 1709.2,251.593 1725.2,299.427 1740.5,347.5C 1721.5,347.5 1702.5,347.5 1683.5,347.5C 1668.99,303.292 1653.99,259.625 1638.5,216.5C 1630.44,238.34 1622.78,260.34 1615.5,282.5C 1597.83,283.833 1580.17,283.833 1562.5,282.5C 1571.86,274.644 1581.36,266.977 1591,259.5C 1591.5,240.836 1591.67,222.17 1591.5,203.5 Z"/></g>
<g><path style="opacity:0.999" fill="#e9ca35" d="M 460.5,213.5 C 466.594,219.926 471.927,226.926 476.5,234.5C 465.03,243.765 453.697,253.931 442.5,265C 443.252,265.671 443.586,266.504 443.5,267.5C 441.074,264.245 438.074,261.412 434.5,259C 434.833,258.667 435.167,258.333 435.5,258C 433.598,256.27 431.931,254.437 430.5,252.5C 429.248,250.999 428.248,249.332 427.5,247.5C 427.586,246.504 427.252,245.671 426.5,245C 429.973,241.527 433.473,238.027 437,234.5C 437.333,234.833 437.667,235.167 438,235.5C 438.667,231.5 439.333,231.5 440,235.5C 440.333,233.833 440.667,232.167 441,230.5C 441.333,231.5 441.667,232.5 442,233.5C 442.47,231.226 443.47,229.226 445,227.5C 450.119,221.925 455.286,217.258 460.5,213.5 Z"/></g>
<g><path style="opacity:1" fill="#519e9f" d="M 347.5,195.5 C 355.645,205.776 363.311,216.443 370.5,227.5C 370.423,228.75 369.756,229.583 368.5,230C 369.161,240.426 369.494,250.926 369.5,261.5C 369.499,272.189 368.832,282.522 367.5,292.5C 359.246,285.309 351.912,277.309 345.5,268.5C 346.185,244.294 346.852,219.961 347.5,195.5 Z"/></g>
<g><path style="opacity:1" fill="#f0d33c" d="M 476.5,234.5 C 483.851,243.19 490.851,252.19 497.5,261.5C 496.504,261.586 495.671,261.252 495,260.5C 493.088,262.657 491.421,264.991 490,267.5C 487.659,268.615 485.159,270.115 482.5,272C 481.809,273.067 481.309,274.234 481,275.5C 477.333,277.833 474.333,280.833 472,284.5C 471,284.5 470,284.5 469,284.5C 468.667,285.5 468.333,286.5 468,287.5C 467.346,286.304 466.846,286.304 466.5,287.5C 467.363,288.726 467.363,290.06 466.5,291.5C 458.181,284.18 450.515,276.18 443.5,267.5C 443.586,266.504 443.252,265.671 442.5,265C 453.697,253.931 465.03,243.765 476.5,234.5 Z"/></g>
<g><path style="opacity:0.012" fill="#78986f" d="M 430.5,252.5 C 429.833,253.167 429.833,253.167 430.5,252.5 Z"/></g>
<g><path style="opacity:0.998" fill="#479599" d="M 370.5,227.5 C 380.136,240.083 389.303,253.083 398,266.5C 401.75,269.744 404.917,273.411 407.5,277.5C 404.93,278.484 404.93,279.651 407.5,281C 406.912,287.728 406.245,294.728 405.5,302C 408.167,302.667 408.167,303.333 405.5,304C 407.464,306.518 408.13,309.184 407.5,312C 406.756,313.039 405.756,313.539 404.5,313.5C 402.248,312.667 400.081,312.667 398,313.5C 397.5,312.333 396.667,311.5 395.5,311C 384.617,307.694 375.283,301.528 367.5,292.5C 368.832,282.522 369.499,272.189 369.5,261.5C 369.494,250.926 369.161,240.426 368.5,230C 369.756,229.583 370.423,228.75 370.5,227.5 Z"/></g>
<g><path style="opacity:1" fill="#f8dc44" d="M 497.5,261.5 C 503.136,268.809 508.802,276.143 514.5,283.5C 512.433,285.547 510.6,285.547 509,283.5C 501.303,290.366 493.803,297.366 486.5,304.5C 480.572,302.376 474.905,299.042 469.5,294.5C 468.306,293.728 467.306,292.728 466.5,291.5C 467.363,290.06 467.363,288.726 466.5,287.5C 466.846,286.304 467.346,286.304 468,287.5C 468.333,286.5 468.667,285.5 469,284.5C 470,284.5 471,284.5 472,284.5C 474.333,280.833 477.333,277.833 481,275.5C 481.309,274.234 481.809,273.067 482.5,272C 485.159,270.115 487.659,268.615 490,267.5C 491.421,264.991 493.088,262.657 495,260.5C 495.671,261.252 496.504,261.586 497.5,261.5 Z"/></g>
<g><path style="opacity:1" fill="#5ea9a6" d="M 182.5,263.5 C 188.105,272.372 194.439,280.706 201.5,288.5C 200.761,288.369 200.094,288.536 199.5,289C 200.482,296.747 200.815,304.58 200.5,312.5C 198.833,312.5 197.167,312.5 195.5,312.5C 193.116,312.443 190.782,312.777 188.5,313.5C 185.848,312.248 183.181,311.248 180.5,310.5C 180.333,295.496 180.5,280.496 181,265.5C 181.278,264.584 181.778,263.918 182.5,263.5 Z"/></g>
<g><path style="opacity:1" fill="#3e8c94" d="M 407.5,277.5 C 418.234,286.908 429.234,295.908 440.5,304.5C 438.019,305.696 438.019,307.196 440.5,309C 441.061,310.566 440.394,311.899 438.5,313C 439.167,314.333 439.833,315.667 440.5,317C 438.457,318.021 436.124,319.188 433.5,320.5C 430.17,319.273 426.837,318.939 423.5,319.5C 421.598,317.849 419.598,317.516 417.5,318.5C 416.497,316.458 415.163,316.125 413.5,317.5C 410.427,316.167 407.427,314.834 404.5,313.5C 405.756,313.539 406.756,313.039 407.5,312C 408.13,309.184 407.464,306.518 405.5,304C 408.167,303.333 408.167,302.667 405.5,302C 406.245,294.728 406.912,287.728 407.5,281C 404.93,279.651 404.93,278.484 407.5,277.5 Z"/></g>
<g><path style="opacity:0.999" fill="#f9e44e" d="M 514.5,283.5 C 520.634,291.568 528.301,297.734 537.5,302C 549.674,302.169 561.674,302.669 573.5,303.5C 564.161,303.334 554.827,303.5 545.5,304C 539.58,309.432 533.58,314.599 527.5,319.5C 513.68,316.84 500.013,311.84 486.5,304.5C 493.803,297.366 501.303,290.366 509,283.5C 510.6,285.547 512.433,285.547 514.5,283.5 Z"/></g>
<g><path style="opacity:1" fill="#4f9b9d" d="M 201.5,288.5 C 207.903,294.244 214.569,299.577 221.5,304.5C 220.761,304.369 220.094,304.536 219.5,305C 220.447,307.478 220.447,309.812 219.5,312C 214.649,312.174 209.982,312.674 205.5,313.5C 202.258,314.796 198.925,314.463 195.5,312.5C 197.167,312.5 198.833,312.5 200.5,312.5C 200.815,304.58 200.482,296.747 199.5,289C 200.094,288.536 200.761,288.369 201.5,288.5 Z"/></g>
<g><path style="opacity:0.012" fill="#78986f" d="M 469.5,294.5 C 468.833,295.167 468.833,295.167 469.5,294.5 Z"/></g>
<g><path style="opacity:0.919" fill="#141111" d="M 1323.5,301.5 C 1332.51,301.334 1341.51,301.5 1350.5,302C 1361.61,306.645 1364.44,314.479 1359,325.5C 1357.79,327.049 1356.29,328.215 1354.5,329C 1355.34,330.666 1354.84,330.833 1353,329.5C 1352.67,330.167 1352.33,330.833 1352,331.5C 1347.32,331.224 1342.15,331.224 1336.5,331.5C 1336.5,336.5 1336.5,341.5 1336.5,346.5C 1332.17,346.5 1327.83,346.5 1323.5,346.5C 1323.5,331.5 1323.5,316.5 1323.5,301.5 Z M 1336.5,310.5 C 1341.14,309.736 1345.14,310.903 1348.5,314C 1348.94,316.398 1348.27,318.731 1346.5,321C 1343.27,322.199 1339.94,322.699 1336.5,322.5C 1336.5,318.5 1336.5,314.5 1336.5,310.5 Z"/></g>
<g><path style="opacity:0.961" fill="#161313" d="M 1376.5,301.5 C 1380.83,301.5 1385.17,301.5 1389.5,301.5C 1389.5,307.167 1389.5,312.833 1389.5,318.5C 1394.83,318.5 1400.17,318.5 1405.5,318.5C 1405.5,312.833 1405.5,307.167 1405.5,301.5C 1409.83,301.5 1414.17,301.5 1418.5,301.5C 1418.67,316.504 1418.5,331.504 1418,346.5C 1413.93,347.464 1409.77,347.797 1405.5,347.5C 1405.5,341.167 1405.5,334.833 1405.5,328.5C 1400.17,328.5 1394.83,328.5 1389.5,328.5C 1389.5,334.833 1389.5,341.167 1389.5,347.5C 1385.23,347.797 1381.07,347.464 1377,346.5C 1376.5,331.504 1376.33,316.504 1376.5,301.5 Z"/></g>
<g><path style="opacity:0.942" fill="#151212" d="M 1454.5,301.5 C 1460.3,300.913 1465.8,301.58 1471,303.5C 1476.07,317.538 1481.23,331.538 1486.5,345.5C 1482.22,346.492 1477.88,346.826 1473.5,346.5C 1473.64,344.876 1472.97,343.71 1471.5,343C 1471.97,341.701 1471.97,340.201 1471.5,338.5C 1465.5,338.5 1459.5,338.5 1453.5,338.5C 1452.98,341.568 1452.14,344.568 1451,347.5C 1446.92,346.7 1442.75,346.2 1438.5,346C 1443.66,331.469 1448.99,316.636 1454.5,301.5 Z M 1462.5,314.5 C 1464.4,319.33 1466.07,324.33 1467.5,329.5C 1464.1,329.82 1460.77,329.487 1457.5,328.5C 1459.18,323.805 1460.84,319.138 1462.5,314.5 Z"/></g>
<g><path style="opacity:0.925" fill="#151111" d="M 1530.5,344.5 C 1529.04,340.248 1527.04,336.248 1524.5,332.5C 1522.07,330.946 1519.4,330.28 1516.5,330.5C 1516.5,335.833 1516.5,341.167 1516.5,346.5C 1512.17,346.5 1507.83,346.5 1503.5,346.5C 1503.5,331.5 1503.5,316.5 1503.5,301.5C 1512.51,301.334 1521.51,301.5 1530.5,302C 1538.17,304.842 1541.01,310.342 1539,318.5C 1538.09,321.576 1536.26,323.909 1533.5,325.5C 1538.13,331.923 1542.13,338.756 1545.5,346C 1540.2,347.023 1535.2,346.523 1530.5,344.5 Z M 1516.5,310.5 C 1524.93,308.992 1527.93,312.158 1525.5,320C 1522.61,321.149 1519.61,321.649 1516.5,321.5C 1516.5,317.833 1516.5,314.167 1516.5,310.5 Z"/></g>
<g><path style="opacity:0.922" fill="#141111" d="M 1560.5,301.5 C 1565.87,301.172 1571.21,301.505 1576.5,302.5C 1579.58,309.576 1582.74,316.576 1586,323.5C 1589.31,316.377 1592.48,309.21 1595.5,302C 1600.82,301.501 1606.16,301.334 1611.5,301.5C 1611.5,316.5 1611.5,331.5 1611.5,346.5C 1607.5,346.5 1603.5,346.5 1599.5,346.5C 1599.67,336.828 1599.5,327.161 1599,317.5C 1596.07,324.126 1593.24,330.792 1590.5,337.5C 1587.5,338.833 1584.5,338.833 1581.5,337.5C 1578.39,330.949 1575.56,324.282 1573,317.5C 1572.5,327.161 1572.33,336.828 1572.5,346.5C 1568.5,346.5 1564.5,346.5 1560.5,346.5C 1560.5,331.5 1560.5,316.5 1560.5,301.5 Z"/></g>
<g><path style="opacity:0.942" fill="#151212" d="M 1645.5,301.5 C 1650.98,300.919 1656.14,301.586 1661,303.5C 1666.07,317.538 1671.23,331.538 1676.5,345.5C 1672.22,346.492 1667.88,346.826 1663.5,346.5C 1663.44,339.665 1659.94,336.999 1653,338.5C 1646.45,336.724 1642.62,339.057 1641.5,345.5C 1637.29,346.195 1633.12,346.861 1629,347.5C 1631.55,338.014 1634.71,329.014 1638.5,320.5C 1638.29,319.914 1637.96,319.414 1637.5,319C 1640.83,313.513 1643.49,307.68 1645.5,301.5 Z M 1652.5,314.5 C 1654.74,319.216 1656.41,324.216 1657.5,329.5C 1654.1,329.82 1650.77,329.487 1647.5,328.5C 1649.18,323.805 1650.84,319.138 1652.5,314.5 Z"/></g>
<g><path style="opacity:0.999" fill="#f9ed5c" d="M 573.5,303.5 C 588.676,303.171 603.676,303.504 618.5,304.5C 605.167,304.5 591.833,304.5 578.5,304.5C 578.5,305.5 578.5,306.5 578.5,307.5C 576.058,307.354 575.391,308.187 576.5,310C 575.107,311.171 574.273,312.671 574,314.5C 573.667,313.5 573.333,312.5 573,311.5C 571.829,313.842 570.662,316.176 569.5,318.5C 568.575,319.641 567.741,319.641 567,318.5C 566.283,319.044 565.783,319.711 565.5,320.5C 552.796,320.775 540.13,320.442 527.5,319.5C 533.58,314.599 539.58,309.432 545.5,304C 554.827,303.5 564.161,303.334 573.5,303.5 Z"/></g>
<g><path style="opacity:1" fill="#f7f164" d="M 618.5,304.5 C 622.167,304.5 625.833,304.5 629.5,304.5C 632.641,305.321 635.975,305.821 639.5,306C 638.531,307.758 637.364,308.258 636,307.5C 635.138,309.087 634.471,310.754 634,312.5C 633.667,311.5 633.333,310.5 633,309.5C 632.333,310.833 631.667,312.167 631,313.5C 630.667,312.5 630.333,311.5 630,310.5C 630.053,313.613 628.886,316.113 626.5,318C 622.312,318.176 618.312,318.676 614.5,319.5C 603.751,319.237 593.084,319.904 582.5,321.5C 576.645,320.59 570.978,320.256 565.5,320.5C 565.783,319.711 566.283,319.044 567,318.5C 567.741,319.641 568.575,319.641 569.5,318.5C 570.662,316.176 571.829,313.842 573,311.5C 573.333,312.5 573.667,313.5 574,314.5C 574.273,312.671 575.107,311.171 576.5,310C 575.391,308.187 576.058,307.354 578.5,307.5C 578.5,306.5 578.5,305.5 578.5,304.5C 591.833,304.5 605.167,304.5 618.5,304.5 Z"/></g>
<g><path style="opacity:1" fill="#328290" d="M 440.5,304.5 C 454.775,315.134 470.775,321.634 488.5,324C 484.294,324.261 480.127,324.761 476,325.5C 461.676,323.454 447.51,321.788 433.5,320.5C 436.124,319.188 438.457,318.021 440.5,317C 439.833,315.667 439.167,314.333 438.5,313C 440.394,311.899 441.061,310.566 440.5,309C 438.019,307.196 438.019,305.696 440.5,304.5 Z"/></g>
<g><path style="opacity:1" fill="#eee154" d="M 629.5,304.5 C 651.846,304.844 674.18,305.511 696.5,306.5C 697.609,307.29 698.942,307.79 700.5,308C 698.671,308.273 697.171,309.107 696,310.5C 695.586,310.043 695.086,309.709 694.5,309.5C 693.275,311.894 691.441,314.228 689,316.5C 688.667,316.167 688.333,315.833 688,315.5C 686.417,316.971 684.583,317.971 682.5,318.5C 672.404,319.199 662.237,319.199 652,318.5C 648.136,318.33 644.469,318.997 641,320.5C 632.608,319.502 623.774,319.169 614.5,319.5C 618.312,318.676 622.312,318.176 626.5,318C 628.886,316.113 630.053,313.613 630,310.5C 630.333,311.5 630.667,312.5 631,313.5C 631.667,312.167 632.333,310.833 633,309.5C 633.333,310.5 633.667,311.5 634,312.5C 634.471,310.754 635.138,309.087 636,307.5C 637.364,308.258 638.531,307.758 639.5,306C 635.975,305.821 632.641,305.321 629.5,304.5 Z"/></g>
<g><path style="opacity:1" fill="#e2ca3e" d="M 696.5,306.5 C 705.854,306.39 715.188,306.723 724.5,307.5C 725.952,308.302 727.618,308.802 729.5,309C 725.701,310.114 725.701,311.447 729.5,313C 728.333,313.5 727.5,314.333 727,315.5C 726.333,312.833 725.667,312.833 725,315.5C 723.913,313.068 723.413,313.402 723.5,316.5C 727.5,316.5 731.5,316.5 735.5,316.5C 734.469,317.249 733.302,317.915 732,318.5C 715.537,317.805 699.037,317.805 682.5,318.5C 684.583,317.971 686.417,316.971 688,315.5C 688.333,315.833 688.667,316.167 689,316.5C 691.441,314.228 693.275,311.894 694.5,309.5C 695.086,309.709 695.586,310.043 696,310.5C 697.171,309.107 698.671,308.273 700.5,308C 698.942,307.79 697.609,307.29 696.5,306.5 Z"/></g>
<g><path style="opacity:1" fill="#3d8b97" d="M 221.5,304.5 C 227.773,308.133 234.44,310.967 241.5,313C 229.505,313.5 217.505,313.667 205.5,313.5C 209.982,312.674 214.649,312.174 219.5,312C 220.447,309.812 220.447,307.478 219.5,305C 220.094,304.536 220.761,304.369 221.5,304.5 Z"/></g>
<g><path style="opacity:0.984" fill="#d9ba2b" d="M 724.5,307.5 C 777.84,309.092 831.173,310.926 884.5,313C 883.128,313.402 881.795,313.902 880.5,314.5C 875.52,313.568 870.686,313.235 866,313.5C 861,314.167 856,314.833 851,315.5C 842.621,315.013 833.954,314.679 825,314.5C 821.882,314.79 818.882,315.456 816,316.5C 789.348,316.413 762.515,316.413 735.5,316.5C 731.5,316.5 727.5,316.5 723.5,316.5C 723.413,313.402 723.913,313.068 725,315.5C 725.667,312.833 726.333,312.833 727,315.5C 727.5,314.333 728.333,313.5 729.5,313C 725.701,311.447 725.701,310.114 729.5,309C 727.618,308.802 725.952,308.302 724.5,307.5 Z"/></g>
<g><path style="opacity:0.012" fill="#78986f" d="M 1530.5,344.5 C 1529.83,345.167 1529.83,345.167 1530.5,344.5 Z"/></g>
</svg>
