<?xml version="1.0" encoding="UTF-8"?>
<!DOCTYPE svg PUBLIC "-//W3C//DTD SVG 1.1//EN" "http://www.w3.org/Graphics/SVG/1.1/DTD/svg11.dtd">
<svg xmlns="http://www.w3.org/2000/svg" version="1.1" width="1622px" height="260px" style="shape-rendering:geometricPrecision; text-rendering:geometricPrecision; image-rendering:optimizeQuality; fill-rule:evenodd; clip-rule:evenodd" xmlns:xlink="http://www.w3.org/1999/xlink">
<g><path style="opacity:0.994" fill="#c8a818" d="M 284.5,43.5 C 273.506,53.1615 262.839,63.1615 252.5,73.5C 246.875,66.534 241.208,59.534 235.5,52.5C 233.654,49.1545 230.987,46.6545 227.5,45C 227.833,44.6667 228.167,44.3333 228.5,44C 226.123,41.2864 223.456,38.9531 220.5,37C 220.833,36.6667 221.167,36.3333 221.5,36C 217.637,32.634 213.637,29.4674 209.5,26.5C 207.178,24.336 204.511,22.6693 201.5,21.5C 201.5,20.1667 200.833,19.5 199.5,19.5C 190.429,12.9164 180.096,9.24978 168.5,8.5C 166.772,8.59008 165.106,8.92341 163.5,9.5C 162.304,9.15431 162.304,8.65431 163.5,8C 188.64,4.13365 213.64,4.80031 238.5,10C 258.347,15.0789 273.68,26.2456 284.5,43.5 Z"/></g>
<g><path style="opacity:0.999" fill="#7fcaba" d="M 119.5,7.5 C 119.827,17.015 119.494,26.3483 118.5,35.5C 111.349,28.3458 103.349,22.3458 94.5,17.5C 87.8479,13.1834 80.5145,10.5168 72.5,9.5C 68.7016,8.51658 64.7016,8.18325 60.5,8.5C 70.714,6.06523 81.214,5.06523 92,5.5C 101.286,5.3294 110.453,5.99607 119.5,7.5 Z"/></g>
<g><path style="opacity:1" fill="#62afa9" d="M 60.5,8.5 C 64.7016,8.18325 68.7016,8.51658 72.5,9.5C 70.5163,24.1294 69.8497,39.1294 70.5,54.5C 61.9555,59.5794 56.2888,66.9127 53.5,76.5C 52.5027,55.0064 52.1693,33.3398 52.5,11.5C 51.209,11.7373 50.209,11.404 49.5,10.5C 53.0712,9.35778 56.7379,8.69111 60.5,8.5 Z"/></g>
<g><path style="opacity:0.993" fill="#6cb8b0" d="M 49.5,10.5 C 50.209,11.404 51.209,11.7373 52.5,11.5C 52.1693,33.3398 52.5027,55.0064 53.5,76.5C 49.668,88.3181 48.0013,100.485 48.5,113C 47.8435,124.557 49.5101,135.723 53.5,146.5C 52.8333,167.5 52.1667,188.5 51.5,209.5C 48.3298,208.735 45.3298,207.735 42.5,206.5C 43.552,206.649 44.552,206.483 45.5,206C 44.1684,141.5 44.1684,77 45.5,12.5C 46.6715,11.6554 48.0048,10.9887 49.5,10.5 Z"/></g>
<g><path style="opacity:0.998" fill="#54a2a1" d="M 72.5,9.5 C 80.5145,10.5168 87.8479,13.1834 94.5,17.5C 93.1725,22.1194 92.5058,27.1194 92.5,32.5C 92.551,38.0785 93.2177,43.4118 94.5,48.5C 86.2188,48.3437 78.2188,50.3437 70.5,54.5C 69.8497,39.1294 70.5163,24.1294 72.5,9.5 Z"/></g>
<g><path style="opacity:0.999" fill="#73beb3" d="M 45.5,12.5 C 44.1684,77 44.1684,141.5 45.5,206C 44.552,206.483 43.552,206.649 42.5,206.5C 40.1667,204.5 37.8333,202.5 35.5,200.5C 36.496,139.238 36.8293,77.9046 36.5,16.5C 39.0534,14.4163 42.0534,13.083 45.5,12.5 Z"/></g>
<g><path style="opacity:0.995" fill="#74bfb3" d="M 119.5,7.5 C 132.25,9.30557 144.25,13.3056 155.5,19.5C 153.858,39.1069 152.858,58.7735 152.5,78.5C 152.167,77.5 151.5,76.8333 150.5,76.5C 142.889,67.7939 135.889,58.4605 129.5,48.5C 126.232,43.8927 122.565,39.5594 118.5,35.5C 119.494,26.3483 119.827,17.015 119.5,7.5 Z"/></g>
<g><path style="opacity:0.999" fill="#79c4b6" d="M 36.5,16.5 C 36.8293,77.9046 36.496,139.238 35.5,200.5C 30.7892,197.449 26.7892,193.783 23.5,189.5C 24.5,189.5 25.5,189.5 26.5,189.5C 26.5077,133.861 26.5077,78.5281 26.5,23.5C 29.2565,20.4208 32.5899,18.0875 36.5,16.5 Z"/></g>
<g><path style="opacity:0.989" fill="#29809c" d="M 416.5,16.5 C 429.833,16.5 443.167,16.5 456.5,16.5C 465.051,54.7019 474.218,92.7019 484,130.5C 493.242,92.2219 502.076,54.2219 510.5,16.5C 523.833,16.5 537.167,16.5 550.5,16.5C 550.5,72.8333 550.5,129.167 550.5,185.5C 541.167,185.5 531.833,185.5 522.5,185.5C 522.825,167.923 522.492,150.423 521.5,133C 522.227,131.601 522.727,130.101 523,128.5C 523.667,113.167 523.667,97.8333 523,82.5C 515,116.5 507,150.5 499,184.5C 489.333,185.167 479.667,185.833 470,186.5C 461.118,150.958 452.451,114.958 444,78.5C 444.477,114.153 444.977,149.819 445.5,185.5C 435.833,185.5 426.167,185.5 416.5,185.5C 416.5,129.167 416.5,72.8333 416.5,16.5 Z"/></g>
<g><path style="opacity:0.993" fill="#29809c" d="M 607.5,16.5 C 625.833,16.5 644.167,16.5 662.5,16.5C 662.5,28.1667 662.5,39.8333 662.5,51.5C 646.163,51.3334 629.83,51.5001 613.5,52C 606.116,54.3817 600.949,59.215 598,66.5C 596.202,71.6886 595.369,77.0219 595.5,82.5C 617.833,82.5 640.167,82.5 662.5,82.5C 662.5,94.1667 662.5,105.833 662.5,117.5C 639.833,117.5 617.167,117.5 594.5,117.5C 594.584,126.436 596.751,134.769 601,142.5C 605.712,147.518 611.546,150.018 618.5,150C 633.163,150.5 647.83,150.667 662.5,150.5C 662.5,162.167 662.5,173.833 662.5,185.5C 643.769,185.386 625.102,185.386 606.5,185.5C 588.374,180.53 576.374,169.363 570.5,152C 567.669,146.506 565.836,140.673 565,134.5C 560.403,107.529 561.403,81.1961 568,55.5C 572.028,39.1516 581.528,27.3183 596.5,20C 600.254,18.6912 603.921,17.5246 607.5,16.5 Z"/></g>
<g><path style="opacity:0.993" fill="#29809c" d="M 678.5,16.5 C 700.503,16.3334 722.503,16.5 744.5,17C 766.618,21.7847 780.118,35.2847 785,57.5C 792.922,89.0456 792.255,120.379 783,151.5C 777.202,166.297 767.036,176.797 752.5,183C 747.547,183.995 742.547,184.662 737.5,185C 717.836,185.5 698.169,185.667 678.5,185.5C 678.5,129.167 678.5,72.8333 678.5,16.5 Z M 707.5,51.5 C 718.172,51.3335 728.839,51.5002 739.5,52C 741.402,52.1992 742.902,53.0325 744,54.5C 745.016,53.3659 745.683,53.6992 746,55.5C 746.333,55.1667 746.667,54.8333 747,54.5C 751.153,57.4635 753.82,61.4635 755,66.5C 759.248,87.7623 759.581,109.096 756,130.5C 754.045,142.759 746.545,149.259 733.5,150C 724.84,150.5 716.173,150.666 707.5,150.5C 707.5,117.5 707.5,84.5 707.5,51.5 Z"/></g>
<g><path style="opacity:0.984" fill="#29809c" d="M 798.5,16.5 C 808.5,16.5 818.5,16.5 828.5,16.5C 828.333,55.1681 828.5,93.8348 829,132.5C 830.263,142.569 835.763,148.736 845.5,151C 858.162,151.5 870.829,151.667 883.5,151.5C 883.5,162.833 883.5,174.167 883.5,185.5C 871.162,185.667 858.829,185.5 846.5,185C 829.068,185.87 816.235,178.704 808,163.5C 804.809,157.534 802.642,151.534 801.5,145.5C 799.924,135.925 799.091,126.259 799,116.5C 798.5,83.1683 798.333,49.835 798.5,16.5 Z"/></g>
<g><path style="opacity:0.983" fill="#28819d" d="M 891.5,16.5 C 901.5,16.5 911.5,16.5 921.5,16.5C 921.5,72.8333 921.5,129.167 921.5,185.5C 911.5,185.5 901.5,185.5 891.5,185.5C 891.5,129.167 891.5,72.8333 891.5,16.5 Z"/></g>
<g><path style="opacity:0.992" fill="#29809c" d="M 940.5,16.5 C 952.414,16.1785 964.247,16.5118 976,17.5C 990,52.1667 1004,86.8333 1018,121.5C 1018.67,110.5 1018.67,99.5 1018,88.5C 1017.77,85.905 1017.27,83.405 1016.5,81C 1017.28,59.5642 1017.61,38.0642 1017.5,16.5C 1027.5,16.5 1037.5,16.5 1047.5,16.5C 1047.67,73.1676 1047.5,129.834 1047,186.5C 1036.25,185.513 1025.41,185.18 1014.5,185.5C 1000.11,149.232 985.277,112.232 970,74.5C 969.821,111.499 969.988,148.499 970.5,185.5C 960.5,185.5 950.5,185.5 940.5,185.5C 940.5,129.167 940.5,72.8333 940.5,16.5 Z"/></g>
<g><path style="opacity:0.992" fill="#29809c" d="M 1103.5,16.5 C 1121.5,16.5 1139.5,16.5 1157.5,16.5C 1157.5,28.1667 1157.5,39.8333 1157.5,51.5C 1140.1,51.0419 1122.76,51.5419 1105.5,53C 1099.13,56.7208 1094.96,62.2208 1093,69.5C 1091.95,73.8034 1091.12,78.1368 1090.5,82.5C 1112.83,82.5 1135.17,82.5 1157.5,82.5C 1157.5,94.1667 1157.5,105.833 1157.5,117.5C 1135.17,117.5 1112.83,117.5 1090.5,117.5C 1090.52,125.928 1092.35,133.928 1096,141.5C 1100.83,147.165 1107,149.998 1114.5,150C 1128.83,150.5 1143.16,150.667 1157.5,150.5C 1157.5,162.167 1157.5,173.833 1157.5,185.5C 1141.83,185.667 1126.16,185.5 1110.5,185C 1099.39,185.065 1089.72,182.065 1081.5,176C 1077.81,171.314 1073.81,166.981 1069.5,163C 1069.96,162.586 1070.29,162.086 1070.5,161.5C 1067.3,154.869 1064.3,148.702 1061.5,143C 1062.02,142.439 1062.36,141.772 1062.5,141C 1055.15,108.904 1056.65,77.404 1067,46.5C 1073.86,29.9928 1086.03,19.9928 1103.5,16.5 Z"/></g>
<g><path style="opacity:0.004" fill="#257a8e" d="M 199.5,19.5 C 200.833,19.5 201.5,20.1667 201.5,21.5C 200.5,21.1667 199.833,20.5 199.5,19.5 Z"/></g>
<g><path style="opacity:1" fill="#f9e955" d="M 1455.5,26.5 C 1427.37,27.504 1399.04,28.3373 1370.5,29C 1365.39,28.8862 1360.73,29.7195 1356.5,31.5C 1356.17,31.5 1355.83,31.5 1355.5,31.5C 1355.5,26.5 1355.5,21.5 1355.5,16.5C 1385.5,16.3334 1415.5,16.5 1445.5,17C 1449.33,19.6682 1452.67,22.8348 1455.5,26.5 Z"/></g>
<g><path style="opacity:1" fill="#f9e956" d="M 1349.5,16.5 C 1349.5,20.8333 1349.5,25.1667 1349.5,29.5C 1330.84,30.0175 1312.17,30.5175 1293.5,31C 1292.93,31.9947 1292.27,32.828 1291.5,33.5C 1291.81,27.9066 1291.47,22.4066 1290.5,17C 1310.16,16.5 1329.83,16.3334 1349.5,16.5 Z"/></g>
<g><path style="opacity:0.999" fill="#7fcaba" d="M 26.5,23.5 C 26.5077,78.5281 26.5077,133.861 26.5,189.5C 25.5,189.5 24.5,189.5 23.5,189.5C 21.6214,189.607 21.2881,189.107 22.5,188C 20.5743,184.924 18.9076,181.758 17.5,178.5C 18.8333,130.167 18.8333,81.8333 17.5,33.5C 19.7881,29.5442 22.7881,26.2109 26.5,23.5 Z"/></g>
<g><path style="opacity:1" fill="#f9ea56" d="M 1265.5,32.5 C 1263.87,32.0617 1262.21,31.7284 1260.5,31.5C 1241.85,32.3769 1223.18,33.0436 1204.5,33.5C 1204.81,27.9066 1204.47,22.4066 1203.5,17C 1224.16,16.5 1244.83,16.3334 1265.5,16.5C 1265.5,21.8333 1265.5,27.1667 1265.5,32.5 Z"/></g>
<g><path style="opacity:1" fill="#f9e550" d="M 1548.5,32.5 C 1530.45,32.9744 1512.45,33.9744 1494.5,35.5C 1494.06,35.5654 1493.73,35.3988 1493.5,35C 1496.16,30.6584 1498.49,25.6584 1500.5,20C 1499.54,18.8525 1499.88,17.8525 1501.5,17C 1515.83,16.5001 1530.16,16.3334 1544.5,16.5C 1545.83,21.8333 1547.17,27.1667 1548.5,32.5 Z"/></g>
<g><path style="opacity:0.004" fill="#257a8e" d="M 209.5,26.5 C 208.833,27.1667 208.833,27.1667 209.5,26.5 Z"/></g>
<g><path style="opacity:1" fill="#fae44d" d="M 1455.5,26.5 C 1459.1,28.4302 1462.1,31.0969 1464.5,34.5C 1430.18,36.1954 1394.18,37.1954 1356.5,37.5C 1356.5,35.5 1356.5,33.5 1356.5,31.5C 1360.73,29.7195 1365.39,28.8862 1370.5,29C 1399.04,28.3373 1427.37,27.504 1455.5,26.5 Z"/></g>
<g><path style="opacity:1" fill="#408f95" d="M 94.5,17.5 C 103.349,22.3458 111.349,28.3458 118.5,35.5C 122.565,39.5594 126.232,43.8927 129.5,48.5C 116.797,48.8502 105.13,48.8502 94.5,48.5C 93.2177,43.4118 92.551,38.0785 92.5,32.5C 92.5058,27.1194 93.1725,22.1194 94.5,17.5 Z"/></g>
<g><path style="opacity:0.998" fill="#68b4ad" d="M 155.5,19.5 C 168.372,27.3693 179.372,37.3693 188.5,49.5C 189.735,51.7729 189.402,53.6062 187.5,55C 187.752,77.5404 187.752,100.707 187.5,124.5C 185.857,122.027 183.69,120.027 181,118.5C 177.488,111.321 172.822,104.987 167,99.5C 162.154,91.7561 156.987,84.9228 151.5,79C 151.728,78.6012 152.062,78.4346 152.5,78.5C 152.858,58.7735 153.858,39.1069 155.5,19.5 Z"/></g>
<g><path style="opacity:1" fill="#f8dc44" d="M 1548.5,32.5 C 1550.41,36.2157 1551.74,40.2157 1552.5,44.5C 1532.17,45.8333 1511.83,45.8333 1491.5,44.5C 1492.65,41.5482 1493.65,38.5482 1494.5,35.5C 1512.45,33.9744 1530.45,32.9744 1548.5,32.5 Z"/></g>
<g><path style="opacity:1" fill="#fadf46" d="M 1355.5,31.5 C 1355.83,31.5 1356.17,31.5 1356.5,31.5C 1356.5,33.5 1356.5,35.5 1356.5,37.5C 1394.18,37.1954 1430.18,36.1954 1464.5,34.5C 1464.83,34.5 1465.17,34.5 1465.5,34.5C 1466.27,37.0961 1466.6,39.7628 1466.5,42.5C 1429.85,43.824 1393.18,44.824 1356.5,45.5C 1356.79,47.7354 1356.46,49.7354 1355.5,51.5C 1355.5,44.8333 1355.5,38.1667 1355.5,31.5 Z"/></g>
<g><path style="opacity:1" fill="#fae048" d="M 1349.5,29.5 C 1349.5,34.8333 1349.5,40.1667 1349.5,45.5C 1330.51,46.3106 1311.51,46.9772 1292.5,47.5C 1292.78,49.4147 1292.45,51.0813 1291.5,52.5C 1291.5,46.1667 1291.5,39.8333 1291.5,33.5C 1292.27,32.828 1292.93,31.9947 1293.5,31C 1312.17,30.5175 1330.84,30.0175 1349.5,29.5 Z"/></g>
<g><path style="opacity:1" fill="#fae048" d="M 1265.5,32.5 C 1265.5,37.5 1265.5,42.5 1265.5,47.5C 1245.58,48.6695 1225.58,49.3362 1205.5,49.5C 1205.79,51.7354 1205.46,53.7354 1204.5,55.5C 1204.5,48.1667 1204.5,40.8333 1204.5,33.5C 1223.18,33.0436 1241.85,32.3769 1260.5,31.5C 1262.21,31.7284 1263.87,32.0617 1265.5,32.5 Z"/></g>
<g><path style="opacity:1" fill="#efd13a" d="M 1465.5,34.5 C 1466.12,34.6107 1466.62,34.944 1467,35.5C 1467.5,40.4889 1467.67,45.4889 1467.5,50.5C 1466.55,51.9187 1466.22,53.5853 1466.5,55.5C 1429.84,56.752 1393.18,57.752 1356.5,58.5C 1356.78,56.5853 1356.45,54.9187 1355.5,53.5C 1355.5,52.8333 1355.5,52.1667 1355.5,51.5C 1356.46,49.7354 1356.79,47.7354 1356.5,45.5C 1393.18,44.824 1429.85,43.824 1466.5,42.5C 1466.6,39.7628 1466.27,37.0961 1465.5,34.5 Z"/></g>
<g><path style="opacity:1" fill="#eccc37" d="M 1491.5,44.5 C 1511.83,45.8333 1532.17,45.8333 1552.5,44.5C 1553.74,46.2143 1554.41,48.2143 1554.5,50.5C 1554.5,51.5 1554.5,52.5 1554.5,53.5C 1533.82,53.8513 1513.15,54.518 1492.5,55.5C 1490.89,55.1971 1489.55,54.5305 1488.5,53.5C 1488.47,51.4176 1489.14,49.5843 1490.5,48C 1490.17,47.6667 1489.83,47.3333 1489.5,47C 1491.18,46.5161 1491.84,45.6828 1491.5,44.5 Z"/></g>
<g><path style="opacity:1" fill="#f1d33b" d="M 1349.5,45.5 C 1349.5,48.5 1349.5,51.5 1349.5,54.5C 1330.31,54.3231 1311.31,54.9898 1292.5,56.5C 1292.17,56.5 1291.83,56.5 1291.5,56.5C 1291.5,55.1667 1291.5,53.8333 1291.5,52.5C 1292.45,51.0813 1292.78,49.4147 1292.5,47.5C 1311.51,46.9772 1330.51,46.3106 1349.5,45.5 Z"/></g>
<g><path style="opacity:0.964" fill="#e2c22d" d="M 1467.5,50.5 C 1467.5,54.5 1467.5,58.5 1467.5,62.5C 1465.79,63.6574 1463.79,64.3241 1461.5,64.5C 1457.88,63.5853 1454.71,63.252 1452,63.5C 1436.29,65.385 1421.45,66.0516 1407.5,65.5C 1407.78,67.4147 1407.45,69.0813 1406.5,70.5C 1406.5,66.8333 1406.5,63.1667 1406.5,59.5C 1398.5,59.5 1390.5,59.5 1382.5,59.5C 1382.5,66.8333 1382.5,74.1667 1382.5,81.5C 1381.95,76.1743 1381.12,70.841 1380,65.5C 1372.76,66.0806 1364.92,66.7473 1356.5,67.5C 1356.74,66.209 1356.4,65.209 1355.5,64.5C 1355.5,60.8333 1355.5,57.1667 1355.5,53.5C 1356.45,54.9187 1356.78,56.5853 1356.5,58.5C 1393.18,57.752 1429.84,56.752 1466.5,55.5C 1466.22,53.5853 1466.55,51.9187 1467.5,50.5 Z"/></g>
<g><path style="opacity:0.004" fill="#257a8e" d="M 235.5,52.5 C 234.833,53.1667 234.833,53.1667 235.5,52.5 Z"/></g>
<g><path style="opacity:0.997" fill="#87d1bf" d="M 17.5,33.5 C 18.8333,81.8333 18.8333,130.167 17.5,178.5C 16.2438,178.539 15.2438,178.039 14.5,177C 14.2545,175.94 14.2545,174.773 14.5,173.5C 11.9847,168.282 9.65134,163.449 7.5,159C 7.83333,158.667 8.16667,158.333 8.5,158C 6.49843,151.614 4.49843,145.281 2.5,139C 2.66506,137.883 2.9984,136.716 3.5,135.5C 2.34932,128.657 1.34932,121.823 0.5,115C 1.00034,103.915 1.00034,93.2486 0.5,83C 2.6015,81.2672 2.93484,79.2672 1.5,77C 2.89345,72.2082 4.22679,67.3749 5.5,62.5C 7.21553,51.6352 11.2155,41.9685 17.5,33.5 Z"/></g>
<g><path style="opacity:1" fill="#ebcc35" d="M 1265.5,47.5 C 1265.5,53.1667 1265.5,58.8333 1265.5,64.5C 1245.34,65.7394 1225.01,66.7394 1204.5,67.5C 1204.5,63.5 1204.5,59.5 1204.5,55.5C 1205.46,53.7354 1205.79,51.7354 1205.5,49.5C 1225.58,49.3362 1245.58,48.6695 1265.5,47.5 Z"/></g>
<g><path style="opacity:1" fill="#e7c631" d="M 1349.5,54.5 C 1349.5,57.5 1349.5,60.5 1349.5,63.5C 1330.5,63.6516 1311.5,63.985 1292.5,64.5C 1292.5,61.8333 1292.5,59.1667 1292.5,56.5C 1311.31,54.9898 1330.31,54.3231 1349.5,54.5 Z"/></g>
<g><path style="opacity:1" fill="#e0c02b" d="M 1554.5,50.5 C 1556.07,53.2154 1557.07,56.2154 1557.5,59.5C 1556.85,60.7251 1555.68,61.3917 1554,61.5C 1550.02,62.0284 1546.02,62.3617 1542,62.5C 1537.04,62.2987 1532.71,61.9654 1529,61.5C 1513.99,63.3147 1500.15,63.9813 1487.5,63.5C 1486.82,62.7573 1486.15,62.0906 1485.5,61.5C 1486.5,58.8333 1487.5,56.1667 1488.5,53.5C 1489.55,54.5305 1490.89,55.1971 1492.5,55.5C 1513.15,54.518 1533.82,53.8513 1554.5,53.5C 1554.5,52.5 1554.5,51.5 1554.5,50.5 Z"/></g>
<g><path style="opacity:0.996" fill="#60aca8" d="M 188.5,49.5 C 197.557,58.8909 205.89,68.8909 213.5,79.5C 213.217,80.2891 212.717,80.9558 212,81.5C 211.792,105.789 211.292,129.789 210.5,153.5C 208.621,153.607 208.288,153.107 209.5,152C 208.956,151.283 208.289,150.783 207.5,150.5C 204.512,148.11 201.845,144.776 199.5,140.5C 195.764,135.779 192.097,131.112 188.5,126.5C 188.167,125.833 187.833,125.167 187.5,124.5C 187.752,100.707 187.752,77.5404 187.5,55C 189.402,53.6062 189.735,51.7729 188.5,49.5 Z"/></g>
<g><path style="opacity:1" fill="#d5b422" d="M 1557.5,59.5 C 1558.74,61.2143 1559.41,63.2143 1559.5,65.5C 1547.67,67.06 1535.67,68.3933 1523.5,69.5C 1522.84,68.6016 1522.18,67.6016 1521.5,66.5C 1519.97,69.744 1518.64,73.0773 1517.5,76.5C 1513.35,77.167 1509.35,77.8337 1505.5,78.5C 1504.96,78.44 1504.62,78.1067 1504.5,77.5C 1508.46,76.6735 1512.46,76.1735 1516.5,76C 1515.5,75.6667 1514.5,75.3333 1513.5,75C 1502.58,75.1099 1491.92,74.2766 1481.5,72.5C 1481.58,68.6294 1482.92,64.9628 1485.5,61.5C 1486.15,62.0906 1486.82,62.7573 1487.5,63.5C 1500.15,63.9813 1513.99,63.3147 1529,61.5C 1532.71,61.9654 1537.04,62.2987 1542,62.5C 1546.02,62.3617 1550.02,62.0284 1554,61.5C 1555.68,61.3917 1556.85,60.7251 1557.5,59.5 Z"/></g>
<g><path style="opacity:1" fill="#d5b521" d="M 1467.5,62.5 C 1467.5,65.8333 1467.5,69.1667 1467.5,72.5C 1446.81,73.1549 1426.47,72.4883 1406.5,70.5C 1407.45,69.0813 1407.78,67.4147 1407.5,65.5C 1421.45,66.0516 1436.29,65.385 1452,63.5C 1454.71,63.252 1457.88,63.5853 1461.5,64.5C 1463.79,64.3241 1465.79,63.6574 1467.5,62.5 Z"/></g>
<g><path style="opacity:1" fill="#d8b724" d="M 1291.5,56.5 C 1291.83,56.5 1292.17,56.5 1292.5,56.5C 1292.5,59.1667 1292.5,61.8333 1292.5,64.5C 1311.5,63.985 1330.5,63.6516 1349.5,63.5C 1349.5,67.8333 1349.5,72.1667 1349.5,76.5C 1330.35,76.8182 1311.35,77.1516 1292.5,77.5C 1292.77,75.901 1292.43,74.5676 1291.5,73.5C 1291.33,68.0137 1291.33,62.3471 1291.5,56.5 Z"/></g>
<g><path style="opacity:1" fill="#d8b724" d="M 1265.5,64.5 C 1265.5,68.8333 1265.5,73.1667 1265.5,77.5C 1245.95,78.9921 1225.95,79.9921 1205.5,80.5C 1205.74,79.209 1205.4,78.209 1204.5,77.5C 1204.36,74.4768 1204.36,71.1435 1204.5,67.5C 1225.01,66.7394 1245.34,65.7394 1265.5,64.5 Z"/></g>
<g><path style="opacity:1" fill="#d4b422" d="M 284.5,43.5 C 295.849,56.8531 306.849,70.5197 317.5,84.5C 306.925,94.904 296.091,105.237 285,115.5C 285.109,116.769 284.942,117.769 284.5,118.5C 282.515,118.141 281.849,117.308 282.5,116C 280.636,113.312 278.636,110.812 276.5,108.5C 268.907,97.1261 260.907,85.4594 252.5,73.5C 262.839,63.1615 273.506,53.1615 284.5,43.5 Z"/></g>
<g><path style="opacity:0.994" fill="#c9a817" d="M 1559.5,65.5 C 1563.87,77.6142 1567.87,89.9476 1571.5,102.5C 1538.16,102.833 1504.83,102.5 1471.5,101.5C 1472.86,99.3257 1473.2,97.159 1472.5,95C 1474.3,94.6827 1474.63,94.016 1473.5,93C 1476.98,85.813 1479.64,78.9797 1481.5,72.5C 1491.92,74.2766 1502.58,75.1099 1513.5,75C 1514.5,75.3333 1515.5,75.6667 1516.5,76C 1512.46,76.1735 1508.46,76.6735 1504.5,77.5C 1504.62,78.1067 1504.96,78.44 1505.5,78.5C 1508.45,80.2805 1511.29,82.2805 1514,84.5C 1514.12,88.3224 1513.29,91.989 1511.5,95.5C 1511.83,95.8333 1512.17,96.1667 1512.5,96.5C 1515.43,94.1187 1518.6,92.1187 1522,90.5C 1524.9,92.3714 1527.74,94.3714 1530.5,96.5C 1531.41,93.7025 1530.74,91.2025 1528.5,89C 1529.63,87.984 1529.3,87.3173 1527.5,87C 1530.26,83.7806 1533.26,80.7806 1536.5,78C 1532.5,77.6667 1528.5,77.3333 1524.5,77C 1525.63,75.984 1525.3,75.3173 1523.5,75C 1524.14,73.2933 1524.14,71.46 1523.5,69.5C 1535.67,68.3933 1547.67,67.06 1559.5,65.5 Z"/></g>
<g><path style="opacity:0.004" fill="#257a8e" d="M 150.5,76.5 C 149.833,77.1667 149.833,77.1667 150.5,76.5 Z"/></g>
<g><path style="opacity:0.977" fill="#c9a916" d="M 1355.5,64.5 C 1356.4,65.209 1356.74,66.209 1356.5,67.5C 1364.92,66.7473 1372.76,66.0806 1380,65.5C 1381.12,70.841 1381.95,76.1743 1382.5,81.5C 1402.17,81.3334 1421.84,81.5 1441.5,82C 1448.83,88.6667 1456.17,95.3333 1463.5,102C 1427.5,102.5 1391.5,102.667 1355.5,102.5C 1355.27,89.4839 1355.27,76.8173 1355.5,64.5 Z"/></g>
<g><path style="opacity:1" fill="#c6a81e" d="M 1349.5,16.5 C 1350.5,44.9951 1350.83,73.6618 1350.5,102.5C 1330.83,102.5 1311.17,102.5 1291.5,102.5C 1291.5,92.8333 1291.5,83.1667 1291.5,73.5C 1292.43,74.5676 1292.77,75.901 1292.5,77.5C 1311.35,77.1516 1330.35,76.8182 1349.5,76.5C 1349.5,72.1667 1349.5,67.8333 1349.5,63.5C 1349.5,60.5 1349.5,57.5 1349.5,54.5C 1349.5,51.5 1349.5,48.5 1349.5,45.5C 1349.5,40.1667 1349.5,34.8333 1349.5,29.5C 1349.5,25.1667 1349.5,20.8333 1349.5,16.5 Z"/></g>
<g><path style="opacity:1" fill="#c9a815" d="M 1204.5,77.5 C 1205.4,78.209 1205.74,79.209 1205.5,80.5C 1225.95,79.9921 1245.95,78.9921 1265.5,77.5C 1265.5,85.8333 1265.5,94.1667 1265.5,102.5C 1245.17,102.5 1224.83,102.5 1204.5,102.5C 1204.5,94.1667 1204.5,85.8333 1204.5,77.5 Z"/></g>
<g><path style="opacity:0.997" fill="#e2c12e" d="M 317.5,84.5 C 326.996,96.172 335.996,108.172 344.5,120.5C 343.206,119.71 342.039,118.71 341,117.5C 336.632,121.533 332.632,125.866 329,130.5C 328.667,130.167 328.333,129.833 328,129.5C 321.934,137.068 315.1,143.734 307.5,149.5C 302.173,143.497 297.173,137.164 292.5,130.5C 289.441,126.772 286.774,122.772 284.5,118.5C 284.942,117.769 285.109,116.769 285,115.5C 296.091,105.237 306.925,94.904 317.5,84.5 Z"/></g>
<g><path style="opacity:0.994" fill="#56a3a1" d="M 213.5,79.5 C 223.64,91.7683 233.307,104.435 242.5,117.5C 241.778,117.918 241.278,118.584 241,119.5C 240.333,141.833 240.333,164.167 241,186.5C 242.5,188 244,189.5 245.5,191C 245.272,191.399 244.938,191.565 244.5,191.5C 231.65,179.5 220.317,166.833 210.5,153.5C 211.292,129.789 211.792,105.789 212,81.5C 212.717,80.9558 213.217,80.2891 213.5,79.5 Z"/></g>
<g><path style="opacity:0.99" fill="#29809c" d="M 1204.5,105.5 C 1224.83,105.5 1245.17,105.5 1265.5,105.5C 1265.5,115.833 1265.5,126.167 1265.5,136.5C 1274.17,136.5 1282.83,136.5 1291.5,136.5C 1291.5,126.167 1291.5,115.833 1291.5,105.5C 1311.17,105.5 1330.83,105.5 1350.5,105.5C 1350.67,122.837 1350.5,140.17 1350,157.5C 1338.83,166.667 1327.67,175.833 1316.5,185C 1288.5,185.667 1260.5,185.667 1232.5,185C 1222.9,176.818 1213.73,168.985 1205,161.5C 1204.5,142.836 1204.33,124.17 1204.5,105.5 Z"/></g>
<g><path style="opacity:0.985" fill="#29809c" d="M 1355.5,105.5 C 1392.83,105.5 1430.17,105.5 1467.5,105.5C 1467.83,124.179 1467.5,142.845 1466.5,161.5C 1456.68,169.575 1446.68,177.408 1436.5,185C 1407.17,185.667 1377.83,185.667 1348.5,185C 1344.17,181.333 1339.83,177.667 1335.5,174C 1341.69,168.975 1348.02,164.142 1354.5,159.5C 1355.5,148.186 1355.83,136.853 1355.5,125.5C 1365.83,125.5 1376.17,125.5 1386.5,125.5C 1386.5,129.833 1386.5,134.167 1386.5,138.5C 1392.5,138.5 1398.5,138.5 1404.5,138.5C 1404.5,130.167 1404.5,121.833 1404.5,113.5C 1388.17,113.5 1371.83,113.5 1355.5,113.5C 1355.5,110.833 1355.5,108.167 1355.5,105.5 Z"/></g>
<g><path style="opacity:0.987" fill="#29809c" d="M 1471.5,105.5 C 1505.17,105.333 1538.83,105.5 1572.5,106C 1588.89,153.168 1604.89,200.502 1620.5,248C 1620.17,248.5 1619.83,249 1619.5,249.5C 1601.17,250.833 1582.83,250.833 1564.5,249.5C 1560.71,240.946 1557.71,232.446 1555.5,224C 1543.08,188.373 1530.58,153.206 1518,118.5C 1510.4,140.463 1502.9,162.463 1495.5,184.5C 1477.83,185.833 1460.17,185.833 1442.5,184.5C 1451.81,176.863 1461.14,169.197 1470.5,161.5C 1471.5,142.845 1471.83,124.179 1471.5,105.5 Z"/></g>
<g><path style="opacity:0.004" fill="#257a8e" d="M 276.5,108.5 C 275.833,109.167 275.833,109.167 276.5,108.5 Z"/></g>
<g><path style="opacity:0.004" fill="#257a8e" d="M 188.5,126.5 C 187.833,127.167 187.833,127.167 188.5,126.5 Z"/></g>
<g><path style="opacity:0.004" fill="#257a8e" d="M 292.5,130.5 C 291.833,131.167 291.833,131.167 292.5,130.5 Z"/></g>
<g><path style="opacity:1" fill="#edce38" d="M 344.5,120.5 C 352.559,129.619 359.892,139.286 366.5,149.5C 354.542,158.79 343.542,169.124 333.5,180.5C 328.468,176.478 323.801,171.978 319.5,167C 319.833,166.667 320.167,166.333 320.5,166C 317.611,162.376 314.611,158.876 311.5,155.5C 311.167,154.5 310.5,153.833 309.5,153.5C 308.655,152.329 307.989,150.995 307.5,149.5C 315.1,143.734 321.934,137.068 328,129.5C 328.333,129.833 328.667,130.167 329,130.5C 332.632,125.866 336.632,121.533 341,117.5C 342.039,118.71 343.206,119.71 344.5,120.5 Z"/></g>
<g><path style="opacity:0.004" fill="#257a8e" d="M 199.5,140.5 C 198.833,141.167 198.833,141.167 199.5,140.5 Z"/></g>
<g><path style="opacity:1" fill="#4c999c" d="M 242.5,117.5 C 254.583,134.243 266.249,151.243 277.5,168.5C 277.829,183.676 277.496,198.676 276.5,213.5C 271.23,212.788 266.397,210.455 262,206.5C 259.526,205.43 257.026,203.596 254.5,201C 253.5,200.667 252.5,200.333 251.5,200C 248.683,197.585 246.349,194.751 244.5,191.5C 244.938,191.565 245.272,191.399 245.5,191C 244,189.5 242.5,188 241,186.5C 240.333,164.167 240.333,141.833 241,119.5C 241.278,118.584 241.778,117.918 242.5,117.5 Z"/></g>
<g><path style="opacity:0.997" fill="#63afaa" d="M 53.5,146.5 C 58.3687,159.242 65.0353,170.909 73.5,181.5C 73.0825,182.222 72.4158,182.722 71.5,183C 72.8222,193.5 72.8222,204 71.5,214.5C 69.0642,216.017 66.8976,215.684 65,213.5C 63,213.5 61,213.5 59,213.5C 56.876,212.773 54.7094,212.106 52.5,211.5C 51.7025,211.043 51.3691,210.376 51.5,209.5C 52.1667,188.5 52.8333,167.5 53.5,146.5 Z"/></g>
<g><path style="opacity:0.004" fill="#257a8e" d="M 207.5,150.5 C 206.833,151.167 206.833,151.167 207.5,150.5 Z"/></g>
<g><path style="opacity:0.004" fill="#257a8e" d="M 309.5,153.5 C 310.5,153.833 311.167,154.5 311.5,155.5C 310.167,155.5 309.5,154.833 309.5,153.5 Z"/></g>
<g><path style="opacity:1" fill="#f8dc44" d="M 366.5,149.5 C 375.852,160.857 384.852,172.524 393.5,184.5C 385.753,193.095 378.086,200.595 370.5,207C 371.056,207.383 371.389,207.883 371.5,208.5C 367.824,207.246 364.324,205.579 361,203.5C 360.667,203.833 360.333,204.167 360,204.5C 354.932,200.382 349.766,196.382 344.5,192.5C 340.805,188.474 337.138,184.474 333.5,180.5C 343.542,169.124 354.542,158.79 366.5,149.5 Z"/></g>
<g><path style="opacity:0.991" fill="#56a3a2" d="M 73.5,181.5 C 77.1384,185.474 80.8051,189.474 84.5,193.5C 83.5088,200.313 83.1755,207.313 83.5,214.5C 91.3516,214.175 99.0182,214.508 106.5,215.5C 97.2494,215.182 88.0828,215.515 79,216.5C 76.4772,214.932 73.9772,214.266 71.5,214.5C 72.8222,204 72.8222,193.5 71.5,183C 72.4158,182.722 73.0825,182.222 73.5,181.5 Z"/></g>
<g><path style="opacity:1" fill="#3e8c94" d="M 277.5,168.5 C 289.554,181.221 302.554,192.887 316.5,203.5C 317.462,206.758 317.795,209.925 317.5,213C 315.487,214.791 315.487,216.125 317.5,217C 315.109,217.691 315.109,218.691 317.5,220C 316.095,221.269 314.429,221.769 312.5,221.5C 311.178,221.33 310.011,221.663 309,222.5C 304.569,221.718 300.069,220.385 295.5,218.5C 292.782,218.945 290.115,218.279 287.5,216.5C 286.284,217.002 285.117,217.335 284,217.5C 281.562,215.988 279.062,214.654 276.5,213.5C 277.496,198.676 277.829,183.676 277.5,168.5 Z"/></g>
<g><path style="opacity:0.004" fill="#257a8e" d="M 344.5,192.5 C 343.833,193.167 343.833,193.167 344.5,192.5 Z"/></g>
<g><path style="opacity:1" fill="#4b989b" d="M 84.5,193.5 C 95.1989,203.341 107.532,210.508 121.5,215C 119.567,215.251 117.734,215.751 116,216.5C 112.943,215.549 109.777,215.216 106.5,215.5C 99.0182,214.508 91.3516,214.175 83.5,214.5C 83.1755,207.313 83.5088,200.313 84.5,193.5 Z"/></g>
<g><path style="opacity:1" fill="#f7e451" d="M 393.5,184.5 C 399.446,192.276 406.779,198.443 415.5,203C 428.271,204.108 440.938,204.941 453.5,205.5C 444.161,205.334 434.827,205.5 425.5,206C 419.58,211.432 413.58,216.599 407.5,221.5C 402.503,220.709 397.67,219.376 393,217.5C 392.667,217.833 392.333,218.167 392,218.5C 388.131,215.736 383.798,214.07 379,213.5C 376.513,211.683 374.013,210.017 371.5,208.5C 371.389,207.883 371.056,207.383 370.5,207C 378.086,200.595 385.753,193.095 393.5,184.5 Z"/></g>
<g><path style="opacity:0.919" fill="#141010" d="M 1203.5,203.5 C 1212.51,203.334 1221.51,203.5 1230.5,204C 1240.01,207.147 1243.51,213.647 1241,223.5C 1239.02,227.806 1236.02,231.14 1232,233.5C 1227.17,234.056 1222,234.056 1216.5,233.5C 1216.5,238.5 1216.5,243.5 1216.5,248.5C 1212.17,248.5 1207.83,248.5 1203.5,248.5C 1203.5,233.5 1203.5,218.5 1203.5,203.5 Z M 1216.5,212.5 C 1220.84,211.846 1224.67,212.846 1228,215.5C 1228.78,218.257 1228.28,220.757 1226.5,223C 1223.27,224.199 1219.94,224.699 1216.5,224.5C 1216.5,220.5 1216.5,216.5 1216.5,212.5 Z"/></g>
<g><path style="opacity:0.962" fill="#151110" d="M 1297.5,248.5 C 1293.5,248.5 1289.5,248.5 1285.5,248.5C 1285.5,242.5 1285.5,236.5 1285.5,230.5C 1280.17,230.5 1274.83,230.5 1269.5,230.5C 1269.5,236.5 1269.5,242.5 1269.5,248.5C 1265.5,248.5 1261.5,248.5 1257.5,248.5C 1256.5,233.676 1256.17,218.676 1256.5,203.5C 1260.83,203.5 1265.17,203.5 1269.5,203.5C 1269.5,209.167 1269.5,214.833 1269.5,220.5C 1274.83,220.5 1280.17,220.5 1285.5,220.5C 1285.5,214.833 1285.5,209.167 1285.5,203.5C 1289.83,203.5 1294.17,203.5 1298.5,203.5C 1298.83,218.676 1298.5,233.676 1297.5,248.5 Z"/></g>
<g><path style="opacity:0.943" fill="#151212" d="M 1334.5,203.5 C 1340.3,202.913 1345.8,203.58 1351,205.5C 1356.07,219.538 1361.23,233.538 1366.5,247.5C 1362.22,248.492 1357.88,248.826 1353.5,248.5C 1353.44,241.665 1349.94,238.999 1343,240.5C 1340.17,240.667 1337.33,240.833 1334.5,241C 1332.95,243.655 1331.78,246.488 1331,249.5C 1326.92,248.7 1322.75,248.2 1318.5,248C 1324.16,233.215 1329.49,218.382 1334.5,203.5 Z M 1341.5,217.5 C 1342.75,217.577 1343.58,218.244 1344,219.5C 1345.11,221.397 1345.28,223.23 1344.5,225C 1346.14,226.434 1347.14,228.267 1347.5,230.5C 1344.17,231.833 1340.83,231.833 1337.5,230.5C 1339.24,226.275 1340.58,221.941 1341.5,217.5 Z"/></g>
<g><path style="opacity:0.925" fill="#151212" d="M 1416.5,225.5 C 1415.36,225.908 1414.36,226.575 1413.5,227.5C 1418.13,233.923 1422.13,240.756 1425.5,248C 1420.8,248.828 1416.13,248.662 1411.5,247.5C 1409.16,241.171 1405.33,236.171 1400,232.5C 1399,233.833 1398,233.833 1397,232.5C 1396.5,237.823 1396.33,243.156 1396.5,248.5C 1392.17,248.5 1387.83,248.5 1383.5,248.5C 1383.5,233.5 1383.5,218.5 1383.5,203.5C 1392.51,203.334 1401.51,203.5 1410.5,204C 1416.63,205.582 1419.63,209.582 1419.5,216C 1419.5,219.502 1418.5,222.669 1416.5,225.5 Z M 1396.5,212.5 C 1398.86,212.337 1401.19,212.503 1403.5,213C 1404.91,213.368 1405.91,214.201 1406.5,215.5C 1406.52,217.602 1406.19,219.768 1405.5,222C 1402.57,222.953 1399.57,223.453 1396.5,223.5C 1396.5,219.833 1396.5,216.167 1396.5,212.5 Z"/></g>
<g><path style="opacity:0.923" fill="#141111" d="M 1440.5,203.5 C 1445.87,203.172 1451.21,203.505 1456.5,204.5C 1459.58,211.576 1462.74,218.576 1466,225.5C 1469.31,218.377 1472.48,211.21 1475.5,204C 1480.82,203.501 1486.16,203.334 1491.5,203.5C 1491.5,218.5 1491.5,233.5 1491.5,248.5C 1487.5,248.5 1483.5,248.5 1479.5,248.5C 1479.67,238.828 1479.5,229.161 1479,219.5C 1476.07,226.126 1473.24,232.792 1470.5,239.5C 1467.5,240.833 1464.5,240.833 1461.5,239.5C 1458.6,233.305 1455.76,226.638 1453,219.5C 1452.5,229.161 1452.33,238.828 1452.5,248.5C 1448.5,248.5 1444.5,248.5 1440.5,248.5C 1440.5,233.5 1440.5,218.5 1440.5,203.5 Z"/></g>
<g><path style="opacity:0.944" fill="#151212" d="M 1525.5,203.5 C 1530.98,202.919 1536.14,203.586 1541,205.5C 1546.07,219.538 1551.23,233.538 1556.5,247.5C 1552.22,248.492 1547.88,248.826 1543.5,248.5C 1543.44,241.665 1539.94,238.999 1533,240.5C 1530.17,240.667 1527.33,240.833 1524.5,241C 1523.6,243.192 1522.6,245.358 1521.5,247.5C 1517.29,248.195 1513.12,248.861 1509,249.5C 1510.87,242.213 1513.37,235.047 1516.5,228C 1516.17,227.667 1515.83,227.333 1515.5,227C 1519.02,219.712 1522.35,211.879 1525.5,203.5 Z M 1532.5,216.5 C 1534.1,219.784 1535.43,223.284 1536.5,227C 1536.36,227.772 1536.02,228.439 1535.5,229C 1536.31,229.308 1536.97,229.808 1537.5,230.5C 1534.17,231.833 1530.83,231.833 1527.5,230.5C 1529.17,225.81 1530.84,221.143 1532.5,216.5 Z"/></g>
<g><path style="opacity:1" fill="#f9ed5c" d="M 453.5,205.5 C 468.676,205.171 483.676,205.504 498.5,206.5C 486.495,206.333 474.495,206.5 462.5,207C 463.833,207.333 465.167,207.667 466.5,208C 464.699,208.317 464.366,208.984 465.5,210C 464.333,210.5 463.5,211.333 463,212.5C 462.033,209.095 460.2,208.595 457.5,211C 461.5,211.667 461.5,212.333 457.5,213C 456.809,214.067 456.309,215.234 456,216.5C 455.667,215.833 455.333,215.167 455,214.5C 454.02,215.981 452.853,217.315 451.5,218.5C 451.977,219.478 452.643,220.311 453.5,221C 449.312,221.176 445.312,221.676 441.5,222.5C 430.129,222.768 418.795,222.434 407.5,221.5C 413.58,216.599 419.58,211.432 425.5,206C 434.827,205.5 444.161,205.334 453.5,205.5 Z"/></g>
<g><path style="opacity:1" fill="#318290" d="M 316.5,203.5 C 332.021,215.923 349.687,223.423 369.5,226C 365.113,226.226 360.779,226.726 356.5,227.5C 354.167,226.833 351.833,226.167 349.5,225.5C 347.007,225.6 344.507,225.933 342,226.5C 334.062,225.181 326.062,223.848 318,222.5C 315.833,223.826 314,223.493 312.5,221.5C 314.429,221.769 316.095,221.269 317.5,220C 315.109,218.691 315.109,217.691 317.5,217C 315.487,216.125 315.487,214.791 317.5,213C 317.795,209.925 317.462,206.758 316.5,203.5 Z"/></g>
<g><path style="opacity:1" fill="#f7f164" d="M 498.5,206.5 C 499.5,206.5 500.5,206.5 501.5,206.5C 509.01,207.167 516.677,207.833 524.5,208.5C 523.185,210.316 521.685,211.983 520,213.5C 518.334,212.66 518.167,213.16 519.5,215C 518.333,216.167 517.167,217.333 516,218.5C 515.586,218.043 515.086,217.709 514.5,217.5C 513.646,218.522 512.646,219.355 511.5,220C 500.326,220.17 489.326,220.67 478.5,221.5C 474.121,221.922 469.788,222.589 465.5,223.5C 457.341,223.478 449.341,223.145 441.5,222.5C 445.312,221.676 449.312,221.176 453.5,221C 452.643,220.311 451.977,219.478 451.5,218.5C 452.853,217.315 454.02,215.981 455,214.5C 455.333,215.167 455.667,215.833 456,216.5C 456.309,215.234 456.809,214.067 457.5,213C 461.5,212.333 461.5,211.667 457.5,211C 460.2,208.595 462.033,209.095 463,212.5C 463.5,211.333 464.333,210.5 465.5,210C 464.366,208.984 464.699,208.317 466.5,208C 465.167,207.667 463.833,207.333 462.5,207C 474.495,206.5 486.495,206.333 498.5,206.5 Z"/></g>
<g><path style="opacity:1" fill="#ebe15a" d="M 501.5,206.5 C 517.51,206.47 533.51,206.803 549.5,207.5C 548.391,208.29 547.058,208.79 545.5,209C 546.517,210.049 546.684,211.216 546,212.5C 545.667,211.833 545.333,211.167 545,210.5C 544.452,214.687 542.452,217.021 539,217.5C 538.53,218.577 538.697,219.577 539.5,220.5C 535.718,221.393 531.718,221.393 527.5,220.5C 523.587,220.966 519.754,221.633 516,222.5C 503.562,222.217 491.062,221.883 478.5,221.5C 489.326,220.67 500.326,220.17 511.5,220C 512.646,219.355 513.646,218.522 514.5,217.5C 515.086,217.709 515.586,218.043 516,218.5C 517.167,217.333 518.333,216.167 519.5,215C 518.167,213.16 518.334,212.66 520,213.5C 521.685,211.983 523.185,210.316 524.5,208.5C 516.677,207.833 509.01,207.167 501.5,206.5 Z"/></g>
<g><path style="opacity:1" fill="#e4d046" d="M 549.5,207.5 C 573.163,208.278 596.83,208.944 620.5,209.5C 621.602,211.092 620.935,211.925 618.5,212C 617.458,213.918 616.292,215.751 615,217.5C 614,217.5 613,217.5 612,217.5C 611.536,218.094 611.369,218.761 611.5,219.5C 598.51,220.328 585.51,220.328 572.5,219.5C 569.465,220.061 566.465,220.727 563.5,221.5C 559.516,221.173 555.516,220.84 551.5,220.5C 548.167,220.5 544.833,220.5 541.5,220.5C 540.604,221.506 539.938,221.506 539.5,220.5C 538.697,219.577 538.53,218.577 539,217.5C 542.452,217.021 544.452,214.687 545,210.5C 545.333,211.167 545.667,211.833 546,212.5C 546.684,211.216 546.517,210.049 545.5,209C 547.058,208.79 548.391,208.29 549.5,207.5 Z"/></g>
<g><path style="opacity:0.974" fill="#d6b82f" d="M 620.5,209.5 C 668.486,211.459 716.486,213.293 764.5,215C 762.863,215.601 761.197,216.101 759.5,216.5C 752.305,215.256 745.139,215.589 738,217.5C 728.167,217.067 718.334,216.734 708.5,216.5C 704.056,216.46 699.723,217.127 695.5,218.5C 685.65,217.899 675.817,217.565 666,217.5C 661.08,217.655 656.247,218.322 651.5,219.5C 638.165,218.835 624.831,218.835 611.5,219.5C 611.369,218.761 611.536,218.094 612,217.5C 613,217.5 614,217.5 615,217.5C 616.292,215.751 617.458,213.918 618.5,212C 620.935,211.925 621.602,211.092 620.5,209.5 Z"/></g>
<g><path style="opacity:0.004" fill="#478287" d="M 541.5,220.5 C 544.833,220.5 548.167,220.5 551.5,220.5C 549.107,221.21 546.607,221.877 544,222.5C 543.333,221.167 542.667,221.167 542,222.5C 541.536,221.906 541.369,221.239 541.5,220.5 Z"/></g>
<g><path style="opacity:0.004" fill="#257a8e" d="M 1416.5,225.5 C 1417.83,226.167 1417.83,226.167 1416.5,225.5 Z"/></g>
<g><path style="opacity:0.027" fill="#3b7a8c" d="M 1257.5,248.5 C 1261.5,248.5 1265.5,248.5 1269.5,248.5C 1268.83,249.267 1267.99,249.934 1267,250.5C 1264.33,250.5 1261.67,250.5 1259,250.5C 1258.28,249.956 1257.78,249.289 1257.5,248.5 Z"/></g>
<g><path style="opacity:0.027" fill="#3b7a8c" d="M 1285.5,248.5 C 1289.5,248.5 1293.5,248.5 1297.5,248.5C 1297.22,249.289 1296.72,249.956 1296,250.5C 1293.33,250.5 1290.67,250.5 1288,250.5C 1287.01,249.934 1286.17,249.267 1285.5,248.5 Z"/></g>
</svg>
