<svg width="344" height="40" viewBox="0 0 344 40" fill="none" xmlns="http://www.w3.org/2000/svg">
<path opacity="0.994" fill-rule="evenodd" clip-rule="evenodd" d="M60.3379 6.69231C58.0062 8.17869 55.7439 9.71715 53.5512 11.3077C52.3582 10.236 51.1563 9.15908 49.9458 8.07692C49.5542 7.56223 48.9886 7.17762 48.2491 6.92308C48.3197 6.8718 48.3905 6.82051 48.4612 6.76923C47.957 6.35175 47.3914 5.99278 46.7645 5.69231C46.8351 5.64103 46.906 5.58974 46.9766 5.53846C46.1573 5.02062 45.309 4.53345 44.4316 4.07692C43.9391 3.744 43.3735 3.48758 42.7349 3.30769C42.7349 3.10257 42.5934 3 42.3107 3C40.3869 1.98714 38.1955 1.42304 35.7361 1.30769C35.3697 1.32155 35.0163 1.37283 34.6757 1.46154C34.4221 1.40836 34.4221 1.33143 34.6757 1.23077C40.0075 0.635946 45.3096 0.738509 50.582 1.53846C54.7912 2.31983 58.0431 4.03778 60.3379 6.69231Z" fill="#C8A818"/>
<path opacity="0.999" fill-rule="evenodd" clip-rule="evenodd" d="M25.344 1.15385C25.4134 2.61769 25.3428 4.05358 25.1319 5.46154C23.6153 4.36089 21.9187 3.43782 20.0419 2.69231C18.6311 2.02822 17.0758 1.61797 15.3761 1.46154C14.5705 1.31024 13.7222 1.25896 12.8311 1.30769C14.9973 0.933112 17.2242 0.779266 19.5117 0.846154C21.4811 0.819908 23.4253 0.922472 25.344 1.15385Z" fill="#7FCABA"/>
<path fill-rule="evenodd" clip-rule="evenodd" d="M12.8311 1.30769C13.7222 1.25896 14.5705 1.31024 15.3761 1.46154C14.9554 3.71222 14.814 6.01991 14.9519 8.38462C13.1397 9.16606 11.9379 10.2943 11.3465 11.7692C11.135 8.46252 11.0643 5.1292 11.1344 1.76923C10.8606 1.80574 10.6485 1.75446 10.4981 1.61538C11.2555 1.43966 12.0332 1.33709 12.8311 1.30769Z" fill="#62AFA9"/>
<path opacity="0.993" fill-rule="evenodd" clip-rule="evenodd" d="M10.4981 1.61538C10.6485 1.75446 10.8606 1.80574 11.1344 1.76923C11.0643 5.1292 11.135 8.46252 11.3465 11.7692C10.5338 13.5874 10.1803 15.4592 10.2861 17.3846C10.1468 19.1626 10.5003 20.8805 11.3465 22.5385C11.2051 25.7692 11.0637 29 10.9223 32.2308C10.25 32.1131 9.6137 31.9592 9.01355 31.7692C9.23666 31.7922 9.44875 31.7666 9.6498 31.6923C9.36739 21.7692 9.36739 11.8462 9.6498 1.92308C9.89826 1.79314 10.181 1.69057 10.4981 1.61538Z" fill="#6CB8B0"/>
<path opacity="0.998" fill-rule="evenodd" clip-rule="evenodd" d="M15.3761 1.46154C17.0758 1.61797 18.6311 2.02822 20.0419 2.69231C19.7604 3.40298 19.619 4.17222 19.6177 5C19.6286 5.85823 19.77 6.67874 20.0419 7.46154C18.2856 7.43749 16.5889 7.74518 14.9519 8.38462C14.814 6.01991 14.9554 3.71222 15.3761 1.46154Z" fill="#54A2A1"/>
<path opacity="0.999" fill-rule="evenodd" clip-rule="evenodd" d="M9.64983 1.92308C9.36742 11.8462 9.36742 21.7692 9.64983 31.6923C9.44877 31.7666 9.23669 31.7922 9.01358 31.7692C8.51872 31.4615 8.02385 31.1538 7.52899 30.8462C7.74023 21.4212 7.81091 11.9853 7.74108 2.53846C8.28261 2.21789 8.91886 2.01277 9.64983 1.92308Z" fill="#73BEB3"/>
<path opacity="0.995" fill-rule="evenodd" clip-rule="evenodd" d="M25.344 1.15385C28.0481 1.43163 30.5931 2.04702 32.979 3C32.6308 6.01645 32.4187 9.04208 32.3428 12.0769C32.2722 11.9231 32.1307 11.8205 31.9186 11.7692C30.3044 10.4298 28.8199 8.99392 27.4648 7.46154C26.7718 6.75272 25.994 6.08606 25.1319 5.46154C25.3427 4.05358 25.4134 2.61769 25.344 1.15385Z" fill="#74BFB3"/>
<path opacity="0.999" fill-rule="evenodd" clip-rule="evenodd" d="M7.74107 2.53846C7.81091 11.9853 7.74022 21.4212 7.52898 30.8462C6.5299 30.3768 5.68156 29.8128 4.98398 29.1538C5.19606 29.1538 5.40815 29.1538 5.62023 29.1538C5.62186 20.594 5.62186 12.0812 5.62023 3.61538C6.20484 3.14166 6.9118 2.78269 7.74107 2.53846Z" fill="#79C4B6"/>
<path opacity="0.989" fill-rule="evenodd" clip-rule="evenodd" d="M88.3329 2.53846C91.1606 2.53846 93.9886 2.53846 96.8163 2.53846C98.6298 8.41568 100.574 14.2618 102.649 20.0769C104.609 14.188 106.482 8.34183 108.269 2.53846C111.097 2.53846 113.924 2.53846 116.752 2.53846C116.752 11.2051 116.752 19.8718 116.752 28.5385C114.773 28.5385 112.793 28.5385 110.814 28.5385C110.883 25.8343 110.812 23.142 110.602 20.4615C110.756 20.2463 110.862 20.0155 110.92 19.7692C111.061 17.4103 111.061 15.0513 110.92 12.6923C109.223 17.9231 107.527 23.1538 105.83 28.3846C103.78 28.4872 101.73 28.5897 99.6794 28.6923C97.7957 23.2243 95.9575 17.6858 94.1652 12.0769C94.2664 17.562 94.3724 23.0491 94.4833 28.5385C92.4331 28.5385 90.3831 28.5385 88.3329 28.5385C88.3329 19.8718 88.3329 11.2051 88.3329 2.53846Z" fill="#29809C"/>
<path opacity="0.993" fill-rule="evenodd" clip-rule="evenodd" d="M128.841 2.53846C132.729 2.53846 136.617 2.53846 140.506 2.53846C140.506 4.33334 140.506 6.1282 140.506 7.92308C137.041 7.89745 133.577 7.92309 130.113 8C128.547 8.36642 127.452 9.11 126.826 10.2308C126.445 11.029 126.268 11.8495 126.296 12.6923C131.032 12.6923 135.769 12.6923 140.506 12.6923C140.506 14.4872 140.506 16.282 140.506 18.0769C135.698 18.0769 130.891 18.0769 126.084 18.0769C126.102 19.4517 126.561 20.7337 127.462 21.9231C128.462 22.6951 129.699 23.0797 131.174 23.0769C134.284 23.1538 137.394 23.1795 140.506 23.1538C140.506 24.9488 140.506 26.7435 140.506 28.5385C136.533 28.5209 132.574 28.5209 128.629 28.5385C124.785 27.7738 122.24 26.0558 120.994 23.3846C120.393 22.5394 120.005 21.642 119.827 20.6923C118.852 16.5429 119.065 12.4917 120.464 8.53846C121.318 6.02332 123.333 4.20282 126.508 3.07692C127.304 2.87557 128.082 2.69609 128.841 2.53846Z" fill="#29809C"/>
<path opacity="0.993" fill-rule="evenodd" clip-rule="evenodd" d="M143.899 2.53846C148.565 2.51283 153.231 2.53846 157.896 2.61538C162.587 3.35149 165.45 5.42842 166.486 8.84615C168.166 13.6993 168.024 18.5198 166.062 23.3077C164.832 25.5842 162.676 27.1995 159.593 28.1538C158.543 28.3069 157.482 28.4095 156.412 28.4615C152.241 28.5385 148.07 28.5642 143.899 28.5385C143.899 19.8718 143.899 11.2051 143.899 2.53846ZM150.049 7.92308C152.313 7.89746 154.575 7.92311 156.836 8C157.239 8.03065 157.558 8.15885 157.79 8.38462C158.006 8.21014 158.147 8.26142 158.215 8.53846C158.285 8.48718 158.356 8.43589 158.427 8.38462C159.307 8.84054 159.873 9.45592 160.123 10.2308C161.024 13.5019 161.095 16.784 160.335 20.0769C159.921 21.9629 158.33 22.9629 155.563 23.0769C153.727 23.1538 151.889 23.1794 150.049 23.1538C150.049 18.0769 150.049 13 150.049 7.92308Z" fill="#29809C"/>
<path opacity="0.984" fill-rule="evenodd" clip-rule="evenodd" d="M169.349 2.53846C171.47 2.53846 173.591 2.53846 175.711 2.53846C175.676 8.4874 175.711 14.4361 175.818 20.3846C176.085 21.9337 177.252 22.8825 179.317 23.2308C182.002 23.3077 184.689 23.3334 187.376 23.3077C187.376 25.0512 187.376 26.7949 187.376 28.5385C184.759 28.5642 182.144 28.5385 179.529 28.4615C175.832 28.5954 173.11 27.4929 171.364 25.1538C170.687 24.236 170.227 23.3129 169.985 22.3846C169.651 20.9115 169.474 19.4245 169.455 17.9231C169.349 12.7951 169.314 7.66692 169.349 2.53846Z" fill="#29809C"/>
<path opacity="0.983" fill-rule="evenodd" clip-rule="evenodd" d="M189.073 2.53846C191.194 2.53846 193.314 2.53846 195.435 2.53846C195.435 11.2051 195.435 19.8718 195.435 28.5385C193.314 28.5385 191.194 28.5385 189.073 28.5385C189.073 19.8718 189.073 11.2051 189.073 2.53846Z" fill="#28819D"/>
<path opacity="0.992" fill-rule="evenodd" clip-rule="evenodd" d="M199.465 2.53846C201.992 2.489 204.501 2.54028 206.994 2.69231C209.963 8.02565 212.932 13.359 215.901 18.6923C216.043 17 216.043 15.3077 215.901 13.6154C215.853 13.2162 215.747 12.8315 215.583 12.4615C215.749 9.16372 215.819 5.85603 215.795 2.53846C217.916 2.53846 220.037 2.53846 222.158 2.53846C222.194 11.2566 222.158 19.9745 222.052 28.6923C219.772 28.5405 217.473 28.4892 215.159 28.5385C212.107 22.9588 208.961 17.2665 205.721 11.4615C205.683 17.1537 205.719 22.846 205.827 28.5385C203.707 28.5385 201.586 28.5385 199.465 28.5385C199.465 19.8718 199.465 11.2051 199.465 2.53846Z" fill="#29809C"/>
<path opacity="0.992" fill-rule="evenodd" clip-rule="evenodd" d="M234.035 2.53846C237.852 2.53846 241.67 2.53846 245.487 2.53846C245.487 4.33334 245.487 6.1282 245.487 7.92308C241.797 7.8526 238.119 7.92952 234.459 8.15385C233.108 8.72628 232.223 9.57243 231.808 10.6923C231.585 11.3544 231.409 12.021 231.277 12.6923C236.013 12.6923 240.751 12.6923 245.487 12.6923C245.487 14.4872 245.487 16.282 245.487 18.0769C240.751 18.0769 236.013 18.0769 231.277 18.0769C231.282 19.3735 231.67 20.6043 232.444 21.7692C233.468 22.6408 234.777 23.0766 236.367 23.0769C239.407 23.1538 242.446 23.1795 245.487 23.1538C245.487 24.9488 245.487 26.7435 245.487 28.5385C242.164 28.5642 238.84 28.5385 235.519 28.4615C233.163 28.4715 231.112 28.01 229.369 27.0769C228.586 26.356 227.738 25.6894 226.824 25.0769C226.921 25.0132 226.991 24.9363 227.036 24.8462C226.357 23.826 225.721 22.8772 225.127 22C225.237 21.9137 225.309 21.8111 225.339 21.6923C223.78 16.7545 224.098 11.9083 226.293 7.15385C227.748 4.61428 230.329 3.07582 234.035 2.53846Z" fill="#29809C"/>
<path opacity="0.01" fill-rule="evenodd" clip-rule="evenodd" d="M42.3107 3C42.5934 3 42.7349 3.10257 42.7349 3.30769C42.5228 3.25642 42.3814 3.15385 42.3107 3Z" fill="#257A8E"/>
<path fill-rule="evenodd" clip-rule="evenodd" d="M308.688 4.07692C302.722 4.23138 296.714 4.35958 290.661 4.46154C289.577 4.44403 288.589 4.57223 287.692 4.84615C287.622 4.84615 287.55 4.84615 287.48 4.84615C287.48 4.07692 287.48 3.30769 287.48 2.53846C293.842 2.51283 300.205 2.53846 306.567 2.61538C307.379 3.02588 308.088 3.51305 308.688 4.07692Z" fill="#F9E955"/>
<path fill-rule="evenodd" clip-rule="evenodd" d="M286.207 2.53846C286.207 3.20512 286.207 3.8718 286.207 4.53846C282.25 4.61808 278.29 4.695 274.33 4.76923C274.21 4.92226 274.07 5.05046 273.906 5.15385C273.972 4.29332 273.9 3.44717 273.694 2.61538C277.864 2.53846 282.035 2.51283 286.207 2.53846Z" fill="#F9E956"/>
<path opacity="0.999" fill-rule="evenodd" clip-rule="evenodd" d="M5.62021 3.61539C5.62184 12.0812 5.62184 20.594 5.62021 29.1538C5.40813 29.1538 5.19604 29.1538 4.98396 29.1538C4.58554 29.1703 4.51485 29.0934 4.77188 28.9231C4.36347 28.4498 4.00999 27.9628 3.71146 27.4615C3.99423 20.0257 3.99423 12.5897 3.71146 5.15385C4.19673 4.54526 4.83298 4.03245 5.62021 3.61539Z" fill="#7FCABA"/>
<path fill-rule="evenodd" clip-rule="evenodd" d="M268.392 5C268.046 4.93257 267.694 4.88129 267.332 4.84615C263.376 4.98106 259.417 5.08363 255.455 5.15385C255.521 4.29332 255.449 3.44717 255.243 2.61538C259.625 2.53846 264.008 2.51283 268.392 2.53846C268.392 3.35897 268.392 4.17949 268.392 5Z" fill="#F9EA56"/>
<path fill-rule="evenodd" clip-rule="evenodd" d="M328.412 5C324.584 5.07298 320.766 5.22683 316.959 5.46154C316.866 5.4716 316.796 5.44597 316.747 5.38462C317.311 4.71668 317.806 3.94745 318.232 3.07692C318.028 2.90038 318.1 2.74654 318.444 2.61538C321.483 2.53848 324.522 2.51283 327.563 2.53846C327.846 3.35897 328.13 4.17949 328.412 5Z" fill="#F9E550"/>
<path opacity="0.01" fill-rule="evenodd" clip-rule="evenodd" d="M44.4316 4.07692C44.2901 4.17949 44.2901 4.17949 44.4316 4.07692V4.07692Z" fill="#257A8E"/>
<path fill-rule="evenodd" clip-rule="evenodd" d="M308.688 4.07692C309.452 4.37388 310.088 4.78414 310.597 5.30769C303.318 5.56852 295.683 5.72237 287.692 5.76923C287.692 5.46154 287.692 5.15385 287.692 4.84615C288.589 4.57223 289.577 4.44403 290.661 4.46154C296.714 4.35958 302.722 4.23138 308.688 4.07692Z" fill="#FAE44D"/>
<path fill-rule="evenodd" clip-rule="evenodd" d="M20.0419 2.69231C21.9187 3.43782 23.6153 4.36089 25.1319 5.46154C25.9941 6.08606 26.7718 6.75272 27.4649 7.46154C24.7708 7.51541 22.2964 7.51541 20.0419 7.46154C19.77 6.67874 19.6286 5.85823 19.6178 5C19.619 4.17222 19.7604 3.40298 20.0419 2.69231Z" fill="#408F95"/>
<path opacity="0.998" fill-rule="evenodd" clip-rule="evenodd" d="M32.979 3C35.709 4.21066 38.0419 5.74912 39.9778 7.61538C40.2397 7.96506 40.1691 8.24711 39.7657 8.46154C39.8192 11.9293 39.8192 15.4934 39.7657 19.1538C39.4173 18.7734 38.9577 18.4657 38.3872 18.2308C37.6423 17.1263 36.6528 16.1518 35.418 15.3077C34.3902 14.1163 33.2944 13.065 32.1307 12.1538C32.1791 12.0925 32.2499 12.0669 32.3428 12.0769C32.4187 9.04208 32.6308 6.01645 32.979 3Z" fill="#68B4AD"/>
<path fill-rule="evenodd" clip-rule="evenodd" d="M328.412 5C328.817 5.57165 329.099 6.18703 329.26 6.84615C324.949 7.05128 320.635 7.05128 316.323 6.84615C316.567 6.39203 316.779 5.93049 316.959 5.46154C320.766 5.22683 324.584 5.07298 328.412 5Z" fill="#F8DC44"/>
<path fill-rule="evenodd" clip-rule="evenodd" d="M287.48 4.84615C287.55 4.84615 287.622 4.84615 287.692 4.84615C287.692 5.15385 287.692 5.46154 287.692 5.76923C295.683 5.72237 303.318 5.56852 310.597 5.30769C310.667 5.30769 310.739 5.30769 310.809 5.30769C310.972 5.70709 311.042 6.11735 311.021 6.53846C303.248 6.74215 295.471 6.896 287.692 7C287.753 7.34391 287.683 7.6516 287.48 7.92308C287.48 6.89743 287.48 5.8718 287.48 4.84615Z" fill="#FADF46"/>
<path fill-rule="evenodd" clip-rule="evenodd" d="M286.207 4.53846C286.207 5.35897 286.207 6.17949 286.207 7C282.18 7.12471 278.15 7.22726 274.118 7.30769C274.178 7.60226 274.108 7.85866 273.906 8.07692C273.906 7.10257 273.906 6.1282 273.906 5.15385C274.07 5.05046 274.21 4.92226 274.33 4.76923C278.29 4.695 282.25 4.61808 286.207 4.53846Z" fill="#FAE048"/>
<path fill-rule="evenodd" clip-rule="evenodd" d="M268.392 5C268.392 5.76923 268.392 6.53846 268.392 7.30769C264.167 7.48762 259.926 7.59018 255.667 7.61538C255.729 7.95929 255.659 8.26698 255.455 8.53846C255.455 7.41026 255.455 6.28205 255.455 5.15385C259.417 5.08363 263.376 4.98106 267.332 4.84615C267.694 4.88129 268.046 4.93257 268.392 5Z" fill="#FAE048"/>
<path fill-rule="evenodd" clip-rule="evenodd" d="M310.809 5.30769C310.94 5.32472 311.046 5.376 311.127 5.46154C311.233 6.22906 311.269 6.99829 311.233 7.76923C311.032 7.98749 310.962 8.24389 311.021 8.53846C303.246 8.73108 295.471 8.88492 287.692 9C287.751 8.70543 287.681 8.44903 287.48 8.23077C287.48 8.1282 287.48 8.02565 287.48 7.92308C287.683 7.6516 287.753 7.34391 287.692 7C295.471 6.896 303.248 6.74215 311.021 6.53846C311.042 6.11735 310.972 5.70709 310.809 5.30769Z" fill="#EFD13A"/>
<path fill-rule="evenodd" clip-rule="evenodd" d="M316.323 6.84615C320.635 7.05128 324.949 7.05128 329.26 6.84615C329.523 7.10989 329.665 7.41758 329.684 7.76923C329.684 7.92308 329.684 8.07692 329.684 8.23077C325.298 8.28482 320.915 8.38738 316.535 8.53846C316.194 8.49186 315.91 8.38931 315.687 8.23077C315.68 7.9104 315.823 7.62835 316.111 7.38462C316.041 7.33334 315.969 7.28205 315.899 7.23077C316.255 7.15632 316.395 7.02812 316.323 6.84615Z" fill="#ECCC37"/>
<path fill-rule="evenodd" clip-rule="evenodd" d="M286.207 7C286.207 7.46154 286.207 7.92308 286.207 8.38462C282.137 8.3574 278.108 8.45997 274.118 8.69231C274.048 8.69231 273.976 8.69231 273.906 8.69231C273.906 8.48718 273.906 8.28205 273.906 8.07692C274.108 7.85866 274.178 7.60226 274.118 7.30769C278.15 7.22726 282.18 7.12471 286.207 7Z" fill="#F1D33B"/>
<path opacity="0.964" fill-rule="evenodd" clip-rule="evenodd" d="M311.233 7.76923C311.233 8.38462 311.233 9 311.233 9.61538C310.87 9.79345 310.446 9.89602 309.961 9.92308C309.193 9.78235 308.52 9.73108 307.946 9.76923C304.614 10.0592 301.467 10.1618 298.508 10.0769C298.567 10.3715 298.497 10.6279 298.296 10.8462C298.296 10.282 298.296 9.71795 298.296 9.15385C296.599 9.15385 294.903 9.15385 293.206 9.15385C293.206 10.282 293.206 11.4103 293.206 12.5385C293.089 11.7191 292.913 10.8986 292.676 10.0769C291.14 10.1662 289.477 10.2688 287.692 10.3846C287.743 10.186 287.671 10.0322 287.48 9.92308C287.48 9.35897 287.48 8.79488 287.48 8.23077C287.681 8.44903 287.751 8.70543 287.692 9C295.471 8.88492 303.246 8.73108 311.021 8.53846C310.962 8.24389 311.032 7.98749 311.233 7.76923Z" fill="#E2C22D"/>
<path opacity="0.01" fill-rule="evenodd" clip-rule="evenodd" d="M49.9458 8.07692C49.8043 8.17949 49.8043 8.17949 49.9458 8.07692V8.07692Z" fill="#257A8E"/>
<path opacity="0.997" fill-rule="evenodd" clip-rule="evenodd" d="M3.71147 5.15385C3.99425 12.5897 3.99425 20.0257 3.71147 27.4615C3.44505 27.4675 3.23297 27.3906 3.07522 27.2308C3.02316 27.0677 3.02316 26.8882 3.07522 26.6923C2.54177 25.8895 2.0469 25.146 1.59064 24.4615C1.66133 24.4103 1.73203 24.3589 1.80272 24.3077C1.37822 23.3252 0.954051 22.3509 0.530216 21.3846C0.565223 21.2128 0.635919 21.0332 0.7423 20.8462C0.498259 19.7934 0.286176 18.742 0.106049 17.6923C0.212163 15.9869 0.212163 14.3459 0.106049 12.7692C0.551743 12.5026 0.622439 12.195 0.318132 11.8462C0.613661 11.109 0.896441 10.3654 1.16647 9.61539C1.5303 7.94388 2.37863 6.45669 3.71147 5.15385Z" fill="#87D1BF"/>
<path fill-rule="evenodd" clip-rule="evenodd" d="M268.392 7.30769C268.392 8.17949 268.392 9.05128 268.392 9.92308C264.117 10.1138 259.805 10.2676 255.455 10.3846C255.455 9.76923 255.455 9.15385 255.455 8.53846C255.659 8.26698 255.729 7.95929 255.667 7.61538C259.926 7.59018 264.167 7.48761 268.392 7.30769Z" fill="#EBCC35"/>
<path fill-rule="evenodd" clip-rule="evenodd" d="M286.207 8.38462C286.207 8.84615 286.207 9.30769 286.207 9.76923C282.178 9.79255 278.148 9.84385 274.118 9.92308C274.118 9.51282 274.118 9.10257 274.118 8.69231C278.108 8.45997 282.137 8.3574 286.207 8.38462Z" fill="#E7C631"/>
<path fill-rule="evenodd" clip-rule="evenodd" d="M329.684 7.76923C330.017 8.18698 330.229 8.64852 330.321 9.15385C330.183 9.34232 329.935 9.44488 329.578 9.46154C328.734 9.54283 327.886 9.59411 327.033 9.61538C325.981 9.58442 325.063 9.53314 324.276 9.46154C321.093 9.74072 318.158 9.84328 315.475 9.76923C315.33 9.65497 315.188 9.5524 315.051 9.46154C315.263 9.05128 315.475 8.64103 315.687 8.23077C315.909 8.38931 316.194 8.49186 316.535 8.53846C320.915 8.38738 325.298 8.28482 329.684 8.23077C329.684 8.07692 329.684 7.92308 329.684 7.76923Z" fill="#E0C02B"/>
<path opacity="0.996" fill-rule="evenodd" clip-rule="evenodd" d="M39.9778 7.61539C41.8986 9.06014 43.6659 10.5986 45.2799 12.2308C45.2199 12.3522 45.1138 12.4547 44.9618 12.5385C44.9177 16.2752 44.8116 19.9675 44.6436 23.6154C44.2451 23.6318 44.1745 23.5549 44.4316 23.3846C44.3162 23.2743 44.1747 23.1974 44.0074 23.1538C43.3737 22.7862 42.8081 22.2732 42.3107 21.6154C41.5184 20.8891 40.7407 20.1711 39.9778 19.4615C39.9072 19.3589 39.8363 19.2565 39.7657 19.1538C39.8192 15.4934 39.8192 11.9293 39.7657 8.46154C40.1691 8.24711 40.2397 7.96506 39.9778 7.61539Z" fill="#60ACA8"/>
<path fill-rule="evenodd" clip-rule="evenodd" d="M330.321 9.15385C330.584 9.41758 330.726 9.72528 330.745 10.0769C328.236 10.3169 325.691 10.522 323.11 10.6923C322.97 10.5541 322.83 10.4002 322.686 10.2308C322.361 10.7298 322.079 11.2427 321.837 11.7692C320.957 11.8718 320.109 11.9744 319.292 12.0769C319.178 12.0677 319.106 12.0164 319.08 11.9231C319.92 11.7959 320.768 11.719 321.625 11.6923C321.413 11.641 321.201 11.5897 320.989 11.5385C318.673 11.5554 316.412 11.4272 314.202 11.1538C314.219 10.5584 314.503 9.99428 315.051 9.46154C315.188 9.5524 315.331 9.65497 315.475 9.76923C318.158 9.84328 321.093 9.74072 324.276 9.46154C325.063 9.53314 325.981 9.58442 327.033 9.61538C327.886 9.59411 328.734 9.54283 329.578 9.46154C329.935 9.44488 330.183 9.34232 330.321 9.15385Z" fill="#D5B422"/>
<path fill-rule="evenodd" clip-rule="evenodd" d="M311.233 9.61538C311.233 10.1282 311.233 10.641 311.233 11.1538C306.845 11.2546 302.531 11.152 298.296 10.8462C298.497 10.6279 298.567 10.3715 298.508 10.0769C301.467 10.1618 304.614 10.0592 307.946 9.76923C308.52 9.73108 309.193 9.78235 309.961 9.92308C310.446 9.89601 310.87 9.79345 311.233 9.61538Z" fill="#D5B521"/>
<path fill-rule="evenodd" clip-rule="evenodd" d="M273.906 8.69231C273.976 8.69231 274.048 8.69231 274.118 8.69231C274.118 9.10257 274.118 9.51282 274.118 9.92308C278.148 9.84385 282.178 9.79255 286.207 9.76923C286.207 10.4359 286.207 11.1026 286.207 11.7692C282.146 11.8182 278.116 11.8695 274.118 11.9231C274.176 11.6771 274.104 11.4719 273.906 11.3077C273.87 10.4636 273.87 9.59186 273.906 8.69231Z" fill="#D8B724"/>
<path fill-rule="evenodd" clip-rule="evenodd" d="M268.392 9.92308C268.392 10.5897 268.392 11.2564 268.392 11.9231C264.246 12.1526 260.004 12.3065 255.667 12.3846C255.718 12.186 255.646 12.0322 255.455 11.9231C255.425 11.458 255.425 10.9452 255.455 10.3846C259.805 10.2676 264.117 10.1138 268.392 9.92308Z" fill="#D8B724"/>
<path fill-rule="evenodd" clip-rule="evenodd" d="M60.3379 6.69231C62.7448 8.74663 65.0777 10.8492 67.3366 13C65.0938 14.6006 62.7961 16.1903 60.4439 17.7692C60.467 17.9645 60.4316 18.1183 60.3379 18.2308C59.9169 18.1755 59.7756 18.0474 59.9137 17.8462C59.5184 17.4326 59.0942 17.048 58.6412 16.6923C57.0308 14.9425 55.3342 13.1476 53.5512 11.3077C55.7439 9.71715 58.0062 8.17869 60.3379 6.69231Z" fill="#D4B422"/>
<path opacity="0.994" fill-rule="evenodd" clip-rule="evenodd" d="M330.745 10.0769C331.672 11.9406 332.52 13.8381 333.29 15.7692C326.219 15.8205 319.15 15.7692 312.081 15.6154C312.37 15.2809 312.442 14.9475 312.293 14.6154C312.675 14.5666 312.745 14.464 312.506 14.3077C313.244 13.202 313.808 12.1507 314.202 11.1538C316.412 11.4272 318.673 11.5554 320.989 11.5385C321.201 11.5897 321.413 11.641 321.625 11.6923C320.768 11.719 319.92 11.7959 319.08 11.9231C319.106 12.0164 319.178 12.0677 319.292 12.0769C319.918 12.3508 320.52 12.6585 321.095 13C321.12 13.5881 320.944 14.1522 320.565 14.6923C320.635 14.7436 320.707 14.7949 320.777 14.8462C321.398 14.4798 322.071 14.1721 322.792 13.9231C323.407 14.211 324.009 14.5187 324.594 14.8462C324.787 14.4158 324.645 14.0312 324.17 13.6923C324.41 13.536 324.34 13.4334 323.958 13.3846C324.543 12.8893 325.18 12.4278 325.867 12C325.018 11.9487 324.17 11.8974 323.322 11.8462C323.561 11.6898 323.491 11.5873 323.11 11.5385C323.245 11.2759 323.245 10.9938 323.11 10.6923C325.691 10.522 328.236 10.3169 330.745 10.0769Z" fill="#C9A817"/>
<path opacity="0.01" fill-rule="evenodd" clip-rule="evenodd" d="M31.9186 11.7692C31.7772 11.8718 31.7772 11.8718 31.9186 11.7692V11.7692Z" fill="#257A8E"/>
<path opacity="0.977" fill-rule="evenodd" clip-rule="evenodd" d="M287.48 9.92308C287.671 10.0322 287.743 10.186 287.692 10.3846C289.477 10.2688 291.14 10.1662 292.676 10.0769C292.913 10.8986 293.089 11.7191 293.206 12.5385C297.378 12.5128 301.549 12.5385 305.719 12.6154C307.273 13.641 308.83 14.6667 310.385 15.6923C302.75 15.7692 295.115 15.7949 287.48 15.7692C287.431 13.7668 287.431 11.818 287.48 9.92308Z" fill="#C9A916"/>
<path fill-rule="evenodd" clip-rule="evenodd" d="M286.207 2.53846C286.419 6.92232 286.489 11.3326 286.419 15.7692C282.248 15.7692 278.078 15.7692 273.906 15.7692C273.906 14.282 273.906 12.7949 273.906 11.3077C274.104 11.4719 274.176 11.6771 274.118 11.9231C278.116 11.8695 282.146 11.8182 286.207 11.7692C286.207 11.1026 286.207 10.4359 286.207 9.76923C286.207 9.30769 286.207 8.84615 286.207 8.38462C286.207 7.92308 286.207 7.46154 286.207 7C286.207 6.17949 286.207 5.35897 286.207 4.53846C286.207 3.8718 286.207 3.20512 286.207 2.53846Z" fill="#C6A81E"/>
<path fill-rule="evenodd" clip-rule="evenodd" d="M255.455 11.9231C255.646 12.0322 255.718 12.186 255.667 12.3846C260.004 12.3065 264.246 12.1526 268.392 11.9231C268.392 13.2051 268.392 14.4872 268.392 15.7692C264.08 15.7692 259.767 15.7692 255.455 15.7692C255.455 14.4872 255.455 13.2051 255.455 11.9231Z" fill="#C9A815"/>
<path opacity="0.997" fill-rule="evenodd" clip-rule="evenodd" d="M67.3366 13C69.3506 14.7957 71.2593 16.6418 73.0629 18.5385C72.7885 18.4169 72.541 18.2631 72.3206 18.0769C71.3942 18.6974 70.5459 19.364 69.7756 20.0769C69.705 20.0257 69.6341 19.9743 69.5635 19.9231C68.277 21.0874 66.8276 22.1129 65.2158 23C64.086 22.0765 63.0256 21.1022 62.0345 20.0769C61.3858 19.5034 60.8201 18.888 60.3379 18.2308C60.4316 18.1183 60.467 17.9645 60.4439 17.7692C62.7961 16.1903 65.0938 14.6006 67.3366 13Z" fill="#E2C12E"/>
<path opacity="0.994" fill-rule="evenodd" clip-rule="evenodd" d="M45.2799 12.2308C47.4304 14.1182 49.4806 16.0669 51.4303 18.0769C51.2772 18.1412 51.1712 18.2437 51.1122 18.3846C50.9707 21.8205 50.9707 25.2565 51.1122 28.6923C51.4303 28.9231 51.7485 29.1538 52.0666 29.3846C52.0182 29.446 51.9474 29.4715 51.8545 29.4615C49.1292 27.6154 46.7257 25.6666 44.6436 23.6154C44.8116 19.9675 44.9177 16.2752 44.9618 12.5385C45.1138 12.4547 45.2199 12.3522 45.2799 12.2308Z" fill="#56A3A1"/>
<path opacity="0.99" fill-rule="evenodd" clip-rule="evenodd" d="M255.455 16.2308C259.767 16.2308 264.08 16.2308 268.392 16.2308C268.392 17.8205 268.392 19.4103 268.392 21C270.231 21 272.068 21 273.906 21C273.906 19.4103 273.906 17.8205 273.906 16.2308C278.078 16.2308 282.248 16.2308 286.419 16.2308C286.455 18.898 286.419 21.5646 286.313 24.2308C283.944 25.6411 281.577 27.0512 279.208 28.4615C273.27 28.5642 267.332 28.5642 261.393 28.4615C259.357 27.2028 257.413 25.9977 255.561 24.8462C255.455 21.9748 255.419 19.1031 255.455 16.2308Z" fill="#29809C"/>
<path opacity="0.985" fill-rule="evenodd" clip-rule="evenodd" d="M287.48 16.2308C295.397 16.2308 303.316 16.2308 311.233 16.2308C311.303 19.1045 311.233 21.9762 311.021 24.8462C308.938 26.0885 306.817 27.2935 304.658 28.4615C298.438 28.5642 292.215 28.5642 285.995 28.4615C285.077 27.8974 284.156 27.3334 283.238 26.7692C284.551 25.9962 285.893 25.2526 287.268 24.5385C287.48 22.7978 287.55 21.0543 287.48 19.3077C289.67 19.3077 291.863 19.3077 294.054 19.3077C294.054 19.9743 294.054 20.6411 294.054 21.3077C295.327 21.3077 296.599 21.3077 297.872 21.3077C297.872 20.0257 297.872 18.7435 297.872 17.4615C294.408 17.4615 290.943 17.4615 287.48 17.4615C287.48 17.0512 287.48 16.6411 287.48 16.2308Z" fill="#29809C"/>
<path opacity="0.987" fill-rule="evenodd" clip-rule="evenodd" d="M312.081 16.2308C319.222 16.2051 326.361 16.2308 333.502 16.3077C336.978 23.5643 340.371 30.8465 343.682 38.1538C343.612 38.2308 343.54 38.3077 343.47 38.3846C339.582 38.5897 335.693 38.5897 331.805 38.3846C331.001 37.0686 330.365 35.7609 329.896 34.4615C327.262 28.9805 324.611 23.5702 321.943 18.2308C320.331 21.6097 318.741 24.9943 317.171 28.3846C313.424 28.5897 309.678 28.5897 305.931 28.3846C307.905 27.2097 309.884 26.0303 311.869 24.8462C312.081 21.9762 312.151 19.1045 312.081 16.2308Z" fill="#29809C"/>
<path opacity="0.01" fill-rule="evenodd" clip-rule="evenodd" d="M58.6412 16.6923C58.4997 16.7949 58.4997 16.7949 58.6412 16.6923V16.6923Z" fill="#257A8E"/>
<path opacity="0.01" fill-rule="evenodd" clip-rule="evenodd" d="M39.9778 19.4615C39.8363 19.5642 39.8363 19.5642 39.9778 19.4615V19.4615Z" fill="#257A8E"/>
<path opacity="0.01" fill-rule="evenodd" clip-rule="evenodd" d="M62.0345 20.0769C61.8931 20.1795 61.8931 20.1795 62.0345 20.0769V20.0769Z" fill="#257A8E"/>
<path fill-rule="evenodd" clip-rule="evenodd" d="M73.0629 18.5385C74.7721 19.9414 76.3273 21.4286 77.7287 23C75.1926 24.4292 72.8597 26.0191 70.73 27.7692C69.6628 27.1505 68.673 26.4582 67.7608 25.6923C67.8314 25.6411 67.9023 25.5897 67.9729 25.5385C67.3602 24.9809 66.7239 24.4425 66.0641 23.9231C65.9935 23.7692 65.852 23.6666 65.64 23.6154C65.4607 23.4352 65.3195 23.23 65.2158 23C66.8276 22.1129 68.277 21.0874 69.5635 19.9231C69.6341 19.9743 69.705 20.0257 69.7756 20.0769C70.5459 19.364 71.3942 18.6974 72.3206 18.0769C72.541 18.2631 72.7885 18.4169 73.0629 18.5385Z" fill="#EDCE38"/>
<path opacity="0.01" fill-rule="evenodd" clip-rule="evenodd" d="M42.3107 21.6154C42.1693 21.718 42.1693 21.718 42.3107 21.6154V21.6154Z" fill="#257A8E"/>
<path fill-rule="evenodd" clip-rule="evenodd" d="M51.4303 18.0769C53.9929 20.6528 56.4671 23.2682 58.8533 25.9231C58.923 28.2578 58.8524 30.5655 58.6412 32.8462C57.5235 32.7366 56.4985 32.3777 55.566 31.7692C55.0413 31.6046 54.5111 31.3225 53.9753 30.9231C53.7632 30.8718 53.5512 30.8205 53.3391 30.7692C52.7416 30.3977 52.2466 29.9617 51.8545 29.4615C51.9474 29.4715 52.0182 29.446 52.0666 29.3846C51.7484 29.1538 51.4303 28.9231 51.1122 28.6923C50.9707 25.2565 50.9707 21.8205 51.1122 18.3846C51.1712 18.2437 51.2772 18.1412 51.4303 18.0769Z" fill="#4C999C"/>
<path opacity="0.997" fill-rule="evenodd" clip-rule="evenodd" d="M11.3465 22.5385C12.3791 24.4988 13.7929 26.2937 15.5882 27.9231C15.4996 28.0342 15.3582 28.1111 15.164 28.1538C15.4444 29.7692 15.4444 31.3846 15.164 33C14.6474 33.2334 14.1879 33.1822 13.7854 32.8462C13.3613 32.8462 12.9371 32.8462 12.5129 32.8462C12.0625 32.7343 11.603 32.6317 11.1344 32.5385C10.9653 32.4682 10.8946 32.3655 10.9223 32.2308C11.0637 29 11.2051 25.7692 11.3465 22.5385Z" fill="#63AFAA"/>
<path opacity="0.01" fill-rule="evenodd" clip-rule="evenodd" d="M44.0074 23.1538C43.8659 23.2565 43.8659 23.2565 44.0074 23.1538V23.1538Z" fill="#257A8E"/>
<path opacity="0.01" fill-rule="evenodd" clip-rule="evenodd" d="M65.64 23.6154C65.852 23.6666 65.9935 23.7692 66.0641 23.9231C65.7814 23.9231 65.64 23.8205 65.64 23.6154Z" fill="#257A8E"/>
<path fill-rule="evenodd" clip-rule="evenodd" d="M77.7287 23C79.7122 24.7472 81.6209 26.5422 83.455 28.3846C81.812 29.7069 80.186 30.8608 78.5771 31.8462C78.695 31.9051 78.7656 31.982 78.7892 32.0769C78.0095 31.884 77.2673 31.6275 76.5623 31.3077C76.4917 31.3589 76.4208 31.4103 76.3502 31.4615C75.2754 30.828 74.1797 30.2126 73.0629 29.6154C72.2793 28.996 71.5015 28.3806 70.73 27.7692C72.8597 26.0191 75.1926 24.4292 77.7287 23Z" fill="#F8DC44"/>
<path opacity="0.991" fill-rule="evenodd" clip-rule="evenodd" d="M15.5882 27.9231C16.3598 28.5345 17.1375 29.1498 17.9211 29.7692C17.7109 30.8174 17.6402 31.8943 17.709 33C19.3742 32.95 21.0002 33.0012 22.5869 33.1538C20.625 33.1049 18.6809 33.1562 16.7546 33.3077C16.2196 33.0665 15.6894 32.964 15.164 33C15.4444 31.3846 15.4444 29.7692 15.164 28.1538C15.3582 28.1111 15.4996 28.0342 15.5882 27.9231Z" fill="#56A3A2"/>
<path fill-rule="evenodd" clip-rule="evenodd" d="M58.8533 25.9231C61.4097 27.8802 64.1668 29.6749 67.1245 31.3077C67.3286 31.8089 67.3992 32.2962 67.3366 32.7692C66.9097 33.0448 66.9097 33.25 67.3366 33.3846C66.8295 33.4909 66.8295 33.6448 67.3366 33.8462C67.0386 34.0414 66.6853 34.1183 66.2762 34.0769C65.9958 34.0508 65.7483 34.102 65.5339 34.2308C64.5942 34.1105 63.6398 33.9054 62.6708 33.6154C62.0943 33.6838 61.5287 33.5814 60.9741 33.3077C60.7162 33.3849 60.4687 33.4362 60.2318 33.4615C59.7147 33.2289 59.1845 33.0237 58.6412 32.8462C58.8524 30.5655 58.923 28.2578 58.8533 25.9231Z" fill="#3E8C94"/>
<path opacity="0.01" fill-rule="evenodd" clip-rule="evenodd" d="M73.0629 29.6154C72.9214 29.718 72.9214 29.718 73.0629 29.6154V29.6154Z" fill="#257A8E"/>
<path fill-rule="evenodd" clip-rule="evenodd" d="M17.9211 29.7692C20.1901 31.2832 22.8058 32.3858 25.7682 33.0769C25.3582 33.1155 24.9695 33.1925 24.6017 33.3077C23.9534 33.1614 23.2819 33.1102 22.5869 33.1538C21.0002 33.0012 19.3742 32.95 17.709 33C17.6402 31.8943 17.7109 30.8174 17.9211 29.7692Z" fill="#4B989B"/>
<path fill-rule="evenodd" clip-rule="evenodd" d="M83.455 28.3846C84.716 29.5809 86.2712 30.5297 88.1208 31.2308C90.8294 31.4012 93.5158 31.5294 96.18 31.6154C94.1994 31.5898 92.2198 31.6154 90.2417 31.6923C88.9861 32.528 87.7136 33.3229 86.4242 34.0769C85.3644 33.9552 84.3394 33.7502 83.3489 33.4615C83.2783 33.5128 83.2075 33.5642 83.1369 33.6154C82.3163 33.1902 81.3973 32.9338 80.3798 32.8462C79.8523 32.5666 79.3221 32.3103 78.7891 32.0769C78.7656 31.982 78.695 31.9051 78.5771 31.8462C80.1859 30.8608 81.812 29.7069 83.455 28.3846Z" fill="#F7E451"/>
<path opacity="0.919" fill-rule="evenodd" clip-rule="evenodd" d="M255.243 31.3077C257.154 31.2822 259.063 31.3077 260.969 31.3846C262.986 31.8688 263.728 32.8688 263.196 34.3846C262.776 35.0471 262.14 35.56 261.287 35.9231C260.263 36.0086 259.166 36.0086 258 35.9231C258 36.6923 258 37.4615 258 38.2308C257.082 38.2308 256.161 38.2308 255.243 38.2308C255.243 35.9231 255.243 33.6154 255.243 31.3077ZM258 32.6923C258.92 32.5917 259.733 32.7455 260.439 33.1538C260.604 33.578 260.498 33.9626 260.121 34.3077C259.436 34.4922 258.73 34.5691 258 34.5385C258 33.9231 258 33.3077 258 32.6923Z" fill="#141010"/>
<path opacity="0.962" fill-rule="evenodd" clip-rule="evenodd" d="M275.179 38.2308C274.33 38.2308 273.482 38.2308 272.634 38.2308C272.634 37.3077 272.634 36.3846 272.634 35.4615C271.503 35.4615 270.371 35.4615 269.24 35.4615C269.24 36.3846 269.24 37.3077 269.24 38.2308C268.392 38.2308 267.544 38.2308 266.695 38.2308C266.483 35.9502 266.413 33.6425 266.483 31.3077C267.402 31.3077 268.322 31.3077 269.24 31.3077C269.24 32.1795 269.24 33.0512 269.24 33.9231C270.371 33.9231 271.503 33.9231 272.634 33.9231C272.634 33.0512 272.634 32.1795 272.634 31.3077C273.552 31.3077 274.473 31.3077 275.391 31.3077C275.461 33.6425 275.391 35.9502 275.179 38.2308Z" fill="#151110"/>
<path opacity="0.943" fill-rule="evenodd" clip-rule="evenodd" d="M283.026 31.3077C284.256 31.2174 285.422 31.32 286.525 31.6154C287.601 33.7751 288.695 35.9289 289.813 38.0769C288.905 38.2295 287.984 38.2809 287.055 38.2308C287.043 37.1792 286.3 36.7691 284.829 37C284.228 37.0257 283.626 37.0512 283.026 37.0769C282.697 37.4854 282.449 37.9212 282.284 38.3846C281.418 38.2615 280.534 38.1846 279.633 38.1538C280.833 35.8792 281.963 33.5972 283.026 31.3077ZM284.51 33.4615C284.776 33.4734 284.952 33.576 285.041 33.7692C285.276 34.0611 285.312 34.3431 285.147 34.6154C285.495 34.836 285.707 35.118 285.783 35.4615C285.077 35.6666 284.368 35.6666 283.662 35.4615C284.031 34.8115 284.315 34.1448 284.51 33.4615Z" fill="#151212"/>
<path opacity="0.925" fill-rule="evenodd" clip-rule="evenodd" d="M300.417 34.6923C300.175 34.7551 299.963 34.8577 299.781 35C300.762 35.9882 301.611 37.0394 302.326 38.1538C301.329 38.2812 300.338 38.2557 299.356 38.0769C298.86 37.1032 298.048 36.334 296.917 35.7692C296.705 35.9743 296.493 35.9743 296.281 35.7692C296.175 36.5882 296.139 37.4086 296.175 38.2308C295.257 38.2308 294.336 38.2308 293.418 38.2308C293.418 35.9231 293.418 33.6154 293.418 31.3077C295.329 31.2822 297.238 31.3077 299.144 31.3846C300.444 31.628 301.081 32.2434 301.053 33.2308C301.053 33.7695 300.841 34.2568 300.417 34.6923ZM296.175 32.6923C296.676 32.6672 297.17 32.6928 297.66 32.7692C297.959 32.8258 298.171 32.954 298.296 33.1538C298.3 33.4772 298.23 33.8105 298.084 34.1538C297.462 34.3005 296.826 34.3774 296.175 34.3846C296.175 33.8205 296.175 33.2565 296.175 32.6923Z" fill="#151212"/>
<path opacity="0.923" fill-rule="evenodd" clip-rule="evenodd" d="M305.507 31.3077C306.646 31.2572 307.778 31.3085 308.9 31.4615C309.553 32.5502 310.224 33.6271 310.915 34.6923C311.617 33.5965 312.289 32.4938 312.93 31.3846C314.058 31.3078 315.191 31.2822 316.323 31.3077C316.323 33.6154 316.323 35.9231 316.323 38.2308C315.475 38.2308 314.626 38.2308 313.778 38.2308C313.814 36.7428 313.778 35.2555 313.672 33.7692C313.051 34.7886 312.45 35.8142 311.869 36.8462C311.233 37.0512 310.597 37.0512 309.961 36.8462C309.345 35.8931 308.743 34.8674 308.158 33.7692C308.052 35.2555 308.016 36.7428 308.052 38.2308C307.203 38.2308 306.355 38.2308 305.507 38.2308C305.507 35.9231 305.507 33.6154 305.507 31.3077Z" fill="#141111"/>
<path opacity="0.944" fill-rule="evenodd" clip-rule="evenodd" d="M323.534 31.3077C324.696 31.2183 325.79 31.3209 326.821 31.6154C327.896 33.7751 328.991 35.9289 330.108 38.0769C329.201 38.2295 328.28 38.2809 327.351 38.2308C327.339 37.1792 326.596 36.7691 325.125 37C324.524 37.0257 323.922 37.0512 323.322 37.0769C323.131 37.4142 322.919 37.7474 322.686 38.0769C321.793 38.1838 320.908 38.2863 320.035 38.3846C320.431 37.2635 320.961 36.1611 321.625 35.0769C321.555 35.0257 321.483 34.9743 321.413 34.9231C322.16 33.8018 322.866 32.5968 323.534 31.3077ZM325.018 33.3077C325.358 33.8129 325.64 34.3514 325.867 34.9231C325.837 35.0418 325.765 35.1445 325.655 35.2308C325.827 35.2782 325.967 35.3551 326.079 35.4615C325.373 35.6666 324.664 35.6666 323.958 35.4615C324.312 34.74 324.666 34.022 325.018 33.3077Z" fill="#151212"/>
<path fill-rule="evenodd" clip-rule="evenodd" d="M96.18 31.6154C99.3986 31.5648 102.58 31.616 105.724 31.7692C103.178 31.7435 100.633 31.7692 98.0888 31.8462C98.3715 31.8974 98.6544 31.9488 98.9371 32C98.5551 32.0488 98.4845 32.1514 98.725 32.3077C98.4775 32.3846 98.3009 32.5128 98.1948 32.6923C97.9897 32.1685 97.601 32.0915 97.0284 32.4615C97.8767 32.5642 97.8767 32.6666 97.0284 32.7692C96.8818 32.9334 96.7758 33.1129 96.7102 33.3077C96.6396 33.2051 96.5688 33.1026 96.4981 33C96.2903 33.2278 96.0428 33.4331 95.7559 33.6154C95.857 33.7658 95.9983 33.894 96.18 34C95.2918 34.0271 94.4435 34.104 93.635 34.2308C91.2234 34.272 88.8197 34.2206 86.4242 34.0769C87.7136 33.3229 88.9861 32.528 90.2417 31.6923C92.2198 31.6154 94.1994 31.5898 96.18 31.6154Z" fill="#F9ED5C"/>
<path fill-rule="evenodd" clip-rule="evenodd" d="M67.1245 31.3077C70.4163 33.2189 74.1629 34.3728 78.365 34.7692C77.4346 34.804 76.5154 34.8809 75.6079 35C75.1131 34.8974 74.6181 34.7949 74.1233 34.6923C73.5946 34.7077 73.0644 34.7589 72.5327 34.8462C70.8491 34.6432 69.1525 34.4382 67.4426 34.2308C66.9831 34.4348 66.5943 34.3835 66.2762 34.0769C66.6853 34.1183 67.0386 34.0414 67.3366 33.8462C66.8295 33.6448 66.8295 33.4909 67.3366 33.3846C66.9097 33.25 66.9097 33.0448 67.3366 32.7692C67.3992 32.2962 67.3285 31.8089 67.1245 31.3077Z" fill="#318290"/>
<path fill-rule="evenodd" clip-rule="evenodd" d="M105.724 31.7692C105.936 31.7692 106.148 31.7692 106.36 31.7692C107.953 31.8719 109.579 31.9743 111.238 32.0769C110.959 32.3563 110.641 32.6128 110.284 32.8462C109.93 32.7169 109.895 32.7939 110.178 33.0769C109.93 33.2565 109.683 33.4359 109.435 33.6154C109.347 33.5451 109.241 33.4937 109.117 33.4615C108.936 33.6188 108.724 33.7469 108.481 33.8462C106.111 33.8723 103.778 33.9492 101.482 34.0769C100.553 34.1419 99.6344 34.2445 98.725 34.3846C96.9946 34.3812 95.298 34.33 93.635 34.2308C94.4435 34.104 95.2918 34.0271 96.18 34C95.9983 33.894 95.857 33.7659 95.7558 33.6154C96.0428 33.4331 96.2903 33.2279 96.4981 33C96.5688 33.1026 96.6396 33.2051 96.7102 33.3077C96.7758 33.1129 96.8818 32.9334 97.0284 32.7692C97.8767 32.6666 97.8767 32.5642 97.0284 32.4615C97.601 32.0915 97.9897 32.1685 98.1948 32.6923C98.3009 32.5128 98.4775 32.3846 98.725 32.3077C98.4845 32.1514 98.5551 32.0488 98.9371 32C98.6544 31.9488 98.3715 31.8974 98.0888 31.8462C100.633 31.7692 103.178 31.7435 105.724 31.7692Z" fill="#F7F164"/>
<path fill-rule="evenodd" clip-rule="evenodd" d="M106.36 31.7692C109.756 31.7646 113.149 31.8158 116.54 31.9231C116.305 32.0446 116.022 32.1215 115.692 32.1538C115.907 32.3152 115.943 32.4948 115.798 32.6923C115.727 32.5897 115.656 32.4872 115.586 32.3846C115.469 33.0288 115.045 33.3878 114.313 33.4615C114.214 33.6272 114.249 33.7811 114.419 33.9231C113.617 34.0605 112.769 34.0605 111.874 33.9231C111.044 33.9948 110.231 34.0974 109.435 34.2308C106.797 34.1872 104.146 34.1358 101.482 34.0769C103.778 33.9492 106.111 33.8723 108.481 33.8462C108.724 33.7469 108.936 33.6188 109.117 33.4615C109.241 33.4937 109.347 33.5451 109.435 33.6154C109.683 33.4358 109.93 33.2565 110.178 33.0769C109.895 32.7938 109.93 32.7169 110.284 32.8462C110.641 32.6128 110.959 32.3563 111.238 32.0769C109.579 31.9743 107.953 31.8718 106.36 31.7692Z" fill="#EBE15A"/>
<path fill-rule="evenodd" clip-rule="evenodd" d="M116.54 31.9231C121.559 32.0428 126.578 32.1452 131.598 32.2308C131.832 32.4757 131.69 32.6038 131.174 32.6154C130.953 32.9105 130.706 33.1925 130.432 33.4615C130.219 33.4615 130.007 33.4615 129.795 33.4615C129.697 33.5529 129.661 33.6555 129.689 33.7692C126.934 33.8966 124.177 33.8966 121.418 33.7692C120.774 33.8555 120.138 33.958 119.509 34.0769C118.664 34.0266 117.816 33.9754 116.964 33.9231C116.257 33.9231 115.55 33.9231 114.843 33.9231C114.653 34.0778 114.512 34.0778 114.419 33.9231C114.249 33.7811 114.214 33.6272 114.313 33.4615C115.045 33.3878 115.469 33.0288 115.586 32.3846C115.656 32.4872 115.727 32.5897 115.798 32.6923C115.943 32.4948 115.907 32.3152 115.692 32.1538C116.022 32.1215 116.305 32.0446 116.54 31.9231Z" fill="#E4D046"/>
<path opacity="0.974" fill-rule="evenodd" clip-rule="evenodd" d="M131.598 32.2308C141.775 32.5322 151.955 32.8143 162.138 33.0769C161.791 33.1694 161.438 33.2463 161.078 33.3077C159.552 33.1163 158.032 33.1675 156.518 33.4615C154.432 33.3949 152.347 33.3437 150.261 33.3077C149.319 33.3015 148.4 33.4042 147.504 33.6154C145.415 33.5229 143.33 33.4715 141.248 33.4615C140.204 33.4854 139.179 33.588 138.173 33.7692C135.344 33.6669 132.517 33.6669 129.689 33.7692C129.661 33.6555 129.697 33.5529 129.795 33.4615C130.007 33.4615 130.219 33.4615 130.432 33.4615C130.706 33.1925 130.953 32.9105 131.174 32.6154C131.69 32.6038 131.832 32.4757 131.598 32.2308Z" fill="#D6B82F"/>
<path opacity="0.01" fill-rule="evenodd" clip-rule="evenodd" d="M114.843 33.9231C115.55 33.9231 116.257 33.9231 116.964 33.9231C116.457 34.0323 115.927 34.1349 115.374 34.2308C115.232 34.0257 115.091 34.0257 114.949 34.2308C114.851 34.1394 114.816 34.0368 114.843 33.9231Z" fill="#478287"/>
<path opacity="0.01" fill-rule="evenodd" clip-rule="evenodd" d="M300.417 34.6923C300.699 34.7949 300.699 34.7949 300.417 34.6923V34.6923Z" fill="#257A8E"/>
<path opacity="0.027" fill-rule="evenodd" clip-rule="evenodd" d="M266.695 38.2308C267.544 38.2308 268.392 38.2308 269.24 38.2308C269.098 38.3488 268.92 38.4514 268.71 38.5385C268.144 38.5385 267.58 38.5385 267.014 38.5385C266.861 38.4548 266.755 38.3522 266.695 38.2308Z" fill="#3B7A8C"/>
<path opacity="0.027" fill-rule="evenodd" clip-rule="evenodd" d="M272.634 38.2308C273.482 38.2308 274.33 38.2308 275.179 38.2308C275.119 38.3522 275.013 38.4548 274.861 38.5385C274.294 38.5385 273.73 38.5385 273.164 38.5385C272.954 38.4514 272.776 38.3488 272.634 38.2308Z" fill="#3B7A8C"/>
</svg>
