<svg width="176" height="24" viewBox="0 0 176 24" fill="none" xmlns="http://www.w3.org/2000/svg">
<path opacity="0.994" fill-rule="evenodd" clip-rule="evenodd" d="M30.8705 4.01538C29.6775 4.90721 28.5201 5.83029 27.3982 6.78461C26.7879 6.1416 26.173 5.49544 25.5536 4.84615C25.3533 4.53734 25.0639 4.30657 24.6855 4.15384C24.7217 4.12308 24.7579 4.0923 24.794 4.06154C24.5361 3.81105 24.2467 3.59567 23.926 3.41538C23.9621 3.38462 23.9983 3.35384 24.0345 3.32307C23.6153 3.01237 23.1813 2.72007 22.7324 2.44615C22.4804 2.2464 22.191 2.09255 21.8643 1.98461C21.8643 1.86154 21.7919 1.8 21.6473 1.8C20.663 1.19228 19.5418 0.853824 18.2835 0.784613C18.096 0.792928 17.9153 0.823697 17.741 0.876921C17.6112 0.845011 17.6112 0.798857 17.741 0.738459C20.4689 0.381565 23.1816 0.443103 25.8791 0.923075C28.0327 1.3919 29.6964 2.42267 30.8705 4.01538Z" fill="#C8A818"/>
<path opacity="0.999" fill-rule="evenodd" clip-rule="evenodd" d="M12.9667 0.69231C13.0022 1.57062 12.966 2.43215 12.8582 3.27693C12.0822 2.61654 11.2142 2.06269 10.254 1.61539C9.53216 1.21693 8.73643 0.970783 7.86679 0.876925C7.45464 0.786148 7.0206 0.755379 6.5647 0.784617C7.673 0.559869 8.81233 0.467562 9.9827 0.507694C10.9903 0.491946 11.985 0.553485 12.9667 0.69231Z" fill="#7FCABA"/>
<path fill-rule="evenodd" clip-rule="evenodd" d="M6.56468 0.784618C7.02059 0.75538 7.45462 0.786149 7.86678 0.876926C7.65153 2.22733 7.5792 3.61195 7.64976 5.03077C6.72262 5.49964 6.10773 6.17656 5.80513 7.06154C5.69691 5.07752 5.66073 3.07752 5.69662 1.06154C5.55653 1.08345 5.44803 1.05268 5.37109 0.969234C5.7586 0.863798 6.15646 0.802259 6.56468 0.784618Z" fill="#62AFA9"/>
<path opacity="0.993" fill-rule="evenodd" clip-rule="evenodd" d="M5.37113 0.969231C5.44806 1.05268 5.55657 1.08344 5.69665 1.06154C5.66077 3.07752 5.69695 5.07751 5.80516 7.06154C5.38936 8.15244 5.20851 9.27554 5.26262 10.4308C5.19138 11.4976 5.37222 12.5283 5.80516 13.5231C5.73282 15.4615 5.66049 17.4 5.58814 19.3385C5.24415 19.2678 4.91863 19.1755 4.61157 19.0615C4.72572 19.0753 4.83423 19.06 4.9371 19.0154C4.79261 13.0615 4.79261 7.10769 4.9371 1.15385C5.06421 1.07588 5.20889 1.01434 5.37113 0.969231Z" fill="#6CB8B0"/>
<path opacity="0.998" fill-rule="evenodd" clip-rule="evenodd" d="M7.86681 0.876923C8.73644 0.970781 9.53218 1.21693 10.254 1.61538C10.1099 2.04179 10.0376 2.50333 10.037 3C10.0425 3.51494 10.1148 4.00724 10.254 4.47692C9.35541 4.46249 8.48734 4.64711 7.64979 5.03077C7.57923 3.61194 7.65156 2.22733 7.86681 0.876923Z" fill="#54A2A1"/>
<path opacity="0.999" fill-rule="evenodd" clip-rule="evenodd" d="M4.93713 1.15385C4.79264 7.10769 4.79264 13.0615 4.93713 19.0154C4.83427 19.06 4.72576 19.0753 4.61161 19.0615C4.35843 18.8769 4.10523 18.6923 3.85205 18.5077C3.96012 12.8527 3.99629 7.19119 3.96056 1.52308C4.23762 1.33074 4.56315 1.20766 4.93713 1.15385Z" fill="#73BEB3"/>
<path opacity="0.995" fill-rule="evenodd" clip-rule="evenodd" d="M12.9667 0.692307C14.3501 0.858975 15.6522 1.22821 16.873 1.8C16.6948 3.60987 16.5863 5.42524 16.5474 7.24615C16.5113 7.15384 16.4389 7.0923 16.3304 7.06154C15.5046 6.2579 14.745 5.39635 14.0517 4.47692C13.6971 4.05163 13.2992 3.65164 12.8582 3.27692C12.966 2.43215 13.0021 1.57061 12.9667 0.692307Z" fill="#74BFB3"/>
<path opacity="0.999" fill-rule="evenodd" clip-rule="evenodd" d="M3.96053 1.52308C3.99626 7.1912 3.9601 12.8527 3.85202 18.5077C3.34086 18.2261 2.90683 17.8877 2.54993 17.4923C2.65843 17.4923 2.76694 17.4923 2.87545 17.4923C2.87629 12.3564 2.87629 7.24875 2.87545 2.16923C3.17455 1.885 3.53625 1.66962 3.96053 1.52308Z" fill="#79C4B6"/>
<path opacity="0.989" fill-rule="evenodd" clip-rule="evenodd" d="M45.1936 1.52308C46.6403 1.52308 48.0872 1.52308 49.5339 1.52308C50.4618 5.04941 51.4565 8.5571 52.5179 12.0462C53.5207 8.51279 54.4793 5.0051 55.3934 1.52308C56.8401 1.52308 58.2869 1.52308 59.7337 1.52308C59.7337 6.72308 59.7337 11.9231 59.7337 17.1231C58.721 17.1231 57.7082 17.1231 56.6955 17.1231C56.7307 15.5006 56.6946 13.8852 56.5869 12.2769C56.6658 12.1478 56.7201 12.0093 56.7497 11.8615C56.8221 10.4462 56.8221 9.03077 56.7497 7.61539C55.8816 10.7538 55.0136 13.8923 54.1455 17.0308C53.0966 17.0923 52.0477 17.1538 50.9988 17.2154C50.035 13.9346 49.0946 10.6115 48.1776 7.24616C48.2293 10.5372 48.2836 13.8294 48.3403 17.1231C47.2914 17.1231 46.2426 17.1231 45.1936 17.1231C45.1936 11.9231 45.1936 6.72308 45.1936 1.52308Z" fill="#29809C"/>
<path opacity="0.993" fill-rule="evenodd" clip-rule="evenodd" d="M65.9186 1.52308C67.9079 1.52308 69.8973 1.52308 71.8866 1.52308C71.8866 2.60001 71.8866 3.67692 71.8866 4.75385C70.1139 4.73847 68.3416 4.75386 66.5697 4.8C65.7684 5.01985 65.2078 5.466 64.8878 6.13846C64.6927 6.61741 64.6023 7.10972 64.6165 7.61539C67.0398 7.61539 69.4632 7.61539 71.8866 7.61539C71.8866 8.69231 71.8866 9.7692 71.8866 10.8462C69.427 10.8462 66.9676 10.8462 64.508 10.8462C64.5171 11.671 64.7523 12.4402 65.2133 13.1538C65.7246 13.617 66.3576 13.8478 67.1122 13.8462C68.7033 13.8923 70.2947 13.9077 71.8866 13.8923C71.8866 14.9693 71.8866 16.0461 71.8866 17.1231C69.8541 17.1126 67.8286 17.1126 65.8101 17.1231C63.8433 16.6643 62.5412 15.6335 61.9038 14.0308C61.5966 13.5236 61.3977 12.9852 61.307 12.4154C60.8082 9.92576 60.9167 7.49503 61.6325 5.12308C62.0696 3.614 63.1004 2.52169 64.725 1.84616C65.1324 1.72534 65.5303 1.61766 65.9186 1.52308Z" fill="#29809C"/>
<path opacity="0.993" fill-rule="evenodd" clip-rule="evenodd" d="M73.6227 1.52308C76.0102 1.5077 78.3974 1.52308 80.7842 1.56923C83.1842 2.0109 84.649 3.25705 85.1788 5.30769C86.0384 8.21959 85.966 11.1119 84.9618 13.9846C84.3326 15.3505 83.2295 16.3197 81.6523 16.8923C81.1148 16.9842 80.5723 17.0457 80.0247 17.0769C77.891 17.1231 75.7569 17.1385 73.6227 17.1231C73.6227 11.9231 73.6227 6.72307 73.6227 1.52308ZM76.7694 4.75385C77.9274 4.73848 79.0849 4.75387 80.2417 4.8C80.4481 4.81839 80.6108 4.89531 80.73 5.03077C80.8402 4.92608 80.9126 4.95685 80.947 5.12308C80.9831 5.09231 81.0193 5.06154 81.0555 5.03077C81.5061 5.30432 81.7955 5.67355 81.9235 6.13846C82.3845 8.10114 82.4206 10.0704 82.0321 12.0462C81.8199 13.1778 81.0061 13.7778 79.5906 13.8462C78.6509 13.8923 77.7105 13.9076 76.7694 13.8923C76.7694 10.8462 76.7694 7.8 76.7694 4.75385Z" fill="#29809C"/>
<path opacity="0.984" fill-rule="evenodd" clip-rule="evenodd" d="M86.6436 1.52308C87.7287 1.52308 88.8138 1.52308 89.8989 1.52308C89.8808 5.09244 89.8989 8.66168 89.9531 12.2308C90.0902 13.1602 90.687 13.7295 91.7435 13.9385C93.1174 13.9846 94.4919 14 95.8668 13.9846C95.8668 15.0307 95.8668 16.077 95.8668 17.1231C94.528 17.1385 93.1898 17.1231 91.852 17.0769C89.9605 17.1572 88.568 16.4958 87.6745 15.0923C87.3282 14.5416 87.0931 13.9878 86.9692 13.4308C86.7982 12.5469 86.7078 11.6547 86.6979 10.7538C86.6436 7.67708 86.6255 4.60016 86.6436 1.52308Z" fill="#29809C"/>
<path opacity="0.983" fill-rule="evenodd" clip-rule="evenodd" d="M96.7349 1.52308C97.8199 1.52308 98.905 1.52308 99.9901 1.52308C99.9901 6.72308 99.9901 11.9231 99.9901 17.1231C98.905 17.1231 97.8199 17.1231 96.7349 17.1231C96.7349 11.9231 96.7349 6.72308 96.7349 1.52308Z" fill="#28819D"/>
<path opacity="0.992" fill-rule="evenodd" clip-rule="evenodd" d="M102.052 1.52307C103.345 1.4934 104.628 1.52416 105.904 1.61538C107.423 4.81538 108.942 8.01538 110.461 11.2154C110.534 10.2 110.534 9.18461 110.461 8.16923C110.436 7.92969 110.382 7.69892 110.298 7.47692C110.383 5.49823 110.419 3.51362 110.407 1.52307C111.492 1.52307 112.577 1.52307 113.662 1.52307C113.681 6.75393 113.662 11.9847 113.608 17.2154C112.441 17.1243 111.265 17.0935 110.081 17.1231C108.52 13.7753 106.91 10.3599 105.253 6.87692C105.233 10.2922 105.251 13.7076 105.307 17.1231C104.222 17.1231 103.137 17.1231 102.052 17.1231C102.052 11.9231 102.052 6.72307 102.052 1.52307Z" fill="#29809C"/>
<path opacity="0.992" fill-rule="evenodd" clip-rule="evenodd" d="M119.739 1.52308C121.692 1.52308 123.645 1.52308 125.598 1.52308C125.598 2.60001 125.598 3.67692 125.598 4.75385C123.71 4.71156 121.828 4.75772 119.956 4.89231C119.264 5.23577 118.812 5.74346 118.599 6.41539C118.485 6.81262 118.395 7.21263 118.328 7.61539C120.751 7.61539 123.175 7.61539 125.598 7.61539C125.598 8.69231 125.598 9.7692 125.598 10.8462C123.175 10.8462 120.751 10.8462 118.328 10.8462C118.33 11.6241 118.529 12.3626 118.925 13.0615C119.449 13.5845 120.118 13.846 120.932 13.8462C122.487 13.8923 124.042 13.9077 125.598 13.8923C125.598 14.9693 125.598 16.0461 125.598 17.1231C123.898 17.1385 122.197 17.1231 120.498 17.0769C119.293 17.0829 118.243 16.806 117.351 16.2462C116.951 15.8136 116.517 15.4136 116.049 15.0462C116.099 15.0079 116.135 14.9618 116.158 14.9077C115.811 14.2956 115.485 13.7263 115.181 13.2C115.238 13.1482 115.275 13.0866 115.29 13.0154C114.492 10.0527 114.655 7.14499 115.778 4.29231C116.522 2.76857 117.843 1.84549 119.739 1.52308Z" fill="#29809C"/>
<path opacity="0.01" fill-rule="evenodd" clip-rule="evenodd" d="M21.6473 1.8C21.792 1.8 21.8644 1.86154 21.8644 1.98462C21.7558 1.95385 21.6835 1.89231 21.6473 1.8Z" fill="#257A8E"/>
<path fill-rule="evenodd" clip-rule="evenodd" d="M157.933 2.44615C154.881 2.53883 151.807 2.61575 148.71 2.67692C148.156 2.66642 147.65 2.74334 147.191 2.90769C147.155 2.90769 147.118 2.90769 147.083 2.90769C147.083 2.44615 147.083 1.98462 147.083 1.52308C150.338 1.5077 153.593 1.52308 156.848 1.56923C157.264 1.81553 157.626 2.10783 157.933 2.44615Z" fill="#F9E955"/>
<path fill-rule="evenodd" clip-rule="evenodd" d="M146.432 1.52308C146.432 1.92307 146.432 2.32308 146.432 2.72308C144.407 2.77085 142.381 2.817 140.355 2.86154C140.293 2.95336 140.222 3.03028 140.138 3.09231C140.172 2.57599 140.135 2.0683 140.03 1.56923C142.163 1.52308 144.297 1.5077 146.432 1.52308Z" fill="#F9E956"/>
<path opacity="0.999" fill-rule="evenodd" clip-rule="evenodd" d="M2.8755 2.16923C2.87633 7.24874 2.87633 12.3564 2.8755 17.4923C2.76699 17.4923 2.65848 17.4923 2.54997 17.4923C2.34613 17.5022 2.30997 17.456 2.44147 17.3538C2.23251 17.0699 2.05166 16.7777 1.89893 16.4769C2.0436 12.0154 2.0436 7.55384 1.89893 3.0923C2.1472 2.72715 2.47273 2.41946 2.8755 2.16923Z" fill="#7FCABA"/>
<path fill-rule="evenodd" clip-rule="evenodd" d="M137.317 3C137.14 2.95954 136.96 2.92878 136.774 2.90769C134.751 2.98864 132.725 3.05018 130.698 3.09231C130.732 2.57599 130.695 2.0683 130.589 1.56923C132.831 1.52308 135.074 1.5077 137.317 1.52308C137.317 2.01538 137.317 2.5077 137.317 3Z" fill="#F9EA56"/>
<path fill-rule="evenodd" clip-rule="evenodd" d="M168.025 3C166.066 3.04379 164.113 3.1361 162.165 3.27692C162.118 3.28296 162.082 3.26758 162.057 3.23077C162.345 2.83001 162.598 2.36847 162.816 1.84615C162.712 1.74023 162.749 1.64792 162.925 1.56923C164.48 1.52309 166.035 1.5077 167.591 1.52308C167.735 2.01538 167.88 2.50769 168.025 3Z" fill="#F9E550"/>
<path opacity="0.01" fill-rule="evenodd" clip-rule="evenodd" d="M22.7337 2.44615C22.6596 2.50769 22.6596 2.50769 22.7337 2.44615V2.44615Z" fill="#257A8E"/>
<path fill-rule="evenodd" clip-rule="evenodd" d="M157.933 2.44615C158.324 2.62432 158.65 2.87048 158.91 3.18461C155.186 3.34111 151.28 3.43342 147.191 3.46154C147.191 3.27692 147.191 3.09231 147.191 2.90769C147.65 2.74334 148.156 2.66642 148.71 2.67692C151.807 2.61575 154.881 2.53883 157.933 2.44615Z" fill="#FAE44D"/>
<path fill-rule="evenodd" clip-rule="evenodd" d="M10.254 1.61539C11.2142 2.06269 12.0823 2.61654 12.8582 3.27693C13.2993 3.65164 13.6972 4.05164 14.0518 4.47693C12.6734 4.50925 11.4074 4.50925 10.254 4.47693C10.1149 4.00725 10.0425 3.51494 10.037 3C10.0376 2.50333 10.11 2.04179 10.254 1.61539Z" fill="#408F95"/>
<path opacity="0.998" fill-rule="evenodd" clip-rule="evenodd" d="M16.873 1.8C18.2697 2.5264 19.4633 3.44948 20.4538 4.56923C20.5878 4.77904 20.5516 4.94827 20.3453 5.07693C20.3726 7.15758 20.3726 9.29603 20.3453 11.4923C20.167 11.264 19.9318 11.0794 19.64 10.9385C19.2589 10.2758 18.7526 9.69111 18.1208 9.18462C17.595 8.4698 17.0343 7.83903 16.439 7.29231C16.4637 7.2555 16.4999 7.24012 16.5475 7.24616C16.5863 5.42525 16.6948 3.60987 16.873 1.8Z" fill="#68B4AD"/>
<path fill-rule="evenodd" clip-rule="evenodd" d="M168.025 3C168.232 3.34299 168.376 3.71222 168.459 4.10769C166.253 4.23077 164.046 4.23077 161.84 4.10769C161.965 3.83522 162.073 3.5583 162.165 3.27692C164.113 3.1361 166.066 3.04379 168.025 3Z" fill="#F8DC44"/>
<path fill-rule="evenodd" clip-rule="evenodd" d="M147.083 2.90769C147.118 2.90769 147.155 2.90769 147.191 2.90769C147.191 3.09231 147.191 3.27692 147.191 3.46154C151.28 3.43342 155.186 3.34111 158.91 3.18462C158.946 3.18462 158.983 3.18462 159.019 3.18462C159.102 3.42426 159.138 3.67041 159.127 3.92308C155.15 4.04529 151.171 4.1376 147.191 4.2C147.223 4.40634 147.187 4.59096 147.083 4.75385C147.083 4.13846 147.083 3.52308 147.083 2.90769Z" fill="#FADF46"/>
<path fill-rule="evenodd" clip-rule="evenodd" d="M146.432 2.72308C146.432 3.21538 146.432 3.70769 146.432 4.2C144.371 4.27482 142.309 4.33636 140.247 4.38461C140.277 4.56136 140.241 4.7152 140.138 4.84615C140.138 4.26154 140.138 3.67692 140.138 3.09231C140.222 3.03028 140.293 2.95336 140.355 2.86154C142.381 2.817 144.407 2.77085 146.432 2.72308Z" fill="#FAE048"/>
<path fill-rule="evenodd" clip-rule="evenodd" d="M137.317 3C137.317 3.46154 137.317 3.92308 137.317 4.38461C135.155 4.49257 132.985 4.55411 130.806 4.56923C130.838 4.77557 130.802 4.96019 130.698 5.12308C130.698 4.44616 130.698 3.76923 130.698 3.09231C132.725 3.05018 134.751 2.98864 136.774 2.90769C136.96 2.92878 137.14 2.95954 137.317 3Z" fill="#FAE048"/>
<path fill-rule="evenodd" clip-rule="evenodd" d="M159.019 3.18462C159.086 3.19483 159.14 3.2256 159.181 3.27692C159.236 3.73744 159.254 4.19898 159.236 4.66154C159.132 4.7925 159.097 4.94634 159.127 5.12308C155.149 5.23865 151.171 5.33095 147.191 5.4C147.222 5.22326 147.186 5.06942 147.083 4.93846C147.083 4.87692 147.083 4.81539 147.083 4.75385C147.187 4.59096 147.223 4.40635 147.191 4.2C151.171 4.1376 155.15 4.04529 159.127 3.92308C159.138 3.67041 159.102 3.42426 159.019 3.18462Z" fill="#EFD13A"/>
<path fill-rule="evenodd" clip-rule="evenodd" d="M161.84 4.10769C164.046 4.23076 166.253 4.23076 168.459 4.10769C168.593 4.26593 168.666 4.45055 168.676 4.66154C168.676 4.75384 168.676 4.84615 168.676 4.93846C166.432 4.97089 164.189 5.03243 161.948 5.12307C161.773 5.09511 161.628 5.03358 161.514 4.93846C161.511 4.74624 161.584 4.57701 161.731 4.43077C161.695 4.4 161.658 4.36922 161.623 4.33846C161.805 4.29379 161.877 4.21687 161.84 4.10769Z" fill="#ECCC37"/>
<path fill-rule="evenodd" clip-rule="evenodd" d="M146.432 4.2C146.432 4.47692 146.432 4.75384 146.432 5.03077C144.349 5.01444 142.288 5.07598 140.247 5.21538C140.211 5.21538 140.174 5.21538 140.138 5.21538C140.138 5.09231 140.138 4.96922 140.138 4.84615C140.241 4.71519 140.277 4.56135 140.247 4.38461C142.309 4.33635 144.371 4.27482 146.432 4.2Z" fill="#F1D33B"/>
<path opacity="0.964" fill-rule="evenodd" clip-rule="evenodd" d="M159.236 4.66154C159.236 5.03077 159.236 5.4 159.236 5.76923C159.05 5.87607 158.833 5.93761 158.584 5.95385C158.192 5.86941 157.848 5.83865 157.554 5.86154C155.849 6.03554 154.239 6.09707 152.725 6.04615C152.755 6.22289 152.72 6.37673 152.617 6.50769C152.617 6.16923 152.617 5.83077 152.617 5.49231C151.748 5.49231 150.88 5.49231 150.012 5.49231C150.012 6.16923 150.012 6.84616 150.012 7.52308C149.953 7.03147 149.863 6.53917 149.741 6.04615C148.955 6.09975 148.105 6.16129 147.191 6.23077C147.217 6.1116 147.18 6.01929 147.083 5.95385C147.083 5.61538 147.083 5.27692 147.083 4.93846C147.186 5.06942 147.222 5.22326 147.191 5.4C151.171 5.33095 155.149 5.23864 159.127 5.12308C159.097 4.94633 159.132 4.79249 159.236 4.66154Z" fill="#E2C22D"/>
<path opacity="0.01" fill-rule="evenodd" clip-rule="evenodd" d="M25.555 4.84615C25.4808 4.90769 25.4808 4.90769 25.555 4.84615V4.84615Z" fill="#257A8E"/>
<path opacity="0.997" fill-rule="evenodd" clip-rule="evenodd" d="M1.89884 3.09231C2.04351 7.55384 2.04351 12.0154 1.89884 16.4769C1.76253 16.4805 1.65402 16.4344 1.57331 16.3385C1.54667 16.2406 1.54667 16.1329 1.57331 16.0154C1.30038 15.5337 1.04719 15.0876 0.813755 14.6769C0.849924 14.6462 0.886094 14.6154 0.922263 14.5846C0.705077 13.9951 0.488061 13.4106 0.271215 12.8308C0.289126 12.7277 0.325296 12.6199 0.379723 12.5077C0.254865 11.876 0.146357 11.2452 0.0541992 10.6154C0.10849 9.59215 0.10849 8.60756 0.0541992 7.66154C0.282229 7.50159 0.318399 7.31697 0.162707 7.10769C0.313908 6.66537 0.458586 6.21922 0.596739 5.76923C0.782888 4.76633 1.21692 3.87402 1.89884 3.09231Z" fill="#87D1BF"/>
<path fill-rule="evenodd" clip-rule="evenodd" d="M137.317 4.38461C137.317 4.90769 137.317 5.43076 137.317 5.95384C135.129 6.06825 132.923 6.16056 130.698 6.23077C130.698 5.86154 130.698 5.49231 130.698 5.12307C130.802 4.96019 130.838 4.77557 130.806 4.56923C132.985 4.55411 135.155 4.49257 137.317 4.38461Z" fill="#EBCC35"/>
<path fill-rule="evenodd" clip-rule="evenodd" d="M146.432 5.03077C146.432 5.30769 146.432 5.58461 146.432 5.86154C144.37 5.87553 142.308 5.9063 140.247 5.95384C140.247 5.70769 140.247 5.46154 140.247 5.21538C142.288 5.07598 144.349 5.01444 146.432 5.03077Z" fill="#E7C631"/>
<path fill-rule="evenodd" clip-rule="evenodd" d="M168.676 4.66154C168.846 4.91219 168.955 5.18911 169.001 5.49231C168.931 5.60539 168.804 5.66692 168.622 5.67692C168.19 5.7257 167.756 5.75646 167.319 5.76923C166.781 5.75065 166.311 5.71988 165.909 5.67692C164.28 5.84443 162.778 5.90596 161.406 5.86154C161.332 5.79298 161.259 5.73144 161.189 5.67692C161.297 5.43076 161.406 5.18462 161.514 4.93846C161.628 5.03358 161.774 5.09512 161.948 5.12308C164.189 5.03243 166.432 4.97089 168.676 4.93846C168.676 4.84615 168.676 4.75384 168.676 4.66154Z" fill="#E0C02B"/>
<path opacity="0.996" fill-rule="evenodd" clip-rule="evenodd" d="M20.4537 4.56923C21.4365 5.43608 22.3407 6.35916 23.1664 7.33846C23.1357 7.4113 23.0815 7.47284 23.0037 7.52308C22.9811 9.76514 22.9268 11.9805 22.8409 14.1692C22.637 14.1791 22.6009 14.133 22.7324 14.0308C22.6734 13.9646 22.601 13.9184 22.5154 13.8923C22.1912 13.6717 21.9018 13.3639 21.6473 12.9692C21.2419 12.5334 20.844 12.1026 20.4537 11.6769C20.4176 11.6154 20.3813 11.5539 20.3452 11.4923C20.3726 9.29603 20.3726 7.15757 20.3452 5.07692C20.5516 4.94826 20.5877 4.77904 20.4537 4.56923Z" fill="#60ACA8"/>
<path fill-rule="evenodd" clip-rule="evenodd" d="M169.001 5.49231C169.136 5.65055 169.208 5.83517 169.218 6.04616C167.935 6.19016 166.633 6.31323 165.312 6.41539C165.24 6.33246 165.169 6.24015 165.095 6.13846C164.929 6.43791 164.785 6.7456 164.661 7.06154C164.211 7.12311 163.777 7.18465 163.359 7.24616C163.3 7.24062 163.263 7.20985 163.25 7.15385C163.68 7.07756 164.114 7.0314 164.552 7.01539C164.444 6.98462 164.335 6.95385 164.227 6.92308C163.042 6.93322 161.885 6.8563 160.755 6.69231C160.763 6.33502 160.909 5.99657 161.189 5.67692C161.259 5.73144 161.332 5.79298 161.406 5.86154C162.778 5.90597 164.28 5.84444 165.909 5.67692C166.311 5.71988 166.781 5.75065 167.319 5.76923C167.756 5.75647 168.19 5.7257 168.621 5.67692C168.804 5.66693 168.931 5.6054 169.001 5.49231Z" fill="#D5B422"/>
<path fill-rule="evenodd" clip-rule="evenodd" d="M159.235 5.76923C159.235 6.07692 159.235 6.38462 159.235 6.69231C156.99 6.75276 154.783 6.69123 152.616 6.5077C152.72 6.37674 152.755 6.2229 152.725 6.04616C154.239 6.09707 155.849 6.03554 157.554 5.86154C157.848 5.83865 158.192 5.86942 158.584 5.95385C158.833 5.93761 159.05 5.87607 159.235 5.76923Z" fill="#D5B521"/>
<path fill-rule="evenodd" clip-rule="evenodd" d="M140.138 5.21539C140.174 5.21539 140.211 5.21539 140.247 5.21539C140.247 5.46154 140.247 5.70769 140.247 5.95385C142.308 5.90631 144.37 5.87553 146.432 5.86154C146.432 6.26154 146.432 6.66154 146.432 7.06154C144.354 7.09091 142.292 7.12169 140.247 7.15385C140.276 7.00625 140.239 6.88316 140.138 6.78462C140.12 6.27819 140.12 5.75512 140.138 5.21539Z" fill="#D8B724"/>
<path fill-rule="evenodd" clip-rule="evenodd" d="M137.317 5.95385C137.317 6.35385 137.317 6.75385 137.317 7.15385C135.196 7.29158 133.025 7.38389 130.806 7.43077C130.832 7.3116 130.796 7.2193 130.698 7.15385C130.683 6.87479 130.683 6.5671 130.698 6.23077C132.923 6.16056 135.129 6.06826 137.317 5.95385Z" fill="#D8B724"/>
<path fill-rule="evenodd" clip-rule="evenodd" d="M30.8706 4.01538C32.102 5.24797 33.2956 6.50951 34.4513 7.8C33.3039 8.76037 32.1283 9.71418 30.9248 10.6615C30.9367 10.7787 30.9185 10.871 30.8706 10.9385C30.6552 10.9053 30.5829 10.8284 30.6536 10.7077C30.4513 10.4596 30.2343 10.2288 30.0025 10.0154C29.1786 8.96548 28.3105 7.88856 27.3983 6.78461C28.5202 5.83029 29.6776 4.90721 30.8706 4.01538Z" fill="#D4B422"/>
<path opacity="0.994" fill-rule="evenodd" clip-rule="evenodd" d="M169.218 6.04615C169.692 7.16438 170.126 8.30285 170.52 9.46153C166.903 9.49227 163.286 9.46153 159.67 9.36923C159.817 9.16852 159.854 8.96852 159.778 8.76923C159.973 8.73994 160.009 8.6784 159.887 8.58461C160.264 7.9212 160.553 7.29043 160.755 6.6923C161.885 6.8563 163.042 6.93322 164.227 6.92307C164.335 6.95384 164.444 6.98461 164.552 7.01538C164.114 7.0314 163.68 7.07755 163.25 7.15384C163.263 7.20985 163.3 7.24061 163.359 7.24615C163.679 7.4105 163.987 7.59512 164.281 7.8C164.294 8.15283 164.204 8.49129 164.01 8.81538C164.046 8.84615 164.083 8.87692 164.118 8.90769C164.436 8.68788 164.78 8.50326 165.149 8.35384C165.464 8.52659 165.772 8.7112 166.072 8.90769C166.17 8.64946 166.098 8.41869 165.855 8.21538C165.977 8.1216 165.941 8.06005 165.746 8.03077C166.045 7.73359 166.371 7.45667 166.723 7.2C166.289 7.16923 165.855 7.13845 165.42 7.10769C165.543 7.0139 165.507 6.95236 165.312 6.92307C165.381 6.76553 165.381 6.5963 165.312 6.41538C166.633 6.31322 167.935 6.19015 169.218 6.04615Z" fill="#C9A817"/>
<path opacity="0.01" fill-rule="evenodd" clip-rule="evenodd" d="M16.3318 7.06154C16.2576 7.12308 16.2576 7.12308 16.3318 7.06154V7.06154Z" fill="#257A8E"/>
<path opacity="0.977" fill-rule="evenodd" clip-rule="evenodd" d="M147.083 5.95385C147.18 6.0193 147.217 6.1116 147.191 6.23077C148.105 6.16129 148.955 6.09975 149.741 6.04616C149.863 6.53917 149.953 7.03148 150.012 7.52308C152.147 7.5077 154.281 7.52308 156.414 7.56923C157.21 8.18462 158.006 8.8 158.801 9.41539C154.895 9.46154 150.989 9.47696 147.083 9.46154C147.058 8.26006 147.058 7.09083 147.083 5.95385Z" fill="#C9A916"/>
<path fill-rule="evenodd" clip-rule="evenodd" d="M146.432 1.52308C146.54 4.1534 146.576 6.79955 146.54 9.46154C144.406 9.46154 142.272 9.46154 140.138 9.46154C140.138 8.56923 140.138 7.67693 140.138 6.78462C140.239 6.88317 140.276 7.00625 140.247 7.15385C142.292 7.12169 144.354 7.09091 146.432 7.06154C146.432 6.66154 146.432 6.26154 146.432 5.86154C146.432 5.58462 146.432 5.30769 146.432 5.03077C146.432 4.75385 146.432 4.47693 146.432 4.2C146.432 3.7077 146.432 3.21538 146.432 2.72308C146.432 2.32308 146.432 1.92308 146.432 1.52308Z" fill="#C6A81E"/>
<path fill-rule="evenodd" clip-rule="evenodd" d="M130.698 7.15385C130.796 7.21929 130.832 7.3116 130.806 7.43077C133.025 7.38389 135.196 7.29158 137.317 7.15385C137.317 7.92307 137.317 8.69231 137.317 9.46154C135.111 9.46154 132.904 9.46154 130.698 9.46154C130.698 8.69231 130.698 7.92307 130.698 7.15385Z" fill="#C9A815"/>
<path opacity="0.997" fill-rule="evenodd" clip-rule="evenodd" d="M34.4512 7.8C35.4816 8.87742 36.4582 9.98511 37.381 11.1231C37.2406 11.0502 37.1139 10.9578 37.0012 10.8462C36.5272 11.2184 36.0932 11.6184 35.6991 12.0462C35.663 12.0154 35.6267 11.9846 35.5906 11.9538C34.9324 12.6524 34.1908 13.2678 33.3662 13.8C32.7881 13.2459 32.2456 12.6613 31.7385 12.0462C31.4066 11.702 31.1172 11.3328 30.8705 10.9385C30.9184 10.871 30.9366 10.7787 30.9247 10.6615C32.1282 9.71419 33.3038 8.76037 34.4512 7.8Z" fill="#E2C12E"/>
<path opacity="0.994" fill-rule="evenodd" clip-rule="evenodd" d="M23.1665 7.33846C24.2667 8.47092 25.3157 9.64016 26.3132 10.8462C26.2349 10.8847 26.1806 10.9462 26.1504 11.0308C26.0781 13.0923 26.0781 15.1539 26.1504 17.2154C26.3132 17.3538 26.476 17.4923 26.6387 17.6308C26.614 17.6676 26.5777 17.6829 26.5302 17.6769C25.1359 16.5692 23.9062 15.4 22.8409 14.1692C22.9269 11.9805 22.9811 9.76514 23.0037 7.52308C23.0815 7.47284 23.1358 7.4113 23.1665 7.33846Z" fill="#56A3A1"/>
<path opacity="0.99" fill-rule="evenodd" clip-rule="evenodd" d="M130.698 9.73846C132.904 9.73846 135.111 9.73846 137.317 9.73846C137.317 10.6923 137.317 11.6462 137.317 12.6C138.258 12.6 139.197 12.6 140.138 12.6C140.138 11.6462 140.138 10.6923 140.138 9.73846C142.272 9.73846 144.406 9.73846 146.54 9.73846C146.558 11.3388 146.54 12.9388 146.486 14.5385C145.274 15.3846 144.063 16.2307 142.851 17.0769C139.813 17.1385 136.774 17.1385 133.736 17.0769C132.694 16.3217 131.699 15.5986 130.752 14.9077C130.698 13.1849 130.679 11.4618 130.698 9.73846Z" fill="#29809C"/>
<path opacity="0.985" fill-rule="evenodd" clip-rule="evenodd" d="M147.083 9.73846C151.133 9.73846 155.185 9.73846 159.236 9.73846C159.271 11.4627 159.236 13.1857 159.127 14.9077C158.061 15.6531 156.976 16.3761 155.872 17.0769C152.689 17.1385 149.506 17.1385 146.323 17.0769C145.853 16.7384 145.382 16.4 144.912 16.0615C145.584 15.5977 146.271 15.1516 146.974 14.7231C147.083 13.6787 147.118 12.6326 147.083 11.5846C148.204 11.5846 149.325 11.5846 150.446 11.5846C150.446 11.9846 150.446 12.3846 150.446 12.7846C151.097 12.7846 151.748 12.7846 152.4 12.7846C152.4 12.0154 152.4 11.2461 152.4 10.4769C150.628 10.4769 148.855 10.4769 147.083 10.4769C147.083 10.2307 147.083 9.98465 147.083 9.73846Z" fill="#29809C"/>
<path opacity="0.987" fill-rule="evenodd" clip-rule="evenodd" d="M159.67 9.73846C163.323 9.72305 166.975 9.73846 170.629 9.78462C172.407 14.1386 174.143 18.5079 175.837 22.8923C175.801 22.9385 175.765 22.9846 175.729 23.0308C173.74 23.1538 171.75 23.1538 169.761 23.0308C169.35 22.2412 169.024 21.4566 168.784 20.6769C167.437 17.3883 166.08 14.1421 164.715 10.9385C163.891 12.9658 163.077 14.9966 162.274 17.0308C160.356 17.1538 158.44 17.1538 156.523 17.0308C157.533 16.3258 158.545 15.6182 159.561 14.9077C159.67 13.1857 159.705 11.4627 159.67 9.73846Z" fill="#29809C"/>
<path opacity="0.01" fill-rule="evenodd" clip-rule="evenodd" d="M30.0039 10.0154C29.9297 10.077 29.9297 10.077 30.0039 10.0154V10.0154Z" fill="#257A8E"/>
<path opacity="0.01" fill-rule="evenodd" clip-rule="evenodd" d="M20.4552 11.6769C20.381 11.7385 20.381 11.7385 20.4552 11.6769V11.6769Z" fill="#257A8E"/>
<path opacity="0.01" fill-rule="evenodd" clip-rule="evenodd" d="M31.74 12.0462C31.6658 12.1077 31.6658 12.1077 31.74 12.0462V12.0462Z" fill="#257A8E"/>
<path fill-rule="evenodd" clip-rule="evenodd" d="M37.381 11.1231C38.2555 11.9648 39.0512 12.8572 39.7682 13.8C38.4706 14.6575 37.2771 15.6114 36.1874 16.6615C35.6414 16.2903 35.135 15.8749 34.6683 15.4154C34.7044 15.3846 34.7407 15.3538 34.7768 15.3231C34.4633 14.9886 34.1378 14.6655 33.8002 14.3538C33.7641 14.2615 33.6917 14.2 33.5832 14.1692C33.4915 14.0611 33.4193 13.938 33.3662 13.8C34.1909 13.2678 34.9324 12.6524 35.5906 11.9538C35.6268 11.9846 35.663 12.0154 35.6991 12.0462C36.0932 11.6184 36.5273 11.2184 37.0012 10.8462C37.114 10.9578 37.2406 11.0502 37.381 11.1231Z" fill="#EDCE38"/>
<path opacity="0.01" fill-rule="evenodd" clip-rule="evenodd" d="M21.6487 12.9692C21.5745 13.0308 21.5745 13.0308 21.6487 12.9692V12.9692Z" fill="#257A8E"/>
<path fill-rule="evenodd" clip-rule="evenodd" d="M26.3132 10.8462C27.6243 12.3917 28.8902 13.9609 30.111 15.5538C30.1467 16.9547 30.1106 18.3393 30.0025 19.7077C29.4307 19.642 28.9063 19.4266 28.4291 19.0615C28.1607 18.9628 27.8894 18.7935 27.6153 18.5538C27.5068 18.5231 27.3983 18.4923 27.2898 18.4615C26.9841 18.2386 26.7309 17.977 26.5303 17.6769C26.5778 17.6829 26.614 17.6676 26.6388 17.6308C26.476 17.4923 26.3132 17.3538 26.1505 17.2154C26.0781 15.1539 26.0781 13.0923 26.1505 11.0308C26.1806 10.9462 26.2349 10.8847 26.3132 10.8462Z" fill="#4C999C"/>
<path opacity="0.997" fill-rule="evenodd" clip-rule="evenodd" d="M5.80522 13.5231C6.33352 14.6993 7.0569 15.7762 7.97538 16.7538C7.93008 16.8205 7.85774 16.8666 7.75837 16.8923C7.90184 17.8615 7.90184 18.8308 7.75837 19.8C7.49407 19.94 7.25897 19.9093 7.05307 19.7077C6.83605 19.7077 6.61903 19.7077 6.40202 19.7077C6.17155 19.6406 5.93645 19.579 5.69672 19.5231C5.61018 19.4809 5.574 19.4193 5.58821 19.3385C5.66055 17.4 5.73288 15.4615 5.80522 13.5231Z" fill="#63AFAA"/>
<path opacity="0.01" fill-rule="evenodd" clip-rule="evenodd" d="M22.5168 13.8923C22.4426 13.9539 22.4426 13.9539 22.5168 13.8923V13.8923Z" fill="#257A8E"/>
<path opacity="0.01" fill-rule="evenodd" clip-rule="evenodd" d="M33.5833 14.1692C33.6918 14.2 33.7641 14.2615 33.8003 14.3539C33.6556 14.3539 33.5833 14.2923 33.5833 14.1692Z" fill="#257A8E"/>
<path fill-rule="evenodd" clip-rule="evenodd" d="M39.7681 13.8C40.7829 14.8483 41.7595 15.9253 42.6979 17.0308C41.8572 17.8242 41.0253 18.5165 40.2022 19.1077C40.2625 19.143 40.2986 19.1892 40.3107 19.2462C39.9118 19.1304 39.532 18.9765 39.1713 18.7846C39.1352 18.8154 39.099 18.8462 39.0628 18.8769C38.5129 18.4968 37.9524 18.1276 37.381 17.7692C36.98 17.3976 36.5821 17.0284 36.1874 16.6615C37.277 15.6114 38.4706 14.6575 39.7681 13.8Z" fill="#F8DC44"/>
<path opacity="0.991" fill-rule="evenodd" clip-rule="evenodd" d="M7.97532 16.7538C8.37011 17.1207 8.76798 17.4899 9.16891 17.8615C9.06135 18.4904 9.02519 19.1366 9.0604 19.8C9.91236 19.77 10.7442 19.8007 11.5561 19.8923C10.5523 19.863 9.55767 19.8937 8.57211 19.9846C8.29837 19.8399 8.0271 19.7784 7.7583 19.8C7.90177 18.8308 7.90177 17.8615 7.7583 16.8923C7.85767 16.8666 7.93001 16.8205 7.97532 16.7538Z" fill="#56A3A2"/>
<path fill-rule="evenodd" clip-rule="evenodd" d="M30.1109 15.5538C31.4189 16.7281 32.8295 17.805 34.3428 18.7846C34.4471 19.0854 34.4833 19.3777 34.4513 19.6615C34.2328 19.8269 34.2328 19.95 34.4513 20.0308C34.1918 20.0946 34.1918 20.1869 34.4513 20.3077C34.2988 20.4248 34.118 20.471 33.9087 20.4462C33.7653 20.4305 33.6387 20.4612 33.529 20.5385C33.0482 20.4663 32.5599 20.3432 32.0641 20.1692C31.7692 20.2103 31.4798 20.1488 31.196 19.9846C31.0641 20.031 30.9375 20.0617 30.8163 20.0769C30.5517 19.9374 30.2804 19.8142 30.0024 19.7077C30.1105 18.3393 30.1466 16.9547 30.1109 15.5538Z" fill="#3E8C94"/>
<path opacity="0.01" fill-rule="evenodd" clip-rule="evenodd" d="M37.3824 17.7692C37.3082 17.8308 37.3082 17.8308 37.3824 17.7692V17.7692Z" fill="#257A8E"/>
<path fill-rule="evenodd" clip-rule="evenodd" d="M9.1689 17.8615C10.3298 18.7699 11.6681 19.4315 13.1837 19.8462C12.9739 19.8693 12.7751 19.9155 12.5869 19.9846C12.2552 19.8968 11.9117 19.8661 11.5561 19.8923C10.7442 19.8007 9.91235 19.77 9.06039 19.8C9.02518 19.1366 9.06135 18.4904 9.1689 17.8615Z" fill="#4B989B"/>
<path fill-rule="evenodd" clip-rule="evenodd" d="M42.698 17.0308C43.3431 17.7486 44.1388 18.3178 45.0851 18.7385C46.4709 18.8407 47.8454 18.9176 49.2084 18.9692C48.1951 18.9539 47.1823 18.9692 46.1702 19.0154C45.5278 19.5168 44.8768 19.9938 44.2171 20.4462C43.6749 20.3731 43.1504 20.2501 42.6437 20.0769C42.6076 20.1077 42.5713 20.1385 42.5352 20.1692C42.1154 19.9141 41.6452 19.7603 41.1246 19.7077C40.8547 19.54 40.5835 19.3862 40.3108 19.2462C40.2987 19.1892 40.2626 19.143 40.2023 19.1077C41.0254 18.5165 41.8573 17.8242 42.698 17.0308Z" fill="#F7E451"/>
<path opacity="0.919" fill-rule="evenodd" clip-rule="evenodd" d="M130.589 18.7846C131.567 18.7693 132.544 18.7846 133.519 18.8308C134.551 19.1213 134.931 19.7213 134.658 20.6308C134.444 21.0282 134.118 21.336 133.682 21.5538C133.158 21.6052 132.597 21.6052 132 21.5538C132 22.0154 132 22.4769 132 22.9385C131.53 22.9385 131.059 22.9385 130.589 22.9385C130.589 21.5538 130.589 20.1692 130.589 18.7846ZM132 19.6154C132.471 19.555 132.886 19.6473 133.248 19.8923C133.332 20.1468 133.278 20.3776 133.085 20.5846C132.735 20.6953 132.373 20.7414 132 20.7231C132 20.3538 132 19.9846 132 19.6154Z" fill="#141010"/>
<path opacity="0.962" fill-rule="evenodd" clip-rule="evenodd" d="M140.789 22.9385C140.355 22.9385 139.921 22.9385 139.487 22.9385C139.487 22.3846 139.487 21.8308 139.487 21.2769C138.909 21.2769 138.329 21.2769 137.751 21.2769C137.751 21.8308 137.751 22.3846 137.751 22.9385C137.317 22.9385 136.883 22.9385 136.449 22.9385C136.34 21.5701 136.305 20.1855 136.34 18.7846C136.81 18.7846 137.281 18.7846 137.751 18.7846C137.751 19.3077 137.751 19.8307 137.751 20.3538C138.329 20.3538 138.909 20.3538 139.487 20.3538C139.487 19.8307 139.487 19.3077 139.487 18.7846C139.957 18.7846 140.428 18.7846 140.898 18.7846C140.933 20.1855 140.898 21.5701 140.789 22.9385Z" fill="#151110"/>
<path opacity="0.943" fill-rule="evenodd" clip-rule="evenodd" d="M144.804 18.7846C145.433 18.7304 146.03 18.792 146.594 18.9692C147.145 20.265 147.704 21.5574 148.276 22.8462C147.812 22.9377 147.341 22.9686 146.866 22.9385C146.859 22.3075 146.479 22.0614 145.726 22.2C145.419 22.2154 145.111 22.2307 144.804 22.2462C144.636 22.4912 144.509 22.7527 144.424 23.0308C143.982 22.9569 143.529 22.9108 143.068 22.8923C143.682 21.5275 144.26 20.1583 144.804 18.7846ZM145.564 20.0769C145.699 20.084 145.789 20.1456 145.835 20.2615C145.955 20.4366 145.974 20.6058 145.889 20.7692C146.067 20.9016 146.176 21.0708 146.215 21.2769C145.853 21.4 145.491 21.4 145.13 21.2769C145.318 20.8869 145.464 20.4869 145.564 20.0769Z" fill="#151212"/>
<path opacity="0.925" fill-rule="evenodd" clip-rule="evenodd" d="M153.702 20.8154C153.578 20.853 153.469 20.9146 153.376 21C153.878 21.5929 154.313 22.2236 154.678 22.8923C154.168 22.9687 153.661 22.9534 153.159 22.8462C152.905 22.2619 152.49 21.8004 151.911 21.4615C151.803 21.5846 151.694 21.5846 151.586 21.4615C151.531 21.9529 151.513 22.4452 151.531 22.9385C151.062 22.9385 150.591 22.9385 150.121 22.9385C150.121 21.5538 150.121 20.1692 150.121 18.7846C151.099 18.7693 152.075 18.7846 153.051 18.8308C153.716 18.9768 154.041 19.346 154.027 19.9385C154.027 20.2617 153.919 20.5541 153.702 20.8154ZM151.531 19.6154C151.788 19.6003 152.04 19.6157 152.291 19.6615C152.444 19.6955 152.553 19.7724 152.617 19.8923C152.619 20.0863 152.583 20.2863 152.508 20.4923C152.19 20.5803 151.865 20.6264 151.531 20.6308C151.531 20.2923 151.531 19.9539 151.531 19.6154Z" fill="#151212"/>
<path opacity="0.923" fill-rule="evenodd" clip-rule="evenodd" d="M156.306 18.7846C156.888 18.7543 157.468 18.7851 158.042 18.8769C158.376 19.5301 158.719 20.1762 159.073 20.8154C159.432 20.1579 159.776 19.4963 160.104 18.8308C160.681 18.7847 161.26 18.7693 161.84 18.7846C161.84 20.1692 161.84 21.5538 161.84 22.9385C161.406 22.9385 160.972 22.9385 160.538 22.9385C160.556 22.0457 160.538 21.1533 160.483 20.2615C160.165 20.8732 159.858 21.4885 159.561 22.1077C159.236 22.2307 158.91 22.2307 158.584 22.1077C158.27 21.5358 157.962 20.9204 157.662 20.2615C157.608 21.1533 157.589 22.0457 157.608 22.9385C157.174 22.9385 156.74 22.9385 156.306 22.9385C156.306 21.5538 156.306 20.1692 156.306 18.7846Z" fill="#141111"/>
<path opacity="0.944" fill-rule="evenodd" clip-rule="evenodd" d="M165.529 18.7846C166.124 18.731 166.683 18.7926 167.211 18.9692C167.761 20.265 168.321 21.5574 168.893 22.8462C168.428 22.9377 167.957 22.9686 167.482 22.9385C167.476 22.3075 167.096 22.0614 166.343 22.2C166.036 22.2154 165.727 22.2307 165.42 22.2462C165.323 22.4485 165.214 22.6484 165.095 22.8462C164.638 22.9103 164.186 22.9718 163.739 23.0308C163.941 22.3581 164.213 21.6966 164.552 21.0462C164.517 21.0154 164.48 20.9846 164.444 20.9538C164.826 20.2811 165.187 19.5581 165.529 18.7846ZM166.288 19.9846C166.462 20.2878 166.606 20.6108 166.722 20.9538C166.707 21.0251 166.67 21.0867 166.614 21.1385C166.702 21.1669 166.773 21.213 166.831 21.2769C166.47 21.4 166.107 21.4 165.746 21.2769C165.927 20.844 166.108 20.4132 166.288 19.9846Z" fill="#151212"/>
<path fill-rule="evenodd" clip-rule="evenodd" d="M49.2084 18.9692C50.8551 18.9389 52.4827 18.9696 54.0913 19.0615C52.7886 19.0461 51.4865 19.0615 50.185 19.1077C50.3296 19.1384 50.4744 19.1693 50.619 19.2C50.4236 19.2293 50.3875 19.2908 50.5105 19.3846C50.3839 19.4308 50.2935 19.5077 50.2392 19.6154C50.1343 19.3011 49.9354 19.2549 49.6424 19.4769C50.0765 19.5385 50.0765 19.6 49.6424 19.6615C49.5675 19.76 49.5132 19.8678 49.4797 19.9846C49.4435 19.923 49.4073 19.8616 49.3712 19.8C49.2648 19.9367 49.1382 20.0598 48.9914 20.1692C49.0432 20.2595 49.1154 20.3364 49.2084 20.4C48.754 20.4162 48.3199 20.4624 47.9063 20.5385C46.6725 20.5632 45.4426 20.5324 44.217 20.4462C44.8768 19.9938 45.5278 19.5168 46.1702 19.0154C47.1822 18.9692 48.1951 18.9539 49.2084 18.9692Z" fill="#F9ED5C"/>
<path fill-rule="evenodd" clip-rule="evenodd" d="M34.3427 18.7846C36.0269 19.9314 37.9438 20.6237 40.0936 20.8615C39.6176 20.8824 39.1474 20.9286 38.683 21C38.4299 20.9384 38.1766 20.877 37.9235 20.8154C37.653 20.8246 37.3817 20.8554 37.1097 20.9077C36.2483 20.7859 35.3803 20.6629 34.5055 20.5385C34.2703 20.6609 34.0715 20.6301 33.9087 20.4462C34.118 20.471 34.2988 20.4248 34.4512 20.3077C34.1918 20.1869 34.1918 20.0946 34.4512 20.0308C34.2328 19.95 34.2328 19.8269 34.4512 19.6615C34.4832 19.3777 34.4471 19.0854 34.3427 18.7846Z" fill="#318290"/>
<path fill-rule="evenodd" clip-rule="evenodd" d="M54.0912 19.0615C54.1997 19.0615 54.3082 19.0615 54.4167 19.0615C55.2316 19.1231 56.0636 19.1846 56.9124 19.2462C56.7697 19.4138 56.607 19.5677 56.4241 19.7077C56.2434 19.6302 56.2252 19.6763 56.3699 19.8462C56.2432 19.9539 56.1167 20.0615 55.9901 20.1692C55.9452 20.127 55.8909 20.0962 55.8273 20.0769C55.7347 20.1713 55.6262 20.2482 55.5018 20.3077C54.2893 20.3234 53.0958 20.3695 51.921 20.4462C51.4459 20.4851 50.9757 20.5467 50.5104 20.6308C49.6251 20.6287 48.7571 20.598 47.9062 20.5385C48.3199 20.4624 48.7539 20.4162 49.2083 20.4C49.1154 20.3364 49.0431 20.2595 48.9913 20.1692C49.1381 20.0598 49.2648 19.9367 49.3711 19.8C49.4072 19.8616 49.4435 19.923 49.4796 19.9846C49.5131 19.8678 49.5674 19.76 49.6424 19.6615C50.0764 19.6 50.0764 19.5385 49.6424 19.4769C49.9353 19.2549 50.1342 19.3011 50.2392 19.6154C50.2934 19.5077 50.3838 19.4308 50.5104 19.3846C50.3874 19.2908 50.4235 19.2293 50.619 19.2C50.4743 19.1693 50.3296 19.1384 50.1849 19.1077C51.4865 19.0615 52.7886 19.0461 54.0912 19.0615Z" fill="#F7F164"/>
<path fill-rule="evenodd" clip-rule="evenodd" d="M54.4168 19.0615C56.154 19.0588 57.8902 19.0895 59.6252 19.1538C59.5049 19.2268 59.3602 19.2729 59.1912 19.2923C59.3015 19.3891 59.3197 19.4969 59.2454 19.6154C59.2093 19.5538 59.1731 19.4923 59.1369 19.4308C59.0775 19.8173 58.8604 20.0327 58.4859 20.0769C58.4349 20.1763 58.453 20.2686 58.5401 20.3538C58.1298 20.4363 57.6957 20.4363 57.238 20.3538C56.8134 20.3969 56.3975 20.4584 55.9902 20.5385C54.6406 20.5123 53.2842 20.4815 51.9211 20.4462C53.0959 20.3695 54.2894 20.3234 55.5019 20.3077C55.6263 20.2482 55.7348 20.1713 55.8274 20.0769C55.891 20.0962 55.9453 20.127 55.9902 20.1692C56.1168 20.0615 56.2433 19.9539 56.37 19.8462C56.2253 19.6763 56.2435 19.6302 56.4242 19.7077C56.6071 19.5677 56.7698 19.4138 56.9125 19.2462C56.0637 19.1846 55.2317 19.1231 54.4168 19.0615Z" fill="#EBE15A"/>
<path fill-rule="evenodd" clip-rule="evenodd" d="M59.6252 19.1538C62.1928 19.2257 64.7609 19.2871 67.3293 19.3385C67.4488 19.4854 67.3765 19.5623 67.1123 19.5692C66.9992 19.7463 66.8727 19.9155 66.7325 20.0769C66.624 20.0769 66.5155 20.0769 66.407 20.0769C66.3566 20.1318 66.3385 20.1933 66.3527 20.2615C64.9432 20.338 63.5326 20.338 62.1209 20.2615C61.7916 20.3133 61.466 20.3748 61.1443 20.4462C60.712 20.416 60.278 20.3852 59.8422 20.3538C59.4806 20.3538 59.1188 20.3538 58.7571 20.3538C58.6599 20.4467 58.5876 20.4467 58.5401 20.3538C58.453 20.2686 58.4349 20.1763 58.4859 20.0769C58.8604 20.0327 59.0775 19.8173 59.1369 19.4308C59.173 19.4923 59.2093 19.5538 59.2454 19.6154C59.3196 19.4969 59.3015 19.3891 59.1912 19.2923C59.3602 19.2729 59.5049 19.2268 59.6252 19.1538Z" fill="#E4D046"/>
<path opacity="0.974" fill-rule="evenodd" clip-rule="evenodd" d="M67.3292 19.3385C72.536 19.5193 77.7444 19.6886 82.9543 19.8462C82.7767 19.9016 82.5959 19.9478 82.4118 19.9846C81.6311 19.8698 80.8535 19.9005 80.0789 20.0769C79.0119 20.037 77.9449 20.0062 76.8779 19.9846C76.3957 19.9809 75.9255 20.0425 75.4673 20.1692C74.3985 20.1138 73.3315 20.0829 72.2663 20.0769C71.7324 20.0912 71.208 20.1528 70.6929 20.2615C69.246 20.2002 67.7991 20.2002 66.3526 20.2615C66.3384 20.1933 66.3565 20.1318 66.4068 20.0769C66.5154 20.0769 66.6239 20.0769 66.7324 20.0769C66.8726 19.9155 66.9991 19.7463 67.1121 19.5692C67.3764 19.5623 67.4487 19.4854 67.3292 19.3385Z" fill="#D6B82F"/>
<path opacity="0.01" fill-rule="evenodd" clip-rule="evenodd" d="M58.7571 20.3538C59.1188 20.3538 59.4806 20.3538 59.8422 20.3538C59.5825 20.4194 59.3113 20.481 59.0284 20.5385C58.956 20.4154 58.8838 20.4154 58.8114 20.5385C58.761 20.4836 58.7429 20.4221 58.7571 20.3538Z" fill="#478287"/>
<path opacity="0.01" fill-rule="evenodd" clip-rule="evenodd" d="M153.702 20.8154C153.846 20.877 153.846 20.877 153.702 20.8154V20.8154Z" fill="#257A8E"/>
<path opacity="0.027" fill-rule="evenodd" clip-rule="evenodd" d="M136.449 22.9385C136.883 22.9385 137.317 22.9385 137.751 22.9385C137.678 23.0093 137.587 23.0708 137.48 23.1231C137.19 23.1231 136.901 23.1231 136.612 23.1231C136.533 23.0729 136.479 23.0113 136.449 22.9385Z" fill="#3B7A8C"/>
<path opacity="0.027" fill-rule="evenodd" clip-rule="evenodd" d="M139.487 22.9385C139.921 22.9385 140.355 22.9385 140.789 22.9385C140.759 23.0113 140.705 23.0729 140.626 23.1231C140.337 23.1231 140.048 23.1231 139.758 23.1231C139.651 23.0708 139.56 23.0093 139.487 22.9385Z" fill="#3B7A8C"/>
</svg>
